<?xml version="1.0" encoding="utf-8"?>
<!-- Generator: Adobe Illustrator 23.0.1, SVG Export Plug-In . SVG Version: 6.00 Build 0)  -->
<svg version="1.1" id="Capa_1" xmlns="http://www.w3.org/2000/svg" xmlns:xlink="http://www.w3.org/1999/xlink" x="0px" y="0px"
	 viewBox="0 0 294.8 294.8" style="enable-background:new 0 0 294.8 294.8;" xml:space="preserve">
<style type="text/css">
	.st0{fill:#4888C7;}
</style>
<path class="st0" d="M65.8,62.4c-12.7,0-23,10.3-23,23s10.3,23,23,23s23-10.3,23-23S78.5,62.4,65.8,62.4z M65.8,96.4
	c-6.1,0-11-4.9-11-11s4.9-11,11-11s11,4.9,11,11S71.9,96.4,65.8,96.4z"/>
<path class="st0" d="M246.8,79.4h-140c-3.3,0-6,2.7-6,6s2.7,6,6,6h140c3.3,0,6-2.7,6-6S250.1,79.4,246.8,79.4z"/>
<path class="st0" d="M65.8,124.4c-3.3,0-6,2.7-6,6c0,3.3,2.7,6,6,6c6.1,0,11,4.9,11,11s-4.9,11-11,11s-11-4.9-11-11c0-3.3-2.7-6-6-6
	s-6,2.7-6,6c0,12.7,10.3,23,23,23s23-10.3,23-23S78.5,124.4,65.8,124.4z"/>
<path class="st0" d="M246.8,141.4h-140c-3.3,0-6,2.7-6,6s2.7,6,6,6h140c3.3,0,6-2.7,6-6S250.1,141.4,246.8,141.4z"/>
<path class="st0" d="M65.8,186.4c-12.7,0-23,10.3-23,23s10.3,23,23,23s23-10.3,23-23S78.5,186.4,65.8,186.4z M65.8,220.4
	c-6.1,0-11-4.9-11-11s4.9-11,11-11s11,4.9,11,11S71.9,220.4,65.8,220.4z"/>
<path class="st0" d="M246.8,203.4h-140c-3.3,0-6,2.7-6,6s2.7,6,6,6h140c3.3,0,6-2.7,6-6S250.1,203.4,246.8,203.4z"/>
<path class="st0" d="M259.7,294.8H35.2C15.8,294.8,0,279.1,0,259.7V35.2C0,15.8,15.8,0,35.2,0h224.5c19.4,0,35.2,15.8,35.2,35.2
	v224.5C294.8,279.1,279.1,294.8,259.7,294.8z M35.2,12.5c-12.5,0-22.7,10.2-22.7,22.7v224.5c0,12.5,10.2,22.7,22.7,22.7h224.5
	c12.5,0,22.7-10.2,22.7-22.7V35.2c0-12.5-10.2-22.7-22.7-22.7H35.2z"/>
</svg>
