<svg id="a6270be0-eccb-4e78-933c-bc6390054cf1" data-name="Ñëîé 1" xmlns="http://www.w3.org/2000/svg" xmlns:xlink="http://www.w3.org/1999/xlink" viewBox="0 0 534.16 186.46"><defs><style>.a6029a3a-fcf4-4f25-a164-d26b8fc379b6{fill:none;}.ab2f31c0-622c-45f5-b82a-b44de47003e8{fill:#180d5b;}.bba0cf83-f7ec-4f22-a561-8f7914a6ad24{clip-path:url(#ebdc6d9a-5c6e-43da-a172-b17c92a3ef88);}.e7411c55-d078-4a0e-a52f-7fdee1f8d63a{fill:#fff;}.f26760db-50db-43a5-b4bc-885efe2b4bad{fill:url(#f4d29eda-5754-4922-a07e-ba5f0dcf9acd);}.ba286655-24aa-4076-9545-2b8e05fa9dec{fill:#24126a;}.b456b7c6-da81-4496-b1fa-8a32e96eb95b{opacity:0.51;}.ac687bfd-2cc5-4e92-b69b-24f972e3bad7{fill:#453c9e;}.b5be9270-57bf-4827-abf4-b1bd645292a6{fill:url(#ac435f0b-d5bb-4a8f-81c9-da3fdab6c295);}.b13e5946-0566-4b19-a425-00164d0623a2{fill:url(#b2a19dfe-b938-4cc3-8832-ac59e4bd19b8);}.bc2d41fc-6ec5-4d6c-9267-572fd0a5f3bf{fill:url(#e81ff468-6a6a-41d1-8f66-38ca739cb609);}.bd847bba-61e5-4b7c-9267-8ca82ce07b85{fill:url(#e9d93b46-0af3-4446-8c64-8192286c29fd);}.ec35cb32-930e-40ac-92e0-24210a523343{fill:url(#e7d0020e-769b-4014-bf25-7b922694ccc4);}.f9690615-2761-4870-8d80-8075eeed29d0{fill:url(#fa4271cd-c5ff-40d1-b462-99c7f8245b1f);}.f41cf714-38bb-41a0-a7d5-77f93411a68a{fill:url(#b329939c-8795-42ae-9f51-393edfd6bb5e);}.f3ba79e2-639d-4727-a07c-c19112625fc1{fill:url(#b7de30c2-8759-45c2-924b-036664f2893e);}.b8e90dca-010b-4744-9f7d-ee2208cde0de{fill:url(#bed1fc72-e6d4-477f-b0b2-bf9993e3c8a7);}.bf5c94ca-0233-4ee0-895d-5ae887881ad2{fill:url(#f2d0e099-2e55-4519-aa3a-b727d24a1442);}.a6ebfa30-9264-4c6d-a385-9dcbee4f7913{fill:url(#ff6f4632-7c1c-429f-b9e8-0feafce3d01f);}.b5603159-3b61-4a56-979b-617b70659ca5{fill:url(#ac51dce0-0b00-4448-b6fe-db9be99907b9);}.f3f603c4-9ef5-4b1b-a8e8-c4c6b81a8cf9{fill:url(#be678f3a-a208-41b7-81b7-511a788080ec);}.eb15cb86-d3fb-4028-bc61-29c9a5fc3601{fill:url(#ab00434a-1877-49f2-b0a8-e806f834937f);}.e27d5e4f-dbe6-4812-8962-e31c088ee029{fill:url(#e4cdb80b-b4a7-43b4-898b-a1f4aaa86f97);}.a3fdac64-f183-445d-92d1-0e5b034ad7c6{fill:url(#b1caf1e8-2c43-44bc-bc4a-a5a3243ed438);}.f6f0b5ad-614a-4dc5-b6a6-cb0e3cf47371{clip-path:url(#bd67123a-46f6-4b13-9349-718f57de2257);}.b9278bc9-08f4-49cb-b318-bf801ac13eed{fill:url(#e13e0a09-6870-43fb-8c31-1af7ccfe6e8e);}.bf941eef-4ac1-4a4c-910a-51afe234648c{fill:url(#efb747b6-6408-4359-8744-55b5c8fe9a0a);}.b5b46c31-338a-4264-8480-40bca885e6e2{fill:url(#a5b183ab-df2b-478f-a82f-290fdb479cf0);}.fd1c2c8c-c56e-418c-8947-a4e80500478f{fill:#3f21d3;}.b4f0c372-7144-4b87-ab08-871822fe8203{fill:url(#a88d7f45-7eed-4ec9-a0dd-56db6a61ed58);}.abd4b1c1-4a4e-470e-b8c8-f995c43fac07{fill:url(#e173d29b-845f-484b-b1c1-97651cfeb24b);}.ac11fd24-f135-4791-8a1a-c497b2ab1f5b{fill:url(#f58bdfc3-548f-47b7-a1ef-e0e07bf6b4b9);}</style><clipPath id="ebdc6d9a-5c6e-43da-a172-b17c92a3ef88"><polygon class="a6029a3a-fcf4-4f25-a164-d26b8fc379b6" points="419.31 19.9 520.82 78.42 519.54 -237.23 420.55 -237.23 419.31 19.9"/></clipPath><linearGradient id="f4d29eda-5754-4922-a07e-ba5f0dcf9acd" x1="-2130.05" y1="54.45" x2="-2130.05" y2="-194.54" gradientTransform="translate(2624.52)" gradientUnits="userSpaceOnUse"><stop offset="0" stop-color="#c0bff6"/><stop offset="0.29" stop-color="#c5c4f7"/><stop offset="0.64" stop-color="#d3d2f9"/><stop offset="1" stop-color="#e9e9fd"/></linearGradient><linearGradient id="ac435f0b-d5bb-4a8f-81c9-da3fdab6c295" x1="-2180.42" y1="25.15" x2="-2177.66" y2="25.15" gradientTransform="translate(2624.52)" gradientUnits="userSpaceOnUse"><stop offset="0" stop-color="#42e8e0"/><stop offset="1" stop-color="#42e8e0"/></linearGradient><linearGradient id="b2a19dfe-b938-4cc3-8832-ac59e4bd19b8" x1="-2180.42" y1="31.23" x2="-2177.66" y2="31.23" xlink:href="#ac435f0b-d5bb-4a8f-81c9-da3fdab6c295"/><linearGradient id="e81ff468-6a6a-41d1-8f66-38ca739cb609" x1="-2165.93" y1="39.6" x2="-2163.16" y2="39.6" xlink:href="#ac435f0b-d5bb-4a8f-81c9-da3fdab6c295"/><linearGradient id="e9d93b46-0af3-4446-8c64-8192286c29fd" x1="-2180.42" y1="37.32" x2="-2177.66" y2="37.32" xlink:href="#ac435f0b-d5bb-4a8f-81c9-da3fdab6c295"/><linearGradient id="e7d0020e-769b-4014-bf25-7b922694ccc4" x1="-2165.93" y1="3.01" x2="-2163.16" y2="3.01" xlink:href="#ac435f0b-d5bb-4a8f-81c9-da3fdab6c295"/><linearGradient id="fa4271cd-c5ff-40d1-b462-99c7f8245b1f" x1="-2185.26" y1="-2.06" x2="-2182.49" y2="-2.06" xlink:href="#ac435f0b-d5bb-4a8f-81c9-da3fdab6c295"/><linearGradient id="b329939c-8795-42ae-9f51-393edfd6bb5e" x1="-2180.42" y1="0.73" x2="-2177.66" y2="0.73" xlink:href="#ac435f0b-d5bb-4a8f-81c9-da3fdab6c295"/><linearGradient id="b7de30c2-8759-45c2-924b-036664f2893e" x1="-2175.59" y1="3.52" x2="-2172.83" y2="3.52" xlink:href="#ac435f0b-d5bb-4a8f-81c9-da3fdab6c295"/><linearGradient id="bed1fc72-e6d4-477f-b0b2-bf9993e3c8a7" x1="-2194.92" y1="-1.55" x2="-2192.15" y2="-1.55" xlink:href="#ac435f0b-d5bb-4a8f-81c9-da3fdab6c295"/><linearGradient id="f2d0e099-2e55-4519-aa3a-b727d24a1442" x1="-2185.26" y1="4.03" x2="-2182.49" y2="4.03" xlink:href="#ac435f0b-d5bb-4a8f-81c9-da3fdab6c295"/><linearGradient id="ff6f4632-7c1c-429f-b9e8-0feafce3d01f" x1="-2170.76" y1="12.4" x2="-2168" y2="12.4" xlink:href="#ac435f0b-d5bb-4a8f-81c9-da3fdab6c295"/><linearGradient id="ac51dce0-0b00-4448-b6fe-db9be99907b9" x1="-2161.1" y1="17.97" x2="-2158.33" y2="17.97" xlink:href="#ac435f0b-d5bb-4a8f-81c9-da3fdab6c295"/><linearGradient id="be678f3a-a208-41b7-81b7-511a788080ec" x1="-2194.92" y1="4.54" x2="-2192.15" y2="4.54" xlink:href="#ac435f0b-d5bb-4a8f-81c9-da3fdab6c295"/><linearGradient id="ab00434a-1877-49f2-b0a8-e806f834937f" x1="-2175.59" y1="15.69" x2="-2172.83" y2="15.69" xlink:href="#ac435f0b-d5bb-4a8f-81c9-da3fdab6c295"/><linearGradient id="e4cdb80b-b4a7-43b4-898b-a1f4aaa86f97" x1="-2170.76" y1="18.48" x2="-2168" y2="18.48" xlink:href="#ac435f0b-d5bb-4a8f-81c9-da3fdab6c295"/><linearGradient id="b1caf1e8-2c43-44bc-bc4a-a5a3243ed438" x1="-2161.1" y1="24.06" x2="-2158.33" y2="24.06" xlink:href="#ac435f0b-d5bb-4a8f-81c9-da3fdab6c295"/><clipPath id="bd67123a-46f6-4b13-9349-718f57de2257"><path class="a6029a3a-fcf4-4f25-a164-d26b8fc379b6" d="M233.22-87.45,388.43,1.64h4.7l42.59-226.19s-27.47-85-30.14-85H282Z"/></clipPath><linearGradient id="e13e0a09-6870-43fb-8c31-1af7ccfe6e8e" x1="212.11" y1="-28.88" x2="212.11" y2="-254.69" gradientTransform="matrix(-1, 0, 0, 1, 535.37, 0)" xlink:href="#f4d29eda-5754-4922-a07e-ba5f0dcf9acd"/><linearGradient id="efb747b6-6408-4359-8744-55b5c8fe9a0a" x1="182.49" y1="30.99" x2="186.98" y2="30.99" gradientTransform="matrix(-1, 0, 0, 1, 535.37, 0)" xlink:href="#f4d29eda-5754-4922-a07e-ba5f0dcf9acd"/><linearGradient id="a5b183ab-df2b-478f-a82f-290fdb479cf0" x1="181.95" y1="31.45" x2="185.66" y2="31.45" gradientTransform="matrix(-1, 0, 0, 1, 535.37, 0)" gradientUnits="userSpaceOnUse"><stop offset="0" stop-color="#5761d7"/><stop offset="0.18" stop-color="#5c66d9"/><stop offset="0.39" stop-color="#6a73df"/><stop offset="0.61" stop-color="#8289e8"/><stop offset="0.85" stop-color="#a3a7f5"/><stop offset="1" stop-color="#bcbeff"/></linearGradient><linearGradient id="a88d7f45-7eed-4ec9-a0dd-56db6a61ed58" x1="143.43" y1="6.99" x2="147.91" y2="6.99" gradientTransform="matrix(-1, 0, 0, 1, 535.37, 0)" xlink:href="#f4d29eda-5754-4922-a07e-ba5f0dcf9acd"/><linearGradient id="e173d29b-845f-484b-b1c1-97651cfeb24b" x1="142.89" y1="7.45" x2="146.59" y2="7.45" xlink:href="#a5b183ab-df2b-478f-a82f-290fdb479cf0"/><linearGradient id="f58bdfc3-548f-47b7-a1ef-e0e07bf6b4b9" x1="-0.39" y1="-11.44" x2="43.06" y2="-11.44" gradientTransform="matrix(-0.52, -0.86, -0.86, 0.52, 515.3, 12.73)" gradientUnits="userSpaceOnUse"><stop offset="0" stop-color="#5761d7"/><stop offset="0.07" stop-color="#5472d8"/><stop offset="0.28" stop-color="#4e9cdb"/><stop offset="0.48" stop-color="#49bddd"/><stop offset="0.67" stop-color="#45d5df"/><stop offset="0.85" stop-color="#43e3e0"/><stop offset="1" stop-color="#42e8e0"/></linearGradient></defs><path class="ab2f31c0-622c-45f5-b82a-b44de47003e8" d="M535.44-317.65V86.85L203.75-104.37a6.8,6.8,0,0,1-.08-11.77L274.48-158a6.8,6.8,0,0,0,.2-11.6L42.58-317.65Z"/><g class="bba0cf83-f7ec-4f22-a561-8f7914a6ad24"><polygon class="e7411c55-d078-4a0e-a52f-7fdee1f8d63a" points="471.19 41.15 424.61 14.26 471.19 -125.2 517.76 14.26 471.19 41.15"/><polygon class="f26760db-50db-43a5-b4bc-885efe2b4bad" points="517.76 -201.53 517.76 91.56 471.19 128.08 471.19 -174.64 517.76 -201.53"/><polygon class="ba286655-24aa-4076-9545-2b8e05fa9dec" points="424.61 -201.53 424.61 86.84 471.19 122.78 471.19 -174.64 424.61 -201.53"/><g class="b456b7c6-da81-4496-b1fa-8a32e96eb95b"><polygon class="ac687bfd-2cc5-4e92-b69b-24f972e3bad7" points="427.77 -194.69 427.77 105.7 468.03 139.71 467.73 -170.55 427.77 -194.69"/></g><polygon class="ac687bfd-2cc5-4e92-b69b-24f972e3bad7" points="510.78 -15.09 510.78 -12.36 478.18 6.46 478.18 3.74 510.78 -15.09"/><polygon class="ac687bfd-2cc5-4e92-b69b-24f972e3bad7" points="510.78 -3.55 510.78 -0.82 478.18 18 478.18 15.27 510.78 -3.55"/><polygon class="ac687bfd-2cc5-4e92-b69b-24f972e3bad7" points="510.78 7.99 510.78 10.71 478.18 29.54 478.18 26.81 510.78 7.99"/><polygon class="ac687bfd-2cc5-4e92-b69b-24f972e3bad7" points="511.22 19.32 511.22 22.05 478.62 40.87 478.62 38.14 511.22 19.32"/><polygon class="ac687bfd-2cc5-4e92-b69b-24f972e3bad7" points="511.22 30.86 511.22 33.59 478.62 52.41 478.62 49.68 511.22 30.86"/><polygon class="ac687bfd-2cc5-4e92-b69b-24f972e3bad7" points="511.22 42.39 511.22 45.12 478.62 63.95 478.62 61.22 511.22 42.39"/><polygon class="ac687bfd-2cc5-4e92-b69b-24f972e3bad7" points="512.1 52.58 512.1 55.31 479.5 74.14 479.5 71.41 512.1 52.58"/><polygon class="ac687bfd-2cc5-4e92-b69b-24f972e3bad7" points="512.1 64.12 512.1 66.85 479.5 85.67 479.5 82.94 512.1 64.12"/><polygon class="ac687bfd-2cc5-4e92-b69b-24f972e3bad7" points="512.1 75.66 512.1 78.39 479.5 97.21 479.5 94.48 512.1 75.66"/><polygon class="ac687bfd-2cc5-4e92-b69b-24f972e3bad7" points="432.38 13.77 429.61 12.17 429.61 7.62 432.38 9.21 432.38 13.77"/><polygon class="ac687bfd-2cc5-4e92-b69b-24f972e3bad7" points="437.21 16.56 434.44 14.96 434.44 10.4 437.21 12 437.21 16.56"/><polygon class="ac687bfd-2cc5-4e92-b69b-24f972e3bad7" points="442.04 19.35 439.27 17.75 439.27 13.19 442.04 14.79 442.04 19.35"/><polygon class="ac687bfd-2cc5-4e92-b69b-24f972e3bad7" points="446.87 22.14 444.1 20.54 444.1 15.98 446.87 17.58 446.87 22.14"/><polygon class="ac687bfd-2cc5-4e92-b69b-24f972e3bad7" points="451.7 24.93 448.93 23.33 448.93 18.77 451.7 20.37 451.7 24.93"/><polygon class="ac687bfd-2cc5-4e92-b69b-24f972e3bad7" points="456.53 27.71 453.76 26.12 453.76 21.56 456.53 23.16 456.53 27.71"/><polygon class="ac687bfd-2cc5-4e92-b69b-24f972e3bad7" points="461.36 30.5 458.59 28.91 458.59 24.35 461.36 25.95 461.36 30.5"/><polygon class="ac687bfd-2cc5-4e92-b69b-24f972e3bad7" points="466.19 33.29 463.42 31.69 463.42 27.14 466.19 28.74 466.19 33.29"/><polygon class="ac687bfd-2cc5-4e92-b69b-24f972e3bad7" points="432.38 19.86 429.61 18.26 429.61 13.7 432.38 15.3 432.38 19.86"/><polygon class="ac687bfd-2cc5-4e92-b69b-24f972e3bad7" points="437.21 22.65 434.44 21.05 434.44 16.49 437.21 18.09 437.21 22.65"/><polygon class="ac687bfd-2cc5-4e92-b69b-24f972e3bad7" points="442.04 25.43 439.27 23.84 439.27 19.28 442.04 20.88 442.04 25.43"/><polygon class="b5be9270-57bf-4827-abf4-b1bd645292a6" points="446.87 28.22 444.1 26.63 444.1 22.07 446.87 23.67 446.87 28.22"/><polygon class="ac687bfd-2cc5-4e92-b69b-24f972e3bad7" points="451.7 31.01 448.93 29.41 448.93 24.86 451.7 26.46 451.7 31.01"/><polygon class="ac687bfd-2cc5-4e92-b69b-24f972e3bad7" points="456.53 33.8 453.76 32.2 453.76 27.65 456.53 29.25 456.53 33.8"/><polygon class="ac687bfd-2cc5-4e92-b69b-24f972e3bad7" points="461.36 36.59 458.59 34.99 458.59 30.44 461.36 32.03 461.36 36.59"/><polygon class="ac687bfd-2cc5-4e92-b69b-24f972e3bad7" points="466.19 39.38 463.42 37.78 463.42 33.23 466.19 34.82 466.19 39.38"/><polygon class="ac687bfd-2cc5-4e92-b69b-24f972e3bad7" points="432.38 25.94 429.61 24.35 429.61 19.79 432.38 21.39 432.38 25.94"/><polygon class="ac687bfd-2cc5-4e92-b69b-24f972e3bad7" points="437.21 28.73 434.44 27.14 434.44 22.58 437.21 24.18 437.21 28.73"/><polygon class="ac687bfd-2cc5-4e92-b69b-24f972e3bad7" points="442.04 31.52 439.27 29.92 439.27 25.37 442.04 26.97 442.04 31.52"/><polygon class="b13e5946-0566-4b19-a425-00164d0623a2" points="446.87 34.31 444.1 32.71 444.1 28.16 446.87 29.75 446.87 34.31"/><polygon class="ac687bfd-2cc5-4e92-b69b-24f972e3bad7" points="451.7 37.1 448.93 35.5 448.93 30.95 451.7 32.54 451.7 37.1"/><polygon class="ac687bfd-2cc5-4e92-b69b-24f972e3bad7" points="456.53 39.89 453.76 38.29 453.76 33.73 456.53 35.33 456.53 39.89"/><polygon class="bc2d41fc-6ec5-4d6c-9267-572fd0a5f3bf" points="461.36 42.68 458.59 41.08 458.59 36.52 461.36 38.12 461.36 42.68"/><polygon class="ac687bfd-2cc5-4e92-b69b-24f972e3bad7" points="466.19 45.47 463.42 43.87 463.42 39.31 466.19 40.91 466.19 45.47"/><polygon class="ac687bfd-2cc5-4e92-b69b-24f972e3bad7" points="432.38 32.03 429.61 30.43 429.61 25.88 432.38 27.48 432.38 32.03"/><polygon class="ac687bfd-2cc5-4e92-b69b-24f972e3bad7" points="437.21 34.82 434.44 33.22 434.44 28.67 437.21 30.27 437.21 34.82"/><polygon class="ac687bfd-2cc5-4e92-b69b-24f972e3bad7" points="442.04 37.61 439.27 36.01 439.27 31.45 442.04 33.05 442.04 37.61"/><polygon class="bd847bba-61e5-4b7c-9267-8ca82ce07b85" points="446.87 40.4 444.1 38.8 444.1 34.24 446.87 35.84 446.87 40.4"/><polygon class="ac687bfd-2cc5-4e92-b69b-24f972e3bad7" points="451.7 43.19 448.93 41.59 448.93 37.03 451.7 38.63 451.7 43.19"/><polygon class="ac687bfd-2cc5-4e92-b69b-24f972e3bad7" points="456.53 45.98 453.76 44.38 453.76 39.82 456.53 41.42 456.53 45.98"/><polygon class="ac687bfd-2cc5-4e92-b69b-24f972e3bad7" points="461.36 48.77 458.59 47.17 458.59 42.61 461.36 44.21 461.36 48.77"/><polygon class="ac687bfd-2cc5-4e92-b69b-24f972e3bad7" points="466.19 51.55 463.42 49.96 463.42 45.4 466.19 47 466.19 51.55"/><polygon class="ac687bfd-2cc5-4e92-b69b-24f972e3bad7" points="432.38 38.12 429.61 36.52 429.61 31.96 432.38 33.56 432.38 38.12"/><polygon class="ac687bfd-2cc5-4e92-b69b-24f972e3bad7" points="437.21 40.91 434.44 39.31 434.44 34.75 437.21 36.35 437.21 40.91"/><polygon class="ac687bfd-2cc5-4e92-b69b-24f972e3bad7" points="442.04 43.7 439.27 42.1 439.27 37.54 442.04 39.14 442.04 43.7"/><polygon class="ac687bfd-2cc5-4e92-b69b-24f972e3bad7" points="446.87 46.48 444.1 44.89 444.1 40.33 446.87 41.93 446.87 46.48"/><polygon class="ac687bfd-2cc5-4e92-b69b-24f972e3bad7" points="451.7 49.27 448.93 47.68 448.93 43.12 451.7 44.72 451.7 49.27"/><polygon class="ac687bfd-2cc5-4e92-b69b-24f972e3bad7" points="456.53 52.06 453.76 50.47 453.76 45.91 456.53 47.51 456.53 52.06"/><polygon class="ac687bfd-2cc5-4e92-b69b-24f972e3bad7" points="461.36 54.85 458.59 53.25 458.59 48.7 461.36 50.3 461.36 54.85"/><polygon class="ac687bfd-2cc5-4e92-b69b-24f972e3bad7" points="466.19 57.64 463.42 56.04 463.42 51.49 466.19 53.09 466.19 57.64"/><polygon class="ac687bfd-2cc5-4e92-b69b-24f972e3bad7" points="461.36 0 458.59 -1.6 458.59 -6.15 461.36 -4.55 461.36 0"/><polygon class="ac687bfd-2cc5-4e92-b69b-24f972e3bad7" points="466.19 2.79 463.42 1.19 463.42 -3.37 466.19 -1.77 466.19 2.79"/><polygon class="ac687bfd-2cc5-4e92-b69b-24f972e3bad7" points="451.7 0.51 448.93 -1.09 448.93 -5.64 451.7 -4.05 451.7 0.51"/><polygon class="ac687bfd-2cc5-4e92-b69b-24f972e3bad7" points="456.53 3.3 453.76 1.7 453.76 -2.85 456.53 -1.26 456.53 3.3"/><polygon class="ec35cb32-930e-40ac-92e0-24210a523343" points="461.36 6.09 458.59 4.49 458.59 -0.07 461.36 1.53 461.36 6.09"/><polygon class="ac687bfd-2cc5-4e92-b69b-24f972e3bad7" points="466.19 8.88 463.42 7.28 463.42 2.72 466.19 4.32 466.19 8.88"/><polygon class="f9690615-2761-4870-8d80-8075eeed29d0" points="442.04 1.02 439.27 -0.58 439.27 -5.13 442.04 -3.54 442.04 1.02"/><polygon class="f41cf714-38bb-41a0-a7d5-77f93411a68a" points="446.87 3.81 444.1 2.21 444.1 -2.35 446.87 -0.75 446.87 3.81"/><polygon class="f3ba79e2-639d-4727-a07c-c19112625fc1" points="451.7 6.6 448.93 5 448.93 0.44 451.7 2.04 451.7 6.6"/><polygon class="ac687bfd-2cc5-4e92-b69b-24f972e3bad7" points="456.53 9.39 453.76 7.79 453.76 3.23 456.53 4.83 456.53 9.39"/><polygon class="ac687bfd-2cc5-4e92-b69b-24f972e3bad7" points="461.36 12.18 458.59 10.58 458.59 6.02 461.36 7.62 461.36 12.18"/><polygon class="ac687bfd-2cc5-4e92-b69b-24f972e3bad7" points="466.19 14.96 463.42 13.37 463.42 8.81 466.19 10.41 466.19 14.96"/><polygon class="b8e90dca-010b-4744-9f7d-ee2208cde0de" points="432.38 1.53 429.61 -0.07 429.61 -4.63 432.38 -3.03 432.38 1.53"/><polygon class="ac687bfd-2cc5-4e92-b69b-24f972e3bad7" points="437.21 4.32 434.44 2.72 434.44 -1.84 437.21 -0.24 437.21 4.32"/><polygon class="bf5c94ca-0233-4ee0-895d-5ae887881ad2" points="442.04 7.11 439.27 5.51 439.27 0.95 442.04 2.55 442.04 7.11"/><polygon class="ac687bfd-2cc5-4e92-b69b-24f972e3bad7" points="446.87 9.89 444.1 8.3 444.1 3.74 446.87 5.34 446.87 9.89"/><polygon class="ac687bfd-2cc5-4e92-b69b-24f972e3bad7" points="451.7 12.68 448.93 11.09 448.93 6.53 451.7 8.13 451.7 12.68"/><polygon class="a6ebfa30-9264-4c6d-a385-9dcbee4f7913" points="456.53 15.47 453.76 13.88 453.76 9.32 456.53 10.92 456.53 15.47"/><polygon class="ac687bfd-2cc5-4e92-b69b-24f972e3bad7" points="461.36 18.26 458.59 16.66 458.59 12.11 461.36 13.71 461.36 18.26"/><polygon class="b5603159-3b61-4a56-979b-617b70659ca5" points="466.19 21.05 463.42 19.45 463.42 14.9 466.19 16.5 466.19 21.05"/><polygon class="f3f603c4-9ef5-4b1b-a8e8-c4c6b81a8cf9" points="432.38 7.62 429.61 6.02 429.61 1.46 432.38 3.06 432.38 7.62"/><polygon class="ac687bfd-2cc5-4e92-b69b-24f972e3bad7" points="437.21 10.4 434.44 8.81 434.44 4.25 437.21 5.85 437.21 10.4"/><polygon class="ac687bfd-2cc5-4e92-b69b-24f972e3bad7" points="442.04 13.19 439.27 11.6 439.27 7.04 442.04 8.64 442.04 13.19"/><polygon class="ac687bfd-2cc5-4e92-b69b-24f972e3bad7" points="446.87 15.98 444.1 14.38 444.1 9.83 446.87 11.43 446.87 15.98"/><polygon class="eb15cb86-d3fb-4028-bc61-29c9a5fc3601" points="451.7 18.77 448.93 17.17 448.93 12.62 451.7 14.22 451.7 18.77"/><polygon class="e27d5e4f-dbe6-4812-8962-e31c088ee029" points="456.53 21.56 453.76 19.96 453.76 15.41 456.53 17 456.53 21.56"/><polygon class="ac687bfd-2cc5-4e92-b69b-24f972e3bad7" points="461.36 24.35 458.59 22.75 458.59 18.2 461.36 19.79 461.36 24.35"/><polygon class="a3fdac64-f183-445d-92d1-0e5b034ad7c6" points="466.19 27.14 463.42 25.54 463.42 20.98 466.19 22.58 466.19 27.14"/></g><g class="f6f0b5ad-614a-4dc5-b6a6-cb0e3cf47371"><polygon class="e7411c55-d078-4a0e-a52f-7fdee1f8d63a" points="346.55 37.88 393.13 10.99 346.55 -184.7 299.98 10.99 346.55 37.88"/><polygon class="b9278bc9-08f4-49cb-b318-bf801ac13eed" points="299.98 -261.03 299.98 10.99 346.55 37.88 346.55 -234.14 299.98 -261.03"/><polygon class="ba286655-24aa-4076-9545-2b8e05fa9dec" points="393.13 -261.03 393.13 10.99 346.55 37.88 346.55 -234.14 393.13 -261.03"/><g class="b456b7c6-da81-4496-b1fa-8a32e96eb95b"><polygon class="ac687bfd-2cc5-4e92-b69b-24f972e3bad7" points="389.98 -254.18 389.98 7.4 349.71 30.64 349.71 -230.93 389.98 -254.18"/></g><polygon class="ac687bfd-2cc5-4e92-b69b-24f972e3bad7" points="306.96 -16.9 306.96 -14.17 339.57 4.65 339.57 1.92 306.96 -16.9"/><path class="bf941eef-4ac1-4a4c-910a-51afe234648c" d="M348.4,31.75a4.09,4.09,0,0,1,1.85-3.21,1.29,1.29,0,0,1,1.32-.13h0l1.31.77-.81,0a2.63,2.63,0,0,1,0,.41,4.12,4.12,0,0,1-1.85,3.21,2.66,2.66,0,0,1-.4.17l.38.71L349,33h0A1.29,1.29,0,0,1,348.4,31.75Z"/><path class="b5b46c31-338a-4264-8480-40bca885e6e2" d="M349.72,32.52c0,1.18.83,1.66,1.85,1.07a4.09,4.09,0,0,0,1.86-3.21c0-1.18-.83-1.66-1.86-1.07A4.1,4.1,0,0,0,349.72,32.52Z"/><path class="fd1c2c8c-c56e-418c-8947-a4e80500478f" d="M350.51,32.06c0,.68.47,1,1.06.62a2.36,2.36,0,0,0,1.07-1.85c0-.68-.48-.95-1.07-.61A2.33,2.33,0,0,0,350.51,32.06Z"/><path class="b4f0c372-7144-4b87-ab08-871822fe8203" d="M387.46,7.74a4.1,4.1,0,0,1,1.85-3.21,1.31,1.31,0,0,1,1.32-.12h0l1.31.77-.81,0a1.75,1.75,0,0,1,0,.4,4.07,4.07,0,0,1-1.86,3.21,1.7,1.7,0,0,1-.39.18l.38.71L388,9h0A1.3,1.3,0,0,1,387.46,7.74Z"/><path class="abd4b1c1-4a4e-470e-b8c8-f995c43fac07" d="M388.78,8.52c0,1.18.83,1.66,1.86,1.07a4.1,4.1,0,0,0,1.85-3.21c0-1.19-.83-1.66-1.85-1.07A4.07,4.07,0,0,0,388.78,8.52Z"/><path class="fd1c2c8c-c56e-418c-8947-a4e80500478f" d="M389.57,8.06c0,.68.48,1,1.07.62a2.38,2.38,0,0,0,1.06-1.85c0-.68-.48-1-1.06-.61A2.35,2.35,0,0,0,389.57,8.06Z"/><polygon class="ac687bfd-2cc5-4e92-b69b-24f972e3bad7" points="356.38 1.38 359.15 -0.22 359.15 -4.78 356.38 -3.18 356.38 1.38"/><polygon class="ac687bfd-2cc5-4e92-b69b-24f972e3bad7" points="351.55 4.17 354.32 2.57 354.32 -1.99 351.55 -0.39 351.55 4.17"/><polygon class="ac687bfd-2cc5-4e92-b69b-24f972e3bad7" points="366.04 1.89 368.81 0.29 368.81 -4.27 366.04 -2.67 366.04 1.89"/><polygon class="ac687bfd-2cc5-4e92-b69b-24f972e3bad7" points="361.21 4.67 363.98 3.08 363.98 -1.48 361.21 0.12 361.21 4.67"/><polygon class="ac687bfd-2cc5-4e92-b69b-24f972e3bad7" points="356.38 7.46 359.15 5.87 359.15 1.31 356.38 2.91 356.38 7.46"/><polygon class="ac687bfd-2cc5-4e92-b69b-24f972e3bad7" points="351.55 10.25 354.32 8.65 354.32 4.1 351.55 5.7 351.55 10.25"/><polygon class="ac687bfd-2cc5-4e92-b69b-24f972e3bad7" points="375.7 2.4 378.47 0.8 378.47 -3.76 375.7 -2.16 375.7 2.4"/><polygon class="ac687bfd-2cc5-4e92-b69b-24f972e3bad7" points="370.87 5.18 373.64 3.59 373.64 -0.97 370.87 0.63 370.87 5.18"/><polygon class="ac687bfd-2cc5-4e92-b69b-24f972e3bad7" points="366.04 7.97 368.81 6.38 368.81 1.82 366.04 3.42 366.04 7.97"/><polygon class="ac687bfd-2cc5-4e92-b69b-24f972e3bad7" points="361.21 10.76 363.98 9.16 363.98 4.61 361.21 6.21 361.21 10.76"/><polygon class="ac687bfd-2cc5-4e92-b69b-24f972e3bad7" points="356.38 13.55 359.15 11.95 359.15 7.4 356.38 9 356.38 13.55"/><polygon class="ac687bfd-2cc5-4e92-b69b-24f972e3bad7" points="351.55 16.34 354.32 14.74 354.32 10.19 351.55 11.79 351.55 16.34"/><polygon class="ac687bfd-2cc5-4e92-b69b-24f972e3bad7" points="385.37 2.9 388.13 1.31 388.13 -3.25 385.37 -1.65 385.37 2.9"/><polygon class="ac687bfd-2cc5-4e92-b69b-24f972e3bad7" points="380.53 5.69 383.3 4.1 383.3 -0.46 380.53 1.14 380.53 5.69"/><polygon class="ac687bfd-2cc5-4e92-b69b-24f972e3bad7" points="375.7 8.48 378.47 6.88 378.47 2.33 375.7 3.93 375.7 8.48"/><polygon class="ac687bfd-2cc5-4e92-b69b-24f972e3bad7" points="370.87 11.27 373.64 9.67 373.64 5.12 370.87 6.72 370.87 11.27"/><polygon class="ac687bfd-2cc5-4e92-b69b-24f972e3bad7" points="366.04 14.06 368.81 12.46 368.81 7.91 366.04 9.51 366.04 14.06"/><polygon class="ac687bfd-2cc5-4e92-b69b-24f972e3bad7" points="361.21 16.85 363.98 15.25 363.98 10.7 361.21 12.29 361.21 16.85"/><polygon class="ac687bfd-2cc5-4e92-b69b-24f972e3bad7" points="356.38 19.64 359.15 18.04 359.15 13.48 356.38 15.08 356.38 19.64"/><polygon class="ac687bfd-2cc5-4e92-b69b-24f972e3bad7" points="351.55 22.43 354.32 20.83 354.32 16.27 351.55 17.87 351.55 22.43"/><polygon class="ac687bfd-2cc5-4e92-b69b-24f972e3bad7" points="385.37 8.99 388.13 7.39 388.13 2.84 385.37 4.44 385.37 8.99"/><polygon class="ac687bfd-2cc5-4e92-b69b-24f972e3bad7" points="380.53 11.78 383.3 10.18 383.3 5.63 380.53 7.23 380.53 11.78"/><polygon class="ac687bfd-2cc5-4e92-b69b-24f972e3bad7" points="375.7 14.57 378.47 12.97 378.47 8.42 375.7 10.02 375.7 14.57"/><polygon class="ac687bfd-2cc5-4e92-b69b-24f972e3bad7" points="370.87 17.36 373.64 15.76 373.64 11.21 370.87 12.8 370.87 17.36"/><polygon class="ac687bfd-2cc5-4e92-b69b-24f972e3bad7" points="366.04 20.15 368.81 18.55 368.81 13.99 366.04 15.59 366.04 20.15"/><polygon class="ac687bfd-2cc5-4e92-b69b-24f972e3bad7" points="361.21 22.94 363.98 21.34 363.98 16.78 361.21 18.38 361.21 22.94"/><polygon class="ac687bfd-2cc5-4e92-b69b-24f972e3bad7" points="356.38 25.73 359.15 24.13 359.15 19.57 356.38 21.17 356.38 25.73"/><polygon class="ac687bfd-2cc5-4e92-b69b-24f972e3bad7" points="351.55 28.52 354.32 26.92 354.32 22.36 351.55 23.96 351.55 28.52"/></g><rect class="ac11fd24-f135-4791-8a1a-c497b2ab1f5b" x="513.42" y="-36.45" width="1.24" height="50.02" transform="translate(257.65 434.24) rotate(-58.81)"/></svg>