<svg id="b653db50-83e3-47b5-a670-80ca81d632e4" data-name="Ñëîé 1" xmlns="http://www.w3.org/2000/svg" xmlns:xlink="http://www.w3.org/1999/xlink" viewBox="0 0 589.27 648.24"><defs><style>.b6341e7c-0eef-4aa2-affa-056e7dfacdcb{fill:#b3e0ff;}.b10d9405-94d8-4499-ae4f-d0f546e3ed97,.bb90422c-b67f-4324-afda-ca6f34a4e364{opacity:0.4;}.a6190a80-d5ce-4bad-bdb4-cf197eda956d,.afa2f8bc-49d0-4958-b5b9-cd70b71e99da{fill:#fff;}.afa2f8bc-49d0-4958-b5b9-cd70b71e99da{opacity:0.5;}.e0fe4537-4997-4bc0-85e0-43d4f5b3bb54{fill:#7dc3ea;}.ab613ae4-140d-44f4-81c6-d695fc1fd154{fill:#396caa;}.acbafc8d-15c9-422d-9e74-212fe8e24c71{fill:url(#f561ac33-fdd5-4e7f-8c20-05ab7813c431);}.b10d9405-94d8-4499-ae4f-d0f546e3ed97,.b8f92737-3589-4f5a-806b-971e07bcc887{fill:#d4ecff;}.b7ca1c54-81b6-4f37-87b4-0abf6b418b0f{fill:#5793ce;}.eb5f131d-53d9-4ca8-ac4a-8981f8816a52{fill:url(#a95d17e3-7d61-4d27-aa69-c8bfc2e32d48);}.a7963146-985e-45aa-88d2-47e5b411c5c5{fill:url(#f30068a3-f9e2-449b-ad60-ae94458a2a94);}.f07b8914-5c6f-4057-b011-6f9b401f7b14{fill:url(#af15da83-4f0f-44e5-826d-12da95e050ac);}.a93aadc8-d115-4b43-9229-afed69f37d0c{fill:url(#e9ca9c67-4515-4c06-abdd-da265c75453a);}.be610a8e-7103-4d54-b209-0f39d856ce44{fill:#fafdff;}.f3d10553-c4cd-4d05-befe-80ff241f6922{fill:#173d7a;}.ededee65-5bb8-404f-a207-b874803e3b3f{fill:url(#bdb5b38f-3030-41fe-81ff-3c4193581d30);}.fd8a391b-08d6-4a60-9976-fe8fd56e8dd8{fill:url(#f24dae49-3590-4c9a-9637-8934043b05e7);}.e3f2c17d-ff0c-4a9b-8505-00e37811f045{fill:url(#b527d6bf-d806-47cf-9221-4534cd3dec33);}.a9d1e207-8cb9-4d31-a0a4-d714e02649e0{fill:url(#b3e8246d-2a75-4ce3-b4a4-3c36e2f34012);}.b4d28efd-3f1f-4ebd-91d6-7c3254cb3648{fill:url(#a7395b38-0dfe-488e-ab9c-568c032cdf39);}.a6b43cec-ab65-4cbf-98bf-6d19b5e40947{fill:url(#a25f18fb-5863-49cd-b5cd-b582e71c882b);}.b9373e43-bd49-4522-b5a8-fac396741d9f{fill:url(#ab4afdf0-8514-400a-b62e-9ec1b4865a9c);}.a6266368-87f0-46b7-83f5-283ec8278509{fill:url(#a3e24c28-c9f3-4600-81e2-3fe34de2d314);}</style><radialGradient id="f561ac33-fdd5-4e7f-8c20-05ab7813c431" cx="388.42" cy="261.1" r="39.39" gradientUnits="userSpaceOnUse"><stop offset="0" stop-color="#699dd1"/><stop offset="0.27" stop-color="#6396cc"/><stop offset="0.64" stop-color="#5184bd"/><stop offset="1" stop-color="#396caa"/></radialGradient><linearGradient id="a95d17e3-7d61-4d27-aa69-c8bfc2e32d48" x1="395.86" y1="248.47" x2="457.56" y2="285.26" gradientUnits="userSpaceOnUse"><stop offset="0" stop-color="#d4ecff"/><stop offset="0.2" stop-color="#d0eafe"/><stop offset="0.39" stop-color="#c5e2f9"/><stop offset="0.57" stop-color="#b2d6f2"/><stop offset="0.74" stop-color="#98c4e7"/><stop offset="0.84" stop-color="#86b8e0"/></linearGradient><radialGradient id="f30068a3-f9e2-449b-ad60-ae94458a2a94" cx="473.28" cy="309.88" r="39.39" xlink:href="#f561ac33-fdd5-4e7f-8c20-05ab7813c431"/><linearGradient id="af15da83-4f0f-44e5-826d-12da95e050ac" x1="480.71" y1="297.25" x2="542.42" y2="334.03" xlink:href="#a95d17e3-7d61-4d27-aa69-c8bfc2e32d48"/><radialGradient id="e9ca9c67-4515-4c06-abdd-da265c75453a" cx="241.43" cy="193.93" r="125.65" xlink:href="#f561ac33-fdd5-4e7f-8c20-05ab7813c431"/><linearGradient id="bdb5b38f-3030-41fe-81ff-3c4193581d30" x1="351.18" y1="207.48" x2="319.23" y2="153.46" gradientUnits="userSpaceOnUse"><stop offset="0" stop-color="#86b8e0"/><stop offset="0.12" stop-color="#98c4e7"/><stop offset="0.33" stop-color="#b2d6f2"/><stop offset="0.54" stop-color="#c5e2f9"/><stop offset="0.76" stop-color="#d0eafe"/><stop offset="1" stop-color="#d4ecff"/></linearGradient><radialGradient id="f24dae49-3590-4c9a-9637-8934043b05e7" cx="343.63" cy="231.65" r="118.75" xlink:href="#f561ac33-fdd5-4e7f-8c20-05ab7813c431"/><linearGradient id="b527d6bf-d806-47cf-9221-4534cd3dec33" x1="431.14" y1="253.87" x2="405.94" y2="211.26" xlink:href="#bdb5b38f-3030-41fe-81ff-3c4193581d30"/><radialGradient id="b3e8246d-2a75-4ce3-b4a4-3c36e2f34012" cx="441.2" cy="225.91" r="39.15" gradientUnits="userSpaceOnUse"><stop offset="0" stop-color="#173d7a"/><stop offset="1" stop-color="#274f89"/></radialGradient><radialGradient id="a7395b38-0dfe-488e-ab9c-568c032cdf39" cx="213.59" cy="352.98" r="39.39" xlink:href="#f561ac33-fdd5-4e7f-8c20-05ab7813c431"/><linearGradient id="a25f18fb-5863-49cd-b5cd-b582e71c882b" x1="221.02" y1="340.35" x2="282.73" y2="377.14" xlink:href="#a95d17e3-7d61-4d27-aa69-c8bfc2e32d48"/><radialGradient id="ab4afdf0-8514-400a-b62e-9ec1b4865a9c" cx="298.45" cy="401.76" r="39.39" xlink:href="#f561ac33-fdd5-4e7f-8c20-05ab7813c431"/><linearGradient id="a3e24c28-c9f3-4600-81e2-3fe34de2d314" x1="305.88" y1="389.13" x2="367.58" y2="425.92" xlink:href="#a95d17e3-7d61-4d27-aa69-c8bfc2e32d48"/></defs><path class="b6341e7c-0eef-4aa2-affa-056e7dfacdcb" d="M453.61,636.24,38.42,381.52c-52.84-32.42-50.78-109.89,3.73-139.45L470.33,9.86c54.5-29.55,120.57,11,118.91,73l-13,486.93C574.59,631.71,506.46,668.66,453.61,636.24Z"/><g class="bb90422c-b67f-4324-afda-ca6f34a4e364"><path class="a6190a80-d5ce-4bad-bdb4-cf197eda956d" d="M521,253.36l-32.24-18.61L521,216.13l32.24,18.62Zm-30-18.61,30,17.3,30-17.3-30-17.3Z"/><path class="a6190a80-d5ce-4bad-bdb4-cf197eda956d" d="M458.83,253.36l-32.24-18.61,32.24-18.62,32.24,18.62Zm-30-18.61,30,17.29,30-17.29-30-17.3Z"/><path class="a6190a80-d5ce-4bad-bdb4-cf197eda956d" d="M489.93,271.32,457.69,252.7l32.24-18.61,32.24,18.61ZM460,252.7l30,17.3,30-17.3-30-17.29Z"/><path class="a6190a80-d5ce-4bad-bdb4-cf197eda956d" d="M521,289.28l-32.24-18.62L521,252.05l32.24,18.61Zm-30-18.62L521,288l30-17.3-30-17.3Z"/><path class="a6190a80-d5ce-4bad-bdb4-cf197eda956d" d="M396.63,253.36l-32.24-18.61,32.24-18.62,32.24,18.62Zm-30-18.61,30,17.29,30-17.29-30-17.3Z"/><path class="a6190a80-d5ce-4bad-bdb4-cf197eda956d" d="M427.73,271.32,395.49,252.7l32.24-18.61L460,252.7Zm-30-18.62,30,17.3,30-17.3-30-17.29Z"/><path class="a6190a80-d5ce-4bad-bdb4-cf197eda956d" d="M458.83,289.28l-32.24-18.62L458.83,252l32.24,18.62Zm-30-18.62,30,17.3,30-17.3-30-17.3Z"/><path class="a6190a80-d5ce-4bad-bdb4-cf197eda956d" d="M489.93,307.23l-32.24-18.61L489.93,270l32.24,18.62Zm-30-18.61,30,17.29,30-17.29-30-17.3Z"/><path class="a6190a80-d5ce-4bad-bdb4-cf197eda956d" d="M521,325.19l-32.24-18.62L521,288l32.24,18.61Zm-30-18.62,30,17.3,30-17.3-30-17.29Z"/><path class="a6190a80-d5ce-4bad-bdb4-cf197eda956d" d="M334.43,253.36l-32.24-18.61,32.24-18.62,32.24,18.62Zm-30-18.61,30,17.29,30-17.29-30-17.3Z"/><path class="a6190a80-d5ce-4bad-bdb4-cf197eda956d" d="M365.53,271.32,333.29,252.7l32.24-18.61,32.24,18.61Zm-30-18.62,30,17.3,30-17.3-30-17.29Z"/><path class="a6190a80-d5ce-4bad-bdb4-cf197eda956d" d="M396.63,289.27l-32.24-18.61L396.63,252l32.24,18.62Zm-30-18.61,30,17.3,30-17.3-30-17.3Z"/><path class="a6190a80-d5ce-4bad-bdb4-cf197eda956d" d="M427.73,307.23l-32.24-18.61L427.73,270,460,288.62Zm-30-18.61,30,17.29,30-17.29-30-17.3Z"/><path class="a6190a80-d5ce-4bad-bdb4-cf197eda956d" d="M458.83,325.19l-32.24-18.62L458.83,288l32.24,18.61Zm-30-18.62,30,17.3,30-17.3-30-17.29Z"/><path class="a6190a80-d5ce-4bad-bdb4-cf197eda956d" d="M489.93,343.14l-32.24-18.61,32.24-18.62,32.25,18.62Zm-30-18.61,30,17.29,30-17.29-30-17.3Z"/><path class="a6190a80-d5ce-4bad-bdb4-cf197eda956d" d="M521,361.1l-32.24-18.62L521,323.87l32.25,18.61Zm-29.95-18.62L521,359.78l30-17.3-30-17.29Z"/><path class="a6190a80-d5ce-4bad-bdb4-cf197eda956d" d="M272.23,253.36,240,234.75l32.24-18.62,32.24,18.62Zm-30-18.61,30,17.29,30-17.29-30-17.3Z"/><path class="a6190a80-d5ce-4bad-bdb4-cf197eda956d" d="M303.33,271.32,271.09,252.7l32.24-18.61,32.24,18.61Zm-30-18.62,30,17.3,30-17.3-30-17.29Z"/><path class="a6190a80-d5ce-4bad-bdb4-cf197eda956d" d="M334.43,289.27l-32.24-18.61L334.43,252l32.24,18.62Zm-30-18.61,30,17.29,30-17.29-30-17.3Z"/><path class="a6190a80-d5ce-4bad-bdb4-cf197eda956d" d="M365.53,307.23l-32.24-18.62L365.53,270l32.24,18.62Zm-30-18.62,30,17.3,30-17.29-30-17.3Z"/><path class="a6190a80-d5ce-4bad-bdb4-cf197eda956d" d="M396.63,325.19l-32.24-18.62L396.63,288l32.24,18.61Zm-30-18.62,30,17.3,30-17.3-30-17.3Z"/><path class="a6190a80-d5ce-4bad-bdb4-cf197eda956d" d="M427.73,343.14l-32.24-18.61,32.24-18.62L460,324.53Zm-30-18.61,30,17.29,30-17.29-30-17.3Z"/><path class="a6190a80-d5ce-4bad-bdb4-cf197eda956d" d="M458.83,361.1l-32.24-18.62,32.24-18.61,32.25,18.61Zm-29.95-18.62,29.95,17.3,30-17.3-30-17.29Z"/><path class="a6190a80-d5ce-4bad-bdb4-cf197eda956d" d="M489.93,379.05l-32.24-18.61,32.24-18.62,32.25,18.62ZM460,360.44l29.95,17.3,30-17.3-30-17.3Z"/><path class="a6190a80-d5ce-4bad-bdb4-cf197eda956d" d="M521,397l-32.25-18.62L521,359.78l32.25,18.61Zm-30-18.62,30,17.3,30-17.3L521,361.1Z"/><path class="a6190a80-d5ce-4bad-bdb4-cf197eda956d" d="M210,253.36l-32.24-18.61L210,216.13l32.24,18.62Zm-30-18.61L210,252l30-17.29-30-17.3Z"/><path class="a6190a80-d5ce-4bad-bdb4-cf197eda956d" d="M241.13,271.32,208.89,252.7l32.24-18.61,32.24,18.61Zm-30-18.62,30,17.3,30-17.3-30-17.29Z"/><path class="a6190a80-d5ce-4bad-bdb4-cf197eda956d" d="M272.23,289.27,240,270.66,272.23,252l32.24,18.62Zm-30-18.61,30,17.29,30-17.29-30-17.3Z"/><path class="a6190a80-d5ce-4bad-bdb4-cf197eda956d" d="M303.33,307.23l-32.24-18.62L303.33,270l32.24,18.61Zm-30-18.62,30,17.3,30-17.3-30-17.29Z"/><path class="a6190a80-d5ce-4bad-bdb4-cf197eda956d" d="M334.43,325.19l-32.24-18.62L334.43,288l32.24,18.62Zm-30-18.62,30,17.3,30-17.3-30-17.3Z"/><path class="a6190a80-d5ce-4bad-bdb4-cf197eda956d" d="M365.53,343.14l-32.24-18.61,32.24-18.62,32.24,18.62Zm-30-18.61,30,17.29,30-17.29-30-17.3Z"/><path class="a6190a80-d5ce-4bad-bdb4-cf197eda956d" d="M396.63,361.1l-32.24-18.62,32.24-18.61,32.25,18.61Zm-29.95-18.62,29.95,17.3,30-17.3-30-17.29Z"/><path class="a6190a80-d5ce-4bad-bdb4-cf197eda956d" d="M427.73,379.05l-32.24-18.61,32.24-18.62L460,360.44Zm-30-18.61,30,17.29,30-17.29-30-17.3Z"/><path class="a6190a80-d5ce-4bad-bdb4-cf197eda956d" d="M458.84,397l-32.25-18.62,32.24-18.61,32.25,18.61Zm-30-18.62,30,17.3,30-17.3-30-17.29Z"/><path class="a6190a80-d5ce-4bad-bdb4-cf197eda956d" d="M489.94,415l-32.25-18.61,32.24-18.61,32.25,18.61Zm-30-18.61,30,17.3,29.95-17.3-30-17.3Z"/><path class="a6190a80-d5ce-4bad-bdb4-cf197eda956d" d="M521,432.92l-32.25-18.61L521,395.69l32.24,18.62Zm-30-18.61,30,17.29,30-17.29L521,397Z"/><path class="a6190a80-d5ce-4bad-bdb4-cf197eda956d" d="M210,289.27l-32.24-18.61L210,252l32.24,18.62Zm-30-18.61L210,288l30-17.29-30-17.3Z"/><path class="a6190a80-d5ce-4bad-bdb4-cf197eda956d" d="M241.13,307.23l-32.24-18.62L241.13,270l32.24,18.61Zm-30-18.62,30,17.3,30-17.3-30-17.29Z"/><path class="a6190a80-d5ce-4bad-bdb4-cf197eda956d" d="M272.23,325.18,240,306.57,272.23,288l32.24,18.62Zm-30-18.61,30,17.3,30-17.3-30-17.3Z"/><path class="a6190a80-d5ce-4bad-bdb4-cf197eda956d" d="M303.33,343.14l-32.24-18.61,32.24-18.62,32.24,18.62Zm-30-18.61,30,17.29,30-17.29-30-17.3Z"/><path class="a6190a80-d5ce-4bad-bdb4-cf197eda956d" d="M334.43,361.1l-32.24-18.62,32.24-18.61,32.25,18.61Zm-30-18.62,30,17.3,30-17.3-30-17.29Z"/><path class="a6190a80-d5ce-4bad-bdb4-cf197eda956d" d="M365.53,379.05l-32.24-18.61,32.24-18.62,32.25,18.62Zm-29.95-18.61,29.95,17.29,30-17.29-30-17.3Z"/><path class="a6190a80-d5ce-4bad-bdb4-cf197eda956d" d="M396.64,397l-32.25-18.62,32.24-18.61,32.25,18.61Zm-30-18.62,30,17.3,29.95-17.3-30-17.29Z"/><path class="a6190a80-d5ce-4bad-bdb4-cf197eda956d" d="M427.74,415l-32.25-18.61,32.24-18.62L460,396.35Zm-30-18.61,30,17.3,29.95-17.3-30-17.3Z"/><path class="a6190a80-d5ce-4bad-bdb4-cf197eda956d" d="M458.84,432.92,426.59,414.3l32.25-18.61,32.24,18.62Zm-30-18.62,30,17.3,30-17.29-30-17.3Z"/><path class="a6190a80-d5ce-4bad-bdb4-cf197eda956d" d="M489.94,450.88l-32.25-18.62,32.25-18.61,32.24,18.61Zm-30-18.62,30,17.3,29.95-17.3L489.94,415Z"/><path class="a6190a80-d5ce-4bad-bdb4-cf197eda956d" d="M521,468.83,488.8,450.22,521,431.6l32.24,18.62Zm-30-18.61,30,17.29,30-17.29-30-17.3Z"/><path class="a6190a80-d5ce-4bad-bdb4-cf197eda956d" d="M210,325.18l-32.24-18.61L210,288l32.24,18.62Zm-30-18.61,30,17.3,30-17.3-30-17.3Z"/><path class="a6190a80-d5ce-4bad-bdb4-cf197eda956d" d="M241.13,343.14l-32.24-18.61,32.24-18.62,32.24,18.62Zm-29.95-18.61,29.95,17.29,30-17.29-30-17.3Z"/><path class="a6190a80-d5ce-4bad-bdb4-cf197eda956d" d="M272.23,361.1,240,342.48l32.24-18.61,32.24,18.61Zm-30-18.62,30,17.3,30-17.3-30-17.3Z"/><path class="a6190a80-d5ce-4bad-bdb4-cf197eda956d" d="M303.33,379.05l-32.24-18.61,32.24-18.62,32.25,18.62Zm-29.95-18.61,29.95,17.29,30-17.29-30-17.3Z"/><path class="a6190a80-d5ce-4bad-bdb4-cf197eda956d" d="M334.43,397l-32.24-18.62,32.24-18.61,32.25,18.61Zm-29.95-18.62,29.95,17.3,30-17.3-30-17.29Z"/><path class="a6190a80-d5ce-4bad-bdb4-cf197eda956d" d="M365.54,415l-32.25-18.61,32.24-18.62,32.25,18.62Zm-30-18.61,30,17.3,29.95-17.3-30-17.3Z"/><path class="a6190a80-d5ce-4bad-bdb4-cf197eda956d" d="M396.64,432.92,364.39,414.3l32.25-18.61,32.24,18.61Zm-30-18.62,30,17.3,29.95-17.3L396.64,397Z"/><path class="a6190a80-d5ce-4bad-bdb4-cf197eda956d" d="M427.74,450.87l-32.25-18.61,32.25-18.61L460,432.26Zm-30-18.61,30,17.3,29.95-17.3L427.74,415Z"/><path class="a6190a80-d5ce-4bad-bdb4-cf197eda956d" d="M458.84,468.83,426.6,450.22l32.24-18.62,32.24,18.62Zm-30-18.61,30,17.29,30-17.29-30-17.3Z"/><path class="a6190a80-d5ce-4bad-bdb4-cf197eda956d" d="M210,361.1l-32.24-18.62L210,323.87l32.24,18.61Zm-30-18.62,30,17.3,30-17.3-30-17.3Z"/><path class="a6190a80-d5ce-4bad-bdb4-cf197eda956d" d="M241.13,379.05l-32.24-18.61,32.24-18.62,32.25,18.62Zm-29.95-18.61,29.95,17.29,30-17.29-30-17.3Z"/><path class="a6190a80-d5ce-4bad-bdb4-cf197eda956d" d="M272.23,397,240,378.39l32.24-18.61,32.25,18.61Zm-30-18.62,30,17.3,30-17.3-30-17.29Z"/><path class="a6190a80-d5ce-4bad-bdb4-cf197eda956d" d="M303.34,415l-32.25-18.61,32.24-18.62,32.25,18.62Zm-30-18.61,30,17.29,30-17.29-30-17.3Z"/><path class="a6190a80-d5ce-4bad-bdb4-cf197eda956d" d="M334.44,432.92,302.19,414.3l32.24-18.61,32.25,18.61Zm-30-18.62,30,17.3,29.95-17.3-30-17.29Z"/><path class="a6190a80-d5ce-4bad-bdb4-cf197eda956d" d="M365.54,450.87l-32.25-18.61,32.25-18.61,32.24,18.61Zm-30-18.61,30,17.3,29.95-17.3L365.54,415Z"/><path class="a6190a80-d5ce-4bad-bdb4-cf197eda956d" d="M396.64,468.83l-32.25-18.61,32.25-18.62,32.24,18.62Zm-30-18.61,30,17.29,30-17.29-30-17.3Z"/><path class="a6190a80-d5ce-4bad-bdb4-cf197eda956d" d="M210,397l-32.24-18.62L210,359.78l32.25,18.61Zm-29.95-18.62L210,395.69l30-17.3L210,361.1Z"/><path class="a6190a80-d5ce-4bad-bdb4-cf197eda956d" d="M241.14,415l-32.25-18.61,32.24-18.62,32.25,18.62Zm-30-18.61,30,17.29,29.95-17.29-30-17.3Z"/><path class="a6190a80-d5ce-4bad-bdb4-cf197eda956d" d="M272.24,432.92,240,414.3l32.24-18.61,32.25,18.61Zm-30-18.62,30,17.3,29.95-17.3-30-17.29Z"/><path class="a6190a80-d5ce-4bad-bdb4-cf197eda956d" d="M303.34,450.87l-32.25-18.61,32.25-18.62,32.24,18.62Zm-30-18.61,30,17.3,30-17.3-30-17.3Z"/><path class="a6190a80-d5ce-4bad-bdb4-cf197eda956d" d="M334.44,468.83l-32.25-18.62,32.25-18.61,32.24,18.62Zm-30-18.62,30,17.3,29.95-17.29-29.95-17.3Z"/><path class="a6190a80-d5ce-4bad-bdb4-cf197eda956d" d="M210,432.92,177.79,414.3,210,395.69l32.25,18.61Zm-30-18.62,30,17.3,30-17.3L210,397Z"/><path class="a6190a80-d5ce-4bad-bdb4-cf197eda956d" d="M241.14,450.87l-32.25-18.61,32.25-18.62,32.24,18.62Zm-30-18.61,30,17.3,29.95-17.3L241.14,415Z"/><path class="a6190a80-d5ce-4bad-bdb4-cf197eda956d" d="M272.24,468.83,240,450.21l32.25-18.61,32.24,18.61Zm-30-18.62,30,17.3,29.95-17.3-29.95-17.29Z"/><path class="a6190a80-d5ce-4bad-bdb4-cf197eda956d" d="M210,468.83l-32.25-18.62L210,431.6l32.24,18.61Zm-30-18.62,30,17.3,30-17.3-30-17.29Z"/></g><path class="a6190a80-d5ce-4bad-bdb4-cf197eda956d" d="M241.82,258.1a12.29,12.29,0,0,0-1.75,1.29c-.25-7.9-6-11-13-7-5.73,3.3-10.58,10.38-12.32,17.31a7.75,7.75,0,0,0-4.85,1.21c-5.13,3-9.28,10.15-9.28,16.07s4.15,8.31,9.28,5.35l31.9-18.42a15.11,15.11,0,0,0,6.85-11.86C248.67,257.69,245.61,255.92,241.82,258.1Z"/><path class="a6190a80-d5ce-4bad-bdb4-cf197eda956d" d="M526.34,241.83a11.09,11.09,0,0,0-1.76,1.28c-.24-7.9-6-11.05-13-7-5.73,3.3-10.58,10.38-12.32,17.31a7.75,7.75,0,0,0-4.85,1.21c-5.12,3-9.28,10.15-9.28,16.07s4.16,8.31,9.28,5.35l31.91-18.42a15.12,15.12,0,0,0,6.84-11.86C533.18,241.41,530.12,239.64,526.34,241.83Z"/><path class="a6190a80-d5ce-4bad-bdb4-cf197eda956d" d="M377,468.73a1.57,1.57,0,0,1-1.39-2.29,17.61,17.61,0,0,1,6.39-7,8.31,8.31,0,0,1,4.5-1.25c2,.1,4.52-1.41,6.71-4.05a15.26,15.26,0,0,1,4.07-3.52,8.28,8.28,0,0,1,4.5-1.25c2,.11,4.52-1.41,6.71-4.05a15.2,15.2,0,0,1,4.06-3.52,8.31,8.31,0,0,1,4.5-1.25c2.05.11,4.53-1.41,6.72-4a15.2,15.2,0,0,1,4.06-3.52,7.17,7.17,0,0,1,6.44-.81,1.56,1.56,0,0,1-1.24,2.87,4.22,4.22,0,0,0-3.63.64,12.3,12.3,0,0,0-3.22,2.82c-2.86,3.44-6.27,5.33-9.28,5.17a5.5,5.5,0,0,0-2.78.83,12.3,12.3,0,0,0-3.22,2.82c-2.86,3.44-6.26,5.33-9.28,5.18a5.08,5.08,0,0,0-2.78.83,12.22,12.22,0,0,0-3.22,2.81c-2.86,3.44-6.25,5.32-9.28,5.18a5.22,5.22,0,0,0-2.78.83,14.38,14.38,0,0,0-5.18,5.76A1.55,1.55,0,0,1,377,468.73Z"/><path class="a6190a80-d5ce-4bad-bdb4-cf197eda956d" d="M198.41,334.3a6.64,6.64,0,0,1-3,5.21c-1.66.95-3,.18-3-1.74a6.64,6.64,0,0,1,3-5.21C197.07,331.6,198.41,332.38,198.41,334.3Z"/><path class="a6190a80-d5ce-4bad-bdb4-cf197eda956d" d="M208.16,328.67a6.66,6.66,0,0,1-3,5.21c-1.67,1-3,.18-3-1.74a6.63,6.63,0,0,1,3-5.21C206.82,326,208.16,326.75,208.16,328.67Z"/><path class="a6190a80-d5ce-4bad-bdb4-cf197eda956d" d="M217.91,323a6.66,6.66,0,0,1-3,5.21c-1.67,1-3,.18-3-1.74a6.63,6.63,0,0,1,3-5.21C216.57,320.34,217.91,321.12,217.91,323Z"/><path class="a6190a80-d5ce-4bad-bdb4-cf197eda956d" d="M227.67,317.41a6.67,6.67,0,0,1-3,5.21c-1.66,1-3,.18-3-1.74a6.65,6.65,0,0,1,3-5.21C226.32,314.71,227.67,315.49,227.67,317.41Z"/><path class="a6190a80-d5ce-4bad-bdb4-cf197eda956d" d="M480.5,412.05a6.45,6.45,0,0,1-2.92,5.06c-1.61.93-2.92.18-2.92-1.69a6.45,6.45,0,0,1,2.92-5.05C479.19,409.44,480.5,410.19,480.5,412.05Z"/><path class="a6190a80-d5ce-4bad-bdb4-cf197eda956d" d="M488.55,407.41a6.45,6.45,0,0,1-2.92,5c-1.61.93-2.92.18-2.92-1.68a6.45,6.45,0,0,1,2.92-5.06C487.24,404.79,488.55,405.54,488.55,407.41Z"/><path class="a6190a80-d5ce-4bad-bdb4-cf197eda956d" d="M480.5,402.76a6.45,6.45,0,0,1-2.92,5.05c-1.61.93-2.92.18-2.92-1.68a6.47,6.47,0,0,1,2.92-5.06C479.19,400.14,480.5,400.89,480.5,402.76Z"/><path class="a6190a80-d5ce-4bad-bdb4-cf197eda956d" d="M488.55,398.11a6.45,6.45,0,0,1-2.92,5.05c-1.61.93-2.92.18-2.92-1.68a6.47,6.47,0,0,1,2.92-5.06C487.24,395.49,488.55,396.25,488.55,398.11Z"/><polygon class="a6190a80-d5ce-4bad-bdb4-cf197eda956d" points="411.83 166.45 405.81 169.92 405.81 162.98 411.83 159.5 411.83 166.45"/><polygon class="a6190a80-d5ce-4bad-bdb4-cf197eda956d" points="420.18 161.57 414.16 165.04 414.16 158.1 420.18 154.62 420.18 161.57"/><polygon class="a6190a80-d5ce-4bad-bdb4-cf197eda956d" points="411.88 175.46 405.86 178.94 405.86 171.99 411.88 168.52 411.88 175.46"/><polygon class="a6190a80-d5ce-4bad-bdb4-cf197eda956d" points="420.18 170.67 414.16 174.15 414.16 167.2 420.18 163.72 420.18 170.67"/><path class="afa2f8bc-49d0-4958-b5b9-cd70b71e99da" d="M264.09,417.78a11.07,11.07,0,0,0-2.85,2.45c-.14-5.62-4.17-7.87-9.14-5a16.56,16.56,0,0,0-4.39,3.83c-2.21-3.86-6.79-4.76-12.1-1.7-7.47,4.32-13.53,14.8-13.53,23.42a16.15,16.15,0,0,0,.14,2,5.11,5.11,0,0,0-3.79.76A14.32,14.32,0,0,0,212,454.77c0,4.12,2.9,5.8,6.47,3.73l45.66-26.36a13.75,13.75,0,0,0,6.22-10.77C270.31,417.4,267.52,415.8,264.09,417.78Z"/><path class="e0fe4537-4997-4bc0-85e0-43d4f5b3bb54" d="M418.89,316l-31.16-18c-1.91-1.1-1.67-3,.53-4.31l30.1-17.37a8.29,8.29,0,0,1,7.46-.31L457,294c1.92,1.11,1.68,3-.53,4.31l-30.1,17.37A8.26,8.26,0,0,1,418.89,316Z"/><path class="a6190a80-d5ce-4bad-bdb4-cf197eda956d" d="M422.15,308.69a8.42,8.42,0,0,1-4.14-1l-31.17-18a4,4,0,0,1-2.17-3.41,4.77,4.77,0,0,1,2.71-4L417.47,265a10,10,0,0,1,9.23-.31l31.17,18a4,4,0,0,1,2.17,3.41,4.75,4.75,0,0,1-2.71,4l-30.09,17.37A10.39,10.39,0,0,1,422.15,308.69Zm.45-41.49a6.89,6.89,0,0,0-3.36.83L389.15,285.4c-.76.44-.94.83-.94.9a1,1,0,0,0,.4.34l31.17,18a6.53,6.53,0,0,0,5.69-.31L455.56,287c.76-.44.94-.83.94-.9a1,1,0,0,0-.4-.34l-31.17-18A4.72,4.72,0,0,0,422.6,267.2Z"/><path class="ab613ae4-140d-44f4-81c6-d695fc1fd154" d="M458.26,275h0V264.27l-24.11,0-8.33-4.81a8.32,8.32,0,0,0-7.46.31l-7.78,4.49H386.45v11.06a2.16,2.16,0,0,0,1.28,2l31.16,18a8.29,8.29,0,0,0,7.46-.31l30.1-17.37C457.72,276.86,458.34,275.91,458.26,275Z"/><path class="acbafc8d-15c9-422d-9e74-212fe8e24c71" d="M422.36,258.7a8.69,8.69,0,0,0-4,1.05l-7.78,4.49H386.45v11.06a2.16,2.16,0,0,0,1.28,2l31.16,18a6.79,6.79,0,0,0,3.47.74Z"/><path class="b8f92737-3589-4f5a-806b-971e07bcc887" d="M389.18,264.23h-2.73v11.06a2.16,2.16,0,0,0,1.28,2l1.45.83Z"/><path class="b7ca1c54-81b6-4f37-87b4-0abf6b418b0f" d="M419.37,295.51a8.53,8.53,0,0,0,6-.06V282.89h-6Z"/><path class="eb5f131d-53d9-4ca8-ac4a-8981f8816a52" d="M418.89,284.26l-31.16-18c-1.91-1.11-1.67-3,.53-4.31l30.1-17.37c2.2-1.28,5.55-1.42,7.46-.31l31.16,18c1.92,1.1,1.68,3-.53,4.31L426.35,284A8.29,8.29,0,0,1,418.89,284.26Z"/><path class="a6190a80-d5ce-4bad-bdb4-cf197eda956d" d="M456.45,264.46l-30.1,17.37a8.26,8.26,0,0,1-7.46.31l-31.16-18a2.88,2.88,0,0,1-1-.85,2,2,0,0,0,1,3l31.16,18a8.29,8.29,0,0,0,7.46-.31l30.1-17.37c1.71-1,2.23-2.38,1.49-3.46A4.21,4.21,0,0,1,456.45,264.46Z"/><path class="b8f92737-3589-4f5a-806b-971e07bcc887" d="M446.8,277.86a2.77,2.77,0,0,1-1.26,2.18c-.69.4-1.26.08-1.26-.73a2.8,2.8,0,0,1,1.26-2.18C446.24,276.73,446.8,277.06,446.8,277.86Z"/><path class="b8f92737-3589-4f5a-806b-971e07bcc887" d="M450.85,275.52a2.77,2.77,0,0,1-1.26,2.18c-.69.4-1.26.08-1.26-.73a2.82,2.82,0,0,1,1.26-2.18C450.29,274.39,450.85,274.72,450.85,275.52Z"/><path class="b8f92737-3589-4f5a-806b-971e07bcc887" d="M454.9,273.18a2.76,2.76,0,0,1-1.26,2.18c-.69.4-1.26.08-1.26-.72a2.78,2.78,0,0,1,1.26-2.18C454.34,272.05,454.9,272.38,454.9,273.18Z"/><path class="b7ca1c54-81b6-4f37-87b4-0abf6b418b0f" d="M420.74,273.1l-14.59-8.41c-.89-.52-.78-1.42.25-2l14.08-8.13a3.91,3.91,0,0,1,3.5-.15l14.58,8.42c.89.52.78,1.42-.25,2L424.23,273A3.86,3.86,0,0,1,420.74,273.1Z"/><path class="b8f92737-3589-4f5a-806b-971e07bcc887" d="M422.13,266.06l-2-1.17c-.12-.07-.1-.2,0-.28l2-1.12a.49.49,0,0,1,.48,0l2,1.16c.12.07.11.2,0,.28L422.61,266A.54.54,0,0,1,422.13,266.06Z"/><path class="ab613ae4-140d-44f4-81c6-d695fc1fd154" d="M406.15,264.69l0,0,.21-.15,14.08-8.13a3.91,3.91,0,0,1,3.5-.14l14.54,8.4c.82-.59.87-1.4,0-1.88L424,254.39a3.91,3.91,0,0,0-3.5.15l-14.08,8.13C405.37,263.27,405.26,264.17,406.15,264.69Z"/><path class="e0fe4537-4997-4bc0-85e0-43d4f5b3bb54" d="M503.75,364.79l-31.16-18c-1.92-1.11-1.68-3,.53-4.31l30.09-17.37c2.21-1.28,5.55-1.42,7.46-.31l31.17,18c1.91,1.1,1.67,3-.54,4.31l-30.09,17.37C509,365.76,505.66,365.9,503.75,364.79Z"/><path class="a6190a80-d5ce-4bad-bdb4-cf197eda956d" d="M507,357.47a8.44,8.44,0,0,1-4.15-1l-31.16-18a4,4,0,0,1-2.18-3.4,4.77,4.77,0,0,1,2.72-4l30.09-17.37a10,10,0,0,1,9.23-.31l31.16,18a4,4,0,0,1,2.18,3.4,4.76,4.76,0,0,1-2.71,4L512.1,356.17A10.42,10.42,0,0,1,507,357.47Zm-2.38-4.06a6.58,6.58,0,0,0,5.7-.31l30.09-17.37c.76-.44.94-.83.94-.91a1.14,1.14,0,0,0-.41-.33l-31.16-18a6.56,6.56,0,0,0-5.69.31L474,334.18c-.76.43-.94.83-.95.9a1.22,1.22,0,0,0,.41.34Z"/><path class="ab613ae4-140d-44f4-81c6-d695fc1fd154" d="M543.12,323.8h0V313.05L519,313l-8.34-4.81a8.29,8.29,0,0,0-7.46.31L495.44,313H471.3v11.05a2.18,2.18,0,0,0,1.29,2l31.16,18c1.91,1.1,5.25,1,7.46-.31l30.09-17.38C542.58,325.64,543.19,324.69,543.12,323.8Z"/><path class="a7963146-985e-45aa-88d2-47e5b411c5c5" d="M507.21,307.48a8.6,8.6,0,0,0-4,1L495.44,313H471.3v11.05a2.18,2.18,0,0,0,1.29,2l31.16,18a6.78,6.78,0,0,0,3.46.74Z"/><path class="b8f92737-3589-4f5a-806b-971e07bcc887" d="M474,313H471.3v11.05a2.18,2.18,0,0,0,1.29,2l1.44.84Z"/><path class="b7ca1c54-81b6-4f37-87b4-0abf6b418b0f" d="M504.23,344.29a8.45,8.45,0,0,0,6-.07V331.67h-6Z"/><path class="f07b8914-5c6f-4057-b011-6f9b401f7b14" d="M503.75,333l-31.16-18c-1.92-1.1-1.68-3,.53-4.3l30.09-17.38c2.21-1.27,5.55-1.41,7.46-.31l31.17,18c1.91,1.1,1.67,3-.54,4.3l-30.09,17.38C509,334,505.66,334.14,503.75,333Z"/><path class="a6190a80-d5ce-4bad-bdb4-cf197eda956d" d="M541.3,313.24l-30.09,17.37c-2.21,1.28-5.55,1.42-7.46.31l-31.16-18a3,3,0,0,1-1-.85c-.66,1.06-.36,2.21,1,3l31.16,18c1.91,1.1,5.25,1,7.46-.31l30.09-17.38c1.72-1,2.24-2.37,1.49-3.46A4.05,4.05,0,0,1,541.3,313.24Z"/><path class="b8f92737-3589-4f5a-806b-971e07bcc887" d="M531.66,326.64a2.82,2.82,0,0,1-1.26,2.18c-.7.4-1.26.07-1.26-.73a2.77,2.77,0,0,1,1.26-2.18C531.09,325.51,531.66,325.83,531.66,326.64Z"/><path class="b8f92737-3589-4f5a-806b-971e07bcc887" d="M535.71,324.3a2.8,2.8,0,0,1-1.26,2.18c-.7.4-1.26.07-1.26-.73a2.77,2.77,0,0,1,1.26-2.18C535.14,323.17,535.71,323.5,535.71,324.3Z"/><path class="b8f92737-3589-4f5a-806b-971e07bcc887" d="M539.76,322a2.8,2.8,0,0,1-1.26,2.18c-.7.4-1.26.08-1.26-.73a2.77,2.77,0,0,1,1.26-2.18C539.19,320.83,539.76,321.16,539.76,322Z"/><path class="b7ca1c54-81b6-4f37-87b4-0abf6b418b0f" d="M505.59,321.88,491,313.46c-.9-.51-.78-1.42.25-2l14.08-8.13a3.86,3.86,0,0,1,3.49-.15l14.59,8.42c.89.52.78,1.42-.25,2l-14.09,8.13A3.89,3.89,0,0,1,505.59,321.88Z"/><path class="b8f92737-3589-4f5a-806b-971e07bcc887" d="M507,314.83l-2-1.16c-.12-.07-.11-.2,0-.28l1.94-1.13a.56.56,0,0,1,.49,0l2,1.17c.13.07.11.19,0,.28l-1.95,1.12A.54.54,0,0,1,507,314.83Z"/><path class="ab613ae4-140d-44f4-81c6-d695fc1fd154" d="M491,313.46l0,0,.21-.15,14.08-8.13a3.89,3.89,0,0,1,3.49-.14l14.55,8.39c.82-.59.86-1.39,0-1.87l-14.59-8.42a3.86,3.86,0,0,0-3.49.15l-14.08,8.13C490.23,312,490.11,313,491,313.46Z"/><path class="e0fe4537-4997-4bc0-85e0-43d4f5b3bb54" d="M320.93,373.36l65.93-37.59c2.41-1.39,2.11-3.82-.68-5.43l-37.93-21.9c-2.78-1.61-7-1.78-9.41-.39l-65.92,37.59c-2.42,1.39-2.11,3.83.67,5.43L311.52,373C314.31,374.58,318.52,374.76,320.93,373.36Z"/><path class="a6190a80-d5ce-4bad-bdb4-cf197eda956d" d="M316.84,365a12.6,12.6,0,0,1-6.2-1.56l-37.93-21.9c-2-1.17-3.19-2.85-3.19-4.6A4.56,4.56,0,0,1,272,333L338,295.42c2.93-1.7,7.84-1.53,11.17.39l37.93,21.9c2,1.17,3.19,2.85,3.19,4.61a4.55,4.55,0,0,1-2.52,3.89L321.81,363.8A10,10,0,0,1,316.84,365Zm26.06-67.18a6.52,6.52,0,0,0-3.17.7l-65.94,37.59c-.45.27-.73.58-.73.83s.44,1,1.41,1.53l37.94,21.91c2.21,1.27,5.78,1.46,7.64.39h0L386,323.14c.46-.27.74-.57.74-.82s-.44-1-1.42-1.54l-37.93-21.9A9.27,9.27,0,0,0,342.9,297.79Z"/><path class="a93aadc8-d115-4b43-9229-afed69f37d0c" d="M271.3,325h0V181.55l57-14.93,10.5-6.07c2.41-1.39,6.63-1.21,9.41.39l9.8,5.66h30.42l-9,138.5a2.75,2.75,0,0,1-1.62,2.52l-56.92,42.95c-2.41,1.39-6.62,1.22-9.41-.39l-37.93-21.9C272,327.34,271.21,326.14,271.3,325Z"/><path class="b8f92737-3589-4f5a-806b-971e07bcc887" d="M343.21,159.62a10.89,10.89,0,0,1,5,1.32l9.8,5.66h30.42V310.45a2.72,2.72,0,0,1-1.61,2.52l-65.93,37.59a8.49,8.49,0,0,1-4.36.93l-.68-144.76Z"/><path class="b7ca1c54-81b6-4f37-87b4-0abf6b418b0f" d="M320.33,350.86a10.71,10.71,0,0,1-7.52-.09V205h7.52Z"/><path class="b8f92737-3589-4f5a-806b-971e07bcc887" d="M320.93,206.75l65.93-37.59c2.41-1.39,2.11-3.83-.68-5.43l-37.93-21.9c-2.78-1.61-7-1.79-9.41-.39L272.92,179c-2.42,1.39-2.11,3.82.67,5.43l37.93,21.9C314.31,208,318.52,208.14,320.93,206.75Z"/><path class="be610a8e-7103-4d54-b209-0f39d856ce44" d="M273.59,181.79l37.93,21.9c2.79,1.61,7,1.78,9.41.39l65.93-37.59a3.52,3.52,0,0,0,1.2-1.07c.83,1.34.45,2.78-1.2,3.74l-65.93,37.59c-2.41,1.39-6.62,1.22-9.41-.39l-37.93-21.9c-2.16-1.25-2.82-3-1.88-4.36A5.33,5.33,0,0,0,273.59,181.79Z"/><path class="f3d10553-c4cd-4d05-befe-80ff241f6922" d="M319.07,191.51,363,166.07c1.13-.65,1-1.79-.32-2.54l-17.75-10.25a4.9,4.9,0,0,0-4.4-.18L296.6,178.54c-1.13.65-1,1.79.31,2.54l17.75,10.25A4.89,4.89,0,0,0,319.07,191.51Z"/><path class="b8f92737-3589-4f5a-806b-971e07bcc887" d="M342.76,167.21l2.55-1.47c.15-.09.13-.24-.05-.35L342.81,164a.66.66,0,0,0-.61,0l-2.55,1.47c-.15.09-.13.25.05.35l2.45,1.42A.69.69,0,0,0,342.76,167.21Z"/><path class="b8f92737-3589-4f5a-806b-971e07bcc887" d="M334.27,172.1l2.54-1.47c.15-.09.14-.25,0-.35l-2.46-1.42a.69.69,0,0,0-.61,0l-2.54,1.46c-.16.09-.14.25,0,.36l2.46,1.41A.66.66,0,0,0,334.27,172.1Z"/><path class="b8f92737-3589-4f5a-806b-971e07bcc887" d="M325.77,177l2.54-1.47c.16-.09.14-.25,0-.35l-2.46-1.42a.66.66,0,0,0-.61,0l-2.54,1.47c-.16.09-.14.25,0,.35l2.46,1.42A.69.69,0,0,0,325.77,177Z"/><path class="b8f92737-3589-4f5a-806b-971e07bcc887" d="M317.27,181.87l2.54-1.47c.16-.09.14-.24,0-.35l-2.46-1.42a.67.67,0,0,0-.6,0l-2.55,1.47c-.15.09-.13.24,0,.35l2.45,1.42A.69.69,0,0,0,317.27,181.87Z"/><path class="b7ca1c54-81b6-4f37-87b4-0abf6b418b0f" d="M363,166.07l0,0-.27-.18-17.75-10.25a4.9,4.9,0,0,0-4.4-.18L296.65,180.9c-1-.74-1.1-1.76,0-2.36l43.89-25.44a4.9,4.9,0,0,1,4.4.18l17.75,10.25C364,164.28,364.09,165.42,363,166.07Z"/><path class="f3d10553-c4cd-4d05-befe-80ff241f6922" d="M304.12,235.18l-25-14.29a6.1,6.1,0,0,1-2.54-4.86V207.1c0-1.87,1.14-2.73,2.54-1.92l25,14.29a6.1,6.1,0,0,1,2.54,4.86v8.92C306.66,235.13,305.52,236,304.12,235.18Z"/><path class="a6190a80-d5ce-4bad-bdb4-cf197eda956d" d="M277.93,204.91a2.46,2.46,0,0,0-.64,1.86v8.92a6.09,6.09,0,0,0,2.54,4.86l25,14.29a1.83,1.83,0,0,0,1.23.27,1.51,1.51,0,0,1-1.9.07l-25-14.29a6.1,6.1,0,0,1-2.54-4.86V207.1C276.62,205.83,277.15,205,277.93,204.91Z"/><path class="ab613ae4-140d-44f4-81c6-d695fc1fd154" d="M296.61,225.48l-2.29-1.32a1.34,1.34,0,0,1-.55-1.06v-2.45c0-.4.25-.59.55-.41l2.29,1.32a1.31,1.31,0,0,1,.56,1.06v2.44C297.17,225.47,296.92,225.66,296.61,225.48Z"/><path class="a6190a80-d5ce-4bad-bdb4-cf197eda956d" d="M289,221.06l-2.29-1.32a1.33,1.33,0,0,1-.56-1.06v-2.45c0-.4.25-.59.56-.41l2.29,1.32a1.33,1.33,0,0,1,.55,1.06v2.44C289.51,221.05,289.26,221.24,289,221.06Z"/><path class="f3d10553-c4cd-4d05-befe-80ff241f6922" d="M304.12,299.67l-25-14.29a6.1,6.1,0,0,1-2.54-4.86v-8.93c0-1.87,1.14-2.73,2.54-1.92l25,14.29a6.1,6.1,0,0,1,2.54,4.86v8.92C306.66,299.62,305.52,300.48,304.12,299.67Z"/><path class="a6190a80-d5ce-4bad-bdb4-cf197eda956d" d="M277.93,269.4a2.46,2.46,0,0,0-.64,1.86v8.92a6.09,6.09,0,0,0,2.54,4.86l25,14.29a1.83,1.83,0,0,0,1.23.27,1.51,1.51,0,0,1-1.9.07l-25-14.29a6.1,6.1,0,0,1-2.54-4.86v-8.93C276.62,270.32,277.15,269.54,277.93,269.4Z"/><path class="ab613ae4-140d-44f4-81c6-d695fc1fd154" d="M296.61,290l-2.29-1.32a1.34,1.34,0,0,1-.55-1.06v-2.44c0-.41.25-.6.55-.42l2.29,1.32a1.33,1.33,0,0,1,.56,1.06v2.44C297.17,290,296.92,290.15,296.61,290Z"/><path class="a6190a80-d5ce-4bad-bdb4-cf197eda956d" d="M289,285.55l-2.29-1.32a1.33,1.33,0,0,1-.56-1.06v-2.44c0-.41.25-.6.56-.42l2.29,1.32a1.34,1.34,0,0,1,.55,1.06v2.44C289.51,285.54,289.26,285.73,289,285.55Z"/><path class="f3d10553-c4cd-4d05-befe-80ff241f6922" d="M304.12,331.91l-25-14.29a6.09,6.09,0,0,1-2.54-4.85v-8.93c0-1.87,1.14-2.73,2.54-1.92l25,14.29a6.09,6.09,0,0,1,2.54,4.86V330C306.66,331.86,305.52,332.72,304.12,331.91Z"/><path class="a6190a80-d5ce-4bad-bdb4-cf197eda956d" d="M277.93,301.65a2.46,2.46,0,0,0-.64,1.86v8.92a6.1,6.1,0,0,0,2.54,4.86l25,14.29a1.83,1.83,0,0,0,1.23.27,1.51,1.51,0,0,1-1.9.06l-25-14.29a6.09,6.09,0,0,1-2.54-4.85v-8.93C276.62,302.57,277.15,301.78,277.93,301.65Z"/><path class="ab613ae4-140d-44f4-81c6-d695fc1fd154" d="M296.61,322.22l-2.29-1.32a1.34,1.34,0,0,1-.55-1.06v-2.45c0-.41.25-.59.55-.42l2.29,1.32a1.34,1.34,0,0,1,.56,1.06v2.45C297.17,322.21,296.92,322.39,296.61,322.22Z"/><path class="a6190a80-d5ce-4bad-bdb4-cf197eda956d" d="M289,317.8l-2.29-1.32a1.33,1.33,0,0,1-.56-1.06V313c0-.41.25-.59.56-.42l2.29,1.32a1.36,1.36,0,0,1,.55,1.06v2.45C289.51,317.79,289.26,318,289,317.8Z"/><path class="f3d10553-c4cd-4d05-befe-80ff241f6922" d="M304.12,267.42l-25-14.29a6.09,6.09,0,0,1-2.54-4.86v-8.92c0-1.87,1.14-2.73,2.54-1.92l25,14.29a6.09,6.09,0,0,1,2.54,4.85v8.93C306.66,267.37,305.52,268.23,304.12,267.42Z"/><path class="a6190a80-d5ce-4bad-bdb4-cf197eda956d" d="M277.93,237.16a2.45,2.45,0,0,0-.64,1.85v8.93a6.1,6.1,0,0,0,2.54,4.86l25,14.29a1.83,1.83,0,0,0,1.23.27,1.51,1.51,0,0,1-1.9.06l-25-14.29a6.09,6.09,0,0,1-2.54-4.86v-8.92C276.62,238.08,277.15,237.29,277.93,237.16Z"/><path class="ab613ae4-140d-44f4-81c6-d695fc1fd154" d="M296.61,257.73l-2.29-1.33a1.33,1.33,0,0,1-.55-1V252.9c0-.41.25-.6.55-.42l2.29,1.32a1.33,1.33,0,0,1,.56,1.06v2.45C297.17,257.72,296.92,257.9,296.61,257.73Z"/><path class="a6190a80-d5ce-4bad-bdb4-cf197eda956d" d="M289,253.31,286.67,252a1.34,1.34,0,0,1-.56-1.06v-2.45c0-.41.25-.6.56-.42l2.29,1.32a1.34,1.34,0,0,1,.55,1.06v2.45C289.51,253.3,289.26,253.48,289,253.31Z"/><path class="b7ca1c54-81b6-4f37-87b4-0abf6b418b0f" d="M325.73,226l57.58-33.24a5.59,5.59,0,0,0,2.33-4.46v-11c0-1.72-1-2.51-2.33-1.76l-57.58,33.24a5.58,5.58,0,0,0-2.33,4.46v11C323.4,226,324.44,226.78,325.73,226Z"/><path class="b10d9405-94d8-4499-ae4f-d0f546e3ed97" d="M327.39,222.19l54.27-31.33a2.85,2.85,0,0,0,1.18-2.27v-8.25c0-.87-.53-1.27-1.18-.89l-54.27,31.33A2.83,2.83,0,0,0,326.2,213v8.26C326.2,222.17,326.73,222.57,327.39,222.19Z"/><path class="b8f92737-3589-4f5a-806b-971e07bcc887" d="M370.35,193.21l8.1-4.67a2.77,2.77,0,0,0,1.15-2.2h0c0-.85-.52-1.23-1.15-.87l-8.1,4.68a2.73,2.73,0,0,0-1.15,2.19h0C369.2,193.19,369.71,193.58,370.35,193.21Z"/><path class="f3d10553-c4cd-4d05-befe-80ff241f6922" d="M363.45,195.67c0,.84.59,1.19,1.32.76a2.91,2.91,0,0,0,1.33-2.3c0-.84-.59-1.19-1.33-.76A2.93,2.93,0,0,0,363.45,195.67Z"/><path class="f3d10553-c4cd-4d05-befe-80ff241f6922" d="M358.76,198.37c0,.85.6,1.19,1.33.77a3,3,0,0,0,1.33-2.3c0-.85-.6-1.19-1.33-.77A2.94,2.94,0,0,0,358.76,198.37Z"/><path class="b8f92737-3589-4f5a-806b-971e07bcc887" d="M354.08,201.07c0,.85.59,1.19,1.33.77a2.93,2.93,0,0,0,1.32-2.3c0-.85-.59-1.19-1.32-.77A2.94,2.94,0,0,0,354.08,201.07Z"/><path class="f3d10553-c4cd-4d05-befe-80ff241f6922" d="M349.4,203.78c0,.84.59,1.19,1.32.76a2.91,2.91,0,0,0,1.33-2.3c0-.84-.59-1.19-1.33-.76A2.93,2.93,0,0,0,349.4,203.78Z"/><path class="f3d10553-c4cd-4d05-befe-80ff241f6922" d="M329.67,217.59,332.4,216a1.79,1.79,0,0,0,.73-1.41v-2.89c0-.54-.33-.79-.73-.56l-2.73,1.58a1.77,1.77,0,0,0-.74,1.41V217C328.93,217.58,329.26,217.83,329.67,217.59Z"/><path class="b7ca1c54-81b6-4f37-87b4-0abf6b418b0f" d="M325.73,245.4l57.58-33.24a5.59,5.59,0,0,0,2.33-4.46v-11c0-1.72-1-2.51-2.33-1.76L325.73,228.2a5.58,5.58,0,0,0-2.33,4.46v11C323.4,245.35,324.44,246.14,325.73,245.4Z"/><path class="b10d9405-94d8-4499-ae4f-d0f546e3ed97" d="M327.39,241.55l54.27-31.33a2.85,2.85,0,0,0,1.18-2.27V199.7c0-.87-.53-1.27-1.18-.89l-54.27,31.33a2.83,2.83,0,0,0-1.19,2.26v8.26C326.2,241.53,326.73,241.93,327.39,241.55Z"/><path class="b8f92737-3589-4f5a-806b-971e07bcc887" d="M370.35,212.57l8.1-4.67a2.77,2.77,0,0,0,1.15-2.2h0c0-.85-.52-1.23-1.15-.87l-8.1,4.68a2.75,2.75,0,0,0-1.15,2.2h0C369.2,212.55,369.71,212.94,370.35,212.57Z"/><path class="a6190a80-d5ce-4bad-bdb4-cf197eda956d" d="M363.45,215c0,.84.59,1.19,1.32.76a2.91,2.91,0,0,0,1.33-2.3c0-.84-.59-1.19-1.33-.76A2.93,2.93,0,0,0,363.45,215Z"/><path class="f3d10553-c4cd-4d05-befe-80ff241f6922" d="M358.76,217.73c0,.85.6,1.19,1.33.77a3,3,0,0,0,1.33-2.3c0-.85-.6-1.19-1.33-.77A2.94,2.94,0,0,0,358.76,217.73Z"/><path class="b8f92737-3589-4f5a-806b-971e07bcc887" d="M354.08,220.43c0,.85.59,1.19,1.33.77a2.93,2.93,0,0,0,1.32-2.3c0-.85-.59-1.19-1.32-.77A2.94,2.94,0,0,0,354.08,220.43Z"/><path class="f3d10553-c4cd-4d05-befe-80ff241f6922" d="M349.4,223.14c0,.84.59,1.19,1.32.76a2.91,2.91,0,0,0,1.33-2.3c0-.84-.59-1.18-1.33-.76A2.93,2.93,0,0,0,349.4,223.14Z"/><path class="f3d10553-c4cd-4d05-befe-80ff241f6922" d="M329.67,237l2.73-1.57a1.79,1.79,0,0,0,.73-1.41v-2.89c0-.54-.33-.79-.73-.55l-2.73,1.57a1.77,1.77,0,0,0-.74,1.41v2.89C328.93,236.94,329.26,237.19,329.67,237Z"/><path class="b7ca1c54-81b6-4f37-87b4-0abf6b418b0f" d="M325.73,264.76l57.58-33.24a5.59,5.59,0,0,0,2.33-4.46v-11c0-1.72-1-2.51-2.33-1.76l-57.58,33.24A5.58,5.58,0,0,0,323.4,252v11C323.4,264.71,324.44,265.5,325.73,264.76Z"/><path class="b10d9405-94d8-4499-ae4f-d0f546e3ed97" d="M327.39,260.91l54.27-31.33a2.85,2.85,0,0,0,1.18-2.26v-8.26c0-.87-.53-1.27-1.18-.89L327.39,249.5a2.83,2.83,0,0,0-1.19,2.26V260C326.2,260.89,326.73,261.29,327.39,260.91Z"/><path class="b8f92737-3589-4f5a-806b-971e07bcc887" d="M370.35,231.93l8.1-4.67a2.77,2.77,0,0,0,1.15-2.2h0c0-.84-.52-1.23-1.15-.87l-8.1,4.68a2.75,2.75,0,0,0-1.15,2.2h0C369.2,231.91,369.71,232.3,370.35,231.93Z"/><path class="a6190a80-d5ce-4bad-bdb4-cf197eda956d" d="M363.45,234.39c0,.84.59,1.19,1.32.76a2.91,2.91,0,0,0,1.33-2.3c0-.84-.59-1.19-1.33-.76A2.93,2.93,0,0,0,363.45,234.39Z"/><path class="f3d10553-c4cd-4d05-befe-80ff241f6922" d="M358.76,237.09c0,.85.6,1.19,1.33.77a3,3,0,0,0,1.33-2.3c0-.85-.6-1.19-1.33-.77A2.94,2.94,0,0,0,358.76,237.09Z"/><path class="b8f92737-3589-4f5a-806b-971e07bcc887" d="M354.08,239.79c0,.85.59,1.19,1.33.77a2.93,2.93,0,0,0,1.32-2.3c0-.85-.59-1.19-1.32-.77A2.94,2.94,0,0,0,354.08,239.79Z"/><path class="f3d10553-c4cd-4d05-befe-80ff241f6922" d="M349.4,242.5c0,.84.59,1.19,1.32.76a2.91,2.91,0,0,0,1.33-2.29c0-.85-.59-1.19-1.33-.77A2.93,2.93,0,0,0,349.4,242.5Z"/><path class="f3d10553-c4cd-4d05-befe-80ff241f6922" d="M329.67,256.31l2.73-1.57a1.79,1.79,0,0,0,.73-1.41v-2.89c0-.54-.33-.79-.73-.55l-2.73,1.57a1.77,1.77,0,0,0-.74,1.41v2.89C328.93,256.3,329.26,256.55,329.67,256.31Z"/><path class="b7ca1c54-81b6-4f37-87b4-0abf6b418b0f" d="M325.73,284.12l57.58-33.24a5.59,5.59,0,0,0,2.33-4.46v-11c0-1.72-1-2.51-2.33-1.76l-57.58,33.24a5.58,5.58,0,0,0-2.33,4.46v11C323.4,284.08,324.44,284.86,325.73,284.12Z"/><path class="b10d9405-94d8-4499-ae4f-d0f546e3ed97" d="M327.39,280.27l54.27-31.33a2.85,2.85,0,0,0,1.18-2.26v-8.26c0-.87-.53-1.27-1.18-.89l-54.27,31.33a2.83,2.83,0,0,0-1.19,2.26v8.26C326.2,280.25,326.73,280.65,327.39,280.27Z"/><path class="b8f92737-3589-4f5a-806b-971e07bcc887" d="M370.35,251.29l8.1-4.67a2.77,2.77,0,0,0,1.15-2.2h0c0-.84-.52-1.23-1.15-.87l-8.1,4.68a2.75,2.75,0,0,0-1.15,2.2h0C369.2,251.27,369.71,251.66,370.35,251.29Z"/><path class="f3d10553-c4cd-4d05-befe-80ff241f6922" d="M363.45,253.75c0,.84.59,1.19,1.32.76a2.91,2.91,0,0,0,1.33-2.3c0-.84-.59-1.19-1.33-.76A2.93,2.93,0,0,0,363.45,253.75Z"/><path class="f3d10553-c4cd-4d05-befe-80ff241f6922" d="M358.76,256.45c0,.85.6,1.19,1.33.77a3,3,0,0,0,1.33-2.3c0-.85-.6-1.19-1.33-.77A2.94,2.94,0,0,0,358.76,256.45Z"/><path class="b8f92737-3589-4f5a-806b-971e07bcc887" d="M354.08,259.15c0,.85.59,1.19,1.33.77a2.93,2.93,0,0,0,1.32-2.3c0-.84-.59-1.19-1.32-.76A2.91,2.91,0,0,0,354.08,259.15Z"/><path class="f3d10553-c4cd-4d05-befe-80ff241f6922" d="M349.4,261.86c0,.84.59,1.19,1.32.76a2.91,2.91,0,0,0,1.33-2.29c0-.85-.59-1.19-1.33-.77A2.93,2.93,0,0,0,349.4,261.86Z"/><path class="b8f92737-3589-4f5a-806b-971e07bcc887" d="M329.67,275.67l2.73-1.57a1.79,1.79,0,0,0,.73-1.41V269.8c0-.54-.33-.79-.73-.55l-2.73,1.57a1.77,1.77,0,0,0-.74,1.41v2.89C328.93,275.66,329.26,275.91,329.67,275.67Z"/><path class="b7ca1c54-81b6-4f37-87b4-0abf6b418b0f" d="M325.73,303.48l57.58-33.24a5.59,5.59,0,0,0,2.33-4.46v-11c0-1.72-1-2.51-2.33-1.76l-57.58,33.24a5.58,5.58,0,0,0-2.33,4.46v11C323.4,303.44,324.44,304.23,325.73,303.48Z"/><path class="b10d9405-94d8-4499-ae4f-d0f546e3ed97" d="M327.39,299.63l54.27-31.33a2.85,2.85,0,0,0,1.18-2.26v-8.26c0-.87-.53-1.27-1.18-.89l-54.27,31.33a2.83,2.83,0,0,0-1.19,2.26v8.26C326.2,299.61,326.73,300,327.39,299.63Z"/><path class="b8f92737-3589-4f5a-806b-971e07bcc887" d="M370.35,270.66l8.1-4.68a2.77,2.77,0,0,0,1.15-2.2h0c0-.84-.52-1.23-1.15-.87l-8.1,4.68a2.75,2.75,0,0,0-1.15,2.2h0C369.2,270.63,369.71,271,370.35,270.66Z"/><path class="f3d10553-c4cd-4d05-befe-80ff241f6922" d="M363.45,273.11c0,.84.59,1.19,1.32.76a2.91,2.91,0,0,0,1.33-2.3c0-.84-.59-1.19-1.33-.76A2.93,2.93,0,0,0,363.45,273.11Z"/><path class="a6190a80-d5ce-4bad-bdb4-cf197eda956d" d="M358.76,275.81c0,.85.6,1.19,1.33.77a3,3,0,0,0,1.33-2.3c0-.85-.6-1.19-1.33-.77A3,3,0,0,0,358.76,275.81Z"/><path class="b8f92737-3589-4f5a-806b-971e07bcc887" d="M354.08,278.51c0,.85.59,1.19,1.33.77a2.93,2.93,0,0,0,1.32-2.3c0-.84-.59-1.19-1.32-.76A2.91,2.91,0,0,0,354.08,278.51Z"/><path class="a6190a80-d5ce-4bad-bdb4-cf197eda956d" d="M349.4,281.22c0,.85.59,1.19,1.32.76a2.91,2.91,0,0,0,1.33-2.29c0-.85-.59-1.19-1.33-.77A2.93,2.93,0,0,0,349.4,281.22Z"/><path class="b8f92737-3589-4f5a-806b-971e07bcc887" d="M329.67,295l2.73-1.58a1.79,1.79,0,0,0,.73-1.41v-2.89c0-.54-.33-.79-.73-.55l-2.73,1.57a1.77,1.77,0,0,0-.74,1.41v2.89C328.93,295,329.26,295.27,329.67,295Z"/><path class="b7ca1c54-81b6-4f37-87b4-0abf6b418b0f" d="M325.73,322.84l57.58-33.24a5.58,5.58,0,0,0,2.33-4.46v-11c0-1.72-1-2.51-2.33-1.76l-57.58,33.24a5.58,5.58,0,0,0-2.33,4.46v11C323.4,322.8,324.44,323.59,325.73,322.84Z"/><path class="b10d9405-94d8-4499-ae4f-d0f546e3ed97" d="M327.39,319l54.27-31.33a2.85,2.85,0,0,0,1.18-2.26v-8.26c0-.87-.53-1.27-1.18-.89l-54.27,31.33a2.83,2.83,0,0,0-1.19,2.26v8.26C326.2,319,326.73,319.37,327.39,319Z"/><path class="b8f92737-3589-4f5a-806b-971e07bcc887" d="M370.35,290l8.1-4.68a2.77,2.77,0,0,0,1.15-2.2h0c0-.84-.52-1.23-1.15-.87l-8.1,4.68a2.75,2.75,0,0,0-1.15,2.2h0C369.2,290,369.71,290.38,370.35,290Z"/><path class="f3d10553-c4cd-4d05-befe-80ff241f6922" d="M363.45,292.47c0,.84.59,1.19,1.32.76a2.91,2.91,0,0,0,1.33-2.3c0-.84-.59-1.18-1.33-.76A2.93,2.93,0,0,0,363.45,292.47Z"/><path class="f3d10553-c4cd-4d05-befe-80ff241f6922" d="M358.76,295.17c0,.85.6,1.19,1.33.77a3,3,0,0,0,1.33-2.3c0-.85-.6-1.19-1.33-.77A3,3,0,0,0,358.76,295.17Z"/><path class="b8f92737-3589-4f5a-806b-971e07bcc887" d="M354.08,297.88c0,.84.59,1.18,1.33.76a2.93,2.93,0,0,0,1.32-2.3c0-.84-.59-1.19-1.32-.76A2.91,2.91,0,0,0,354.08,297.88Z"/><path class="f3d10553-c4cd-4d05-befe-80ff241f6922" d="M349.4,300.58c0,.85.59,1.19,1.32.77a2.94,2.94,0,0,0,1.33-2.3c0-.85-.59-1.19-1.33-.77A2.93,2.93,0,0,0,349.4,300.58Z"/><path class="f3d10553-c4cd-4d05-befe-80ff241f6922" d="M329.67,314.4l2.73-1.58a1.78,1.78,0,0,0,.73-1.41v-2.89c0-.54-.33-.79-.73-.55l-2.73,1.57a1.77,1.77,0,0,0-.74,1.41v2.89C328.93,314.38,329.26,314.63,329.67,314.4Z"/><path class="b7ca1c54-81b6-4f37-87b4-0abf6b418b0f" d="M325.73,342.2,383.31,309a5.58,5.58,0,0,0,2.33-4.46v-11c0-1.72-1-2.51-2.33-1.76L325.73,325a5.58,5.58,0,0,0-2.33,4.46v11C323.4,342.16,324.44,343,325.73,342.2Z"/><path class="b10d9405-94d8-4499-ae4f-d0f546e3ed97" d="M327.39,338.35,381.66,307a2.85,2.85,0,0,0,1.18-2.26V296.5c0-.87-.53-1.27-1.18-.89l-54.27,31.33a2.83,2.83,0,0,0-1.19,2.26v8.26C326.2,338.33,326.73,338.73,327.39,338.35Z"/><path class="b8f92737-3589-4f5a-806b-971e07bcc887" d="M370.35,309.38l8.1-4.68a2.77,2.77,0,0,0,1.15-2.2h0c0-.84-.52-1.23-1.15-.87l-8.1,4.68a2.75,2.75,0,0,0-1.15,2.2h0C369.2,309.35,369.71,309.74,370.35,309.38Z"/><path class="a6190a80-d5ce-4bad-bdb4-cf197eda956d" d="M362,312.88c0,1.59,1.12,2.24,2.5,1.44A5.52,5.52,0,0,0,367,310c0-1.6-1.12-2.25-2.51-1.45A5.56,5.56,0,0,0,362,312.88Z"/><path class="f3d10553-c4cd-4d05-befe-80ff241f6922" d="M352.27,318.55c0,.85.59,1.19,1.32.77a2.92,2.92,0,0,0,1.33-2.3c0-.85-.59-1.19-1.33-.77A3,3,0,0,0,352.27,318.55Z"/><path class="b8f92737-3589-4f5a-806b-971e07bcc887" d="M347.58,321.26c0,.84.6,1.19,1.33.76a2.94,2.94,0,0,0,1.33-2.3c0-.84-.6-1.19-1.33-.76A2.94,2.94,0,0,0,347.58,321.26Z"/><path class="f3d10553-c4cd-4d05-befe-80ff241f6922" d="M342.9,324c0,.85.59,1.19,1.33.77a3,3,0,0,0,1.32-2.3c0-.85-.59-1.19-1.32-.77A2.91,2.91,0,0,0,342.9,324Z"/><path class="b8f92737-3589-4f5a-806b-971e07bcc887" d="M329.67,333.76l2.73-1.58a1.78,1.78,0,0,0,.73-1.41v-2.89c0-.54-.33-.79-.73-.55l-2.73,1.57a1.77,1.77,0,0,0-.74,1.41v2.89C328.93,333.74,329.26,334,329.67,333.76Z"/><path class="ededee65-5bb8-404f-a207-b874803e3b3f" d="M320.93,204.13l65.93-37.59c2.41-1.39,2.11-3.82-.68-5.43l-37.93-21.9c-2.78-1.61-7-1.78-9.41-.39l-65.92,37.59c-2.42,1.39-2.11,3.83.67,5.43l37.93,21.9C314.31,205.35,318.52,205.53,320.93,204.13Z"/><path class="f3d10553-c4cd-4d05-befe-80ff241f6922" d="M348.91,161.75a3.75,3.75,0,0,0-3.42,0L313.2,180.44a1,1,0,0,0,0,2,3.75,3.75,0,0,0,3.42,0l32.29-18.69C349.86,163.17,349.86,162.29,348.91,161.75Z"/><path class="e0fe4537-4997-4bc0-85e0-43d4f5b3bb54" d="M402.87,420.5l65.93-37.59c2.41-1.4,2.11-3.83-.67-5.43l-37.94-21.91c-2.78-1.6-7-1.78-9.4-.39l-65.93,37.6c-2.41,1.39-2.11,3.82.67,5.43l37.94,21.9C396.25,421.72,400.46,421.89,402.87,420.5Z"/><path class="a6190a80-d5ce-4bad-bdb4-cf197eda956d" d="M398.78,412.11a12.71,12.71,0,0,1-6.2-1.56l-37.93-21.9c-2-1.17-3.19-2.85-3.19-4.61a4.56,4.56,0,0,1,2.51-3.89l65.94-37.6c2.94-1.69,7.85-1.52,11.17.4L469,364.85c2,1.17,3.19,2.85,3.19,4.6a4.56,4.56,0,0,1-2.51,3.89l-65.94,37.6A10.12,10.12,0,0,1,398.78,412.11Zm26.07-67.19a6.56,6.56,0,0,0-3.18.7l-65.94,37.6c-.45.26-.73.57-.73.82s.44,1,1.42,1.54l37.93,21.9c2.22,1.28,5.79,1.46,7.64.39h0l65.93-37.6c.45-.26.73-.57.73-.82s-.44-1-1.42-1.54L429.31,346A9.34,9.34,0,0,0,424.85,344.92Z"/><path class="fd8a391b-08d6-4a60-9976-fe8fd56e8dd8" d="M353.24,372.16h0V228.68l57-14.92,10.51-6.07c2.41-1.39,6.62-1.22,9.4.39l9.81,5.66,30.42,0-9,138.51a2.73,2.73,0,0,1-1.62,2.52l-56.92,42.94c-2.41,1.4-6.62,1.22-9.4-.39l-37.94-21.9C353.93,374.48,353.15,373.28,353.24,372.16Z"/><path class="b8f92737-3589-4f5a-806b-971e07bcc887" d="M425.15,206.76a10.71,10.71,0,0,1,5,1.32l9.81,5.66,30.42,0V357.58a2.73,2.73,0,0,1-1.62,2.52l-65.93,37.59a8.49,8.49,0,0,1-4.36.94l-.68-144.76Z"/><path class="b7ca1c54-81b6-4f37-87b4-0abf6b418b0f" d="M402.27,398a10.71,10.71,0,0,1-7.52-.09V252.16h7.52Z"/><path class="e3f2c17d-ff0c-4a9b-8505-00e37811f045" d="M402.87,253.89l65.93-37.6c2.41-1.39,2.11-3.82-.67-5.43L430.19,189c-2.78-1.61-7-1.78-9.4-.39l-65.93,37.59c-2.41,1.4-2.11,3.83.67,5.43l37.94,21.91C396.25,255.1,400.46,255.28,402.87,253.89Z"/><path class="be610a8e-7103-4d54-b209-0f39d856ce44" d="M355.53,228.93l37.94,21.9c2.78,1.61,7,1.78,9.4.39l65.93-37.6a3.61,3.61,0,0,0,1.2-1.06c.83,1.33.46,2.78-1.2,3.73l-65.93,37.6c-2.41,1.39-6.62,1.21-9.4-.39l-37.94-21.91c-2.16-1.24-2.82-3-1.88-4.36A5.35,5.35,0,0,0,355.53,228.93Z"/><path class="a9d1e207-8cb9-4d31-a0a4-d714e02649e0" d="M401,238.65l43.89-25.44c1.13-.66,1-1.79-.31-2.55l-17.75-10.24a4.89,4.89,0,0,0-4.41-.19l-43.89,25.45c-1.13.65-1,1.79.32,2.54l17.75,10.25A4.9,4.9,0,0,0,401,238.65Z"/><path class="b8f92737-3589-4f5a-806b-971e07bcc887" d="M424.71,214.35l2.54-1.47c.15-.09.14-.25,0-.35l-2.46-1.42a.66.66,0,0,0-.61,0l-2.54,1.46c-.16.09-.14.25,0,.36l2.46,1.41A.66.66,0,0,0,424.71,214.35Z"/><path class="b8f92737-3589-4f5a-806b-971e07bcc887" d="M416.21,219.23l2.54-1.46c.16-.09.14-.25,0-.36L416.25,216a.66.66,0,0,0-.61,0l-2.54,1.47c-.16.09-.14.25,0,.35l2.46,1.42A.69.69,0,0,0,416.21,219.23Z"/><path class="b8f92737-3589-4f5a-806b-971e07bcc887" d="M407.71,224.12l2.54-1.47c.16-.09.14-.25,0-.35l-2.46-1.42a.67.67,0,0,0-.6,0l-2.55,1.47c-.15.09-.13.24,0,.35l2.45,1.42A.69.69,0,0,0,407.71,224.12Z"/><path class="b8f92737-3589-4f5a-806b-971e07bcc887" d="M399.21,229l2.55-1.47c.15-.09.13-.25-.05-.35l-2.45-1.42a.66.66,0,0,0-.61,0l-2.55,1.47c-.15.09-.13.25,0,.35L398.6,229A.66.66,0,0,0,399.21,229Z"/><path class="b7ca1c54-81b6-4f37-87b4-0abf6b418b0f" d="M444.9,213.21l0,0a2.48,2.48,0,0,0-.26-.19l-17.75-10.24a4.89,4.89,0,0,0-4.41-.19L378.59,228c-1-.75-1.09-1.76,0-2.36l43.89-25.45a4.89,4.89,0,0,1,4.41.19l17.75,10.24C445.89,211.42,446,212.55,444.9,213.21Z"/><path class="f3d10553-c4cd-4d05-befe-80ff241f6922" d="M386.06,282.31,361.1,268a6.09,6.09,0,0,1-2.54-4.86v-8.92c0-1.87,1.14-2.73,2.54-1.92l25,14.29a6.09,6.09,0,0,1,2.54,4.85v8.93C388.6,282.26,387.46,283.12,386.06,282.31Z"/><path class="a6190a80-d5ce-4bad-bdb4-cf197eda956d" d="M359.87,252.05a2.49,2.49,0,0,0-.64,1.85v8.93a6.1,6.1,0,0,0,2.54,4.86l25,14.29a1.84,1.84,0,0,0,1.23.27,1.52,1.52,0,0,1-1.9.06L361.1,268a6.09,6.09,0,0,1-2.54-4.86v-8.92C358.56,253,359.09,252.18,359.87,252.05Z"/><path class="ab613ae4-140d-44f4-81c6-d695fc1fd154" d="M378.55,272.62l-2.29-1.33a1.33,1.33,0,0,1-.55-1.05v-2.45c0-.41.25-.6.55-.42l2.29,1.32a1.33,1.33,0,0,1,.56,1.06v2.45C379.11,272.6,378.86,272.79,378.55,272.62Z"/><path class="a6190a80-d5ce-4bad-bdb4-cf197eda956d" d="M370.9,268.2l-2.29-1.33a1.3,1.3,0,0,1-.55-1.05v-2.45c0-.41.24-.6.55-.42l2.29,1.32a1.32,1.32,0,0,1,.55,1.06v2.45C371.45,268.19,371.21,268.37,370.9,268.2Z"/><path class="f3d10553-c4cd-4d05-befe-80ff241f6922" d="M386.06,346.8l-25-14.29a6.09,6.09,0,0,1-2.54-4.86v-8.92c0-1.87,1.14-2.73,2.54-1.92l25,14.29A6.09,6.09,0,0,1,388.6,336v8.92C388.6,346.75,387.46,347.61,386.06,346.8Z"/><path class="a6190a80-d5ce-4bad-bdb4-cf197eda956d" d="M359.87,316.54a2.5,2.5,0,0,0-.64,1.86v8.92a6.1,6.1,0,0,0,2.54,4.86l25,14.29a1.84,1.84,0,0,0,1.23.27,1.51,1.51,0,0,1-1.9.06l-25-14.29a6.09,6.09,0,0,1-2.54-4.86v-8.92C358.56,317.46,359.09,316.67,359.87,316.54Z"/><path class="ab613ae4-140d-44f4-81c6-d695fc1fd154" d="M378.55,337.11l-2.29-1.32a1.36,1.36,0,0,1-.55-1.06v-2.45c0-.41.25-.59.55-.42l2.29,1.32a1.33,1.33,0,0,1,.56,1.06v2.45C379.11,337.1,378.86,337.28,378.55,337.11Z"/><path class="a6190a80-d5ce-4bad-bdb4-cf197eda956d" d="M370.9,332.69l-2.29-1.32a1.32,1.32,0,0,1-.55-1.06v-2.45c0-.41.24-.59.55-.42l2.29,1.32a1.33,1.33,0,0,1,.55,1.06v2.45C371.45,332.68,371.21,332.86,370.9,332.69Z"/><path class="f3d10553-c4cd-4d05-befe-80ff241f6922" d="M386.06,379.05l-25-14.29a6.1,6.1,0,0,1-2.54-4.86V351c0-1.88,1.14-2.74,2.54-1.93l25,14.29a6.1,6.1,0,0,1,2.54,4.86v8.93C388.6,379,387.46,379.86,386.06,379.05Z"/><path class="a6190a80-d5ce-4bad-bdb4-cf197eda956d" d="M359.87,348.78a2.52,2.52,0,0,0-.64,1.86v8.93a6.09,6.09,0,0,0,2.54,4.85l25,14.29A1.84,1.84,0,0,0,388,379a1.51,1.51,0,0,1-1.9.07l-25-14.29a6.1,6.1,0,0,1-2.54-4.86V351C358.56,349.7,359.09,348.92,359.87,348.78Z"/><path class="ab613ae4-140d-44f4-81c6-d695fc1fd154" d="M378.55,369.35,376.26,368a1.34,1.34,0,0,1-.55-1.06v-2.44c0-.41.25-.6.55-.42l2.29,1.32a1.33,1.33,0,0,1,.56,1.06v2.44C379.11,369.34,378.86,369.53,378.55,369.35Z"/><path class="a6190a80-d5ce-4bad-bdb4-cf197eda956d" d="M370.9,364.93l-2.29-1.32a1.32,1.32,0,0,1-.55-1.06v-2.44c0-.41.24-.6.55-.42L370.9,361a1.32,1.32,0,0,1,.55,1.06v2.44C371.45,364.92,371.21,365.11,370.9,364.93Z"/><path class="f3d10553-c4cd-4d05-befe-80ff241f6922" d="M386.06,314.56l-25-14.29a6.1,6.1,0,0,1-2.54-4.86v-8.93c0-1.87,1.14-2.73,2.54-1.92l25,14.29a6.1,6.1,0,0,1,2.54,4.86v8.92C388.6,314.51,387.46,315.37,386.06,314.56Z"/><path class="a6190a80-d5ce-4bad-bdb4-cf197eda956d" d="M359.87,284.29a2.5,2.5,0,0,0-.64,1.86v8.92a6.09,6.09,0,0,0,2.54,4.86l25,14.29a1.84,1.84,0,0,0,1.23.27,1.51,1.51,0,0,1-1.9.07l-25-14.29a6.1,6.1,0,0,1-2.54-4.86v-8.93C358.56,285.21,359.09,284.42,359.87,284.29Z"/><path class="ab613ae4-140d-44f4-81c6-d695fc1fd154" d="M378.55,304.86l-2.29-1.32a1.34,1.34,0,0,1-.55-1.06V300c0-.41.25-.6.55-.42l2.29,1.32a1.31,1.31,0,0,1,.56,1.06v2.44C379.11,304.85,378.86,305,378.55,304.86Z"/><path class="a6190a80-d5ce-4bad-bdb4-cf197eda956d" d="M370.9,300.44l-2.29-1.32a1.32,1.32,0,0,1-.55-1.06v-2.44c0-.41.24-.6.55-.42l2.29,1.32a1.32,1.32,0,0,1,.55,1.06V300C371.45,300.43,371.21,300.62,370.9,300.44Z"/><path class="b7ca1c54-81b6-4f37-87b4-0abf6b418b0f" d="M407.68,273.17l57.57-33.24a5.58,5.58,0,0,0,2.34-4.46v-11c0-1.72-1-2.51-2.34-1.77L407.68,256a5.6,5.6,0,0,0-2.34,4.46v11C405.34,273.13,406.39,273.92,407.68,273.17Z"/><path class="b10d9405-94d8-4499-ae4f-d0f546e3ed97" d="M409.33,269.33,463.6,238a2.85,2.85,0,0,0,1.18-2.26v-8.25c0-.88-.53-1.28-1.18-.9l-54.27,31.33a2.83,2.83,0,0,0-1.19,2.27v8.25C408.14,269.3,408.67,269.7,409.33,269.33Z"/><path class="b8f92737-3589-4f5a-806b-971e07bcc887" d="M452.29,240.35l8.1-4.68a2.75,2.75,0,0,0,1.15-2.19h0c0-.85-.52-1.24-1.15-.87l-8.1,4.67a2.75,2.75,0,0,0-1.15,2.2h0C451.14,240.33,451.65,240.72,452.29,240.35Z"/><path class="f3d10553-c4cd-4d05-befe-80ff241f6922" d="M445.39,242.8c0,.85.59,1.19,1.33.77a3,3,0,0,0,1.32-2.3c0-.85-.59-1.19-1.32-.77A2.92,2.92,0,0,0,445.39,242.8Z"/><path class="f3d10553-c4cd-4d05-befe-80ff241f6922" d="M440.7,245.5c0,.85.6,1.19,1.33.77a2.91,2.91,0,0,0,1.33-2.3c0-.84-.59-1.19-1.33-.76A2.93,2.93,0,0,0,440.7,245.5Z"/><path class="b8f92737-3589-4f5a-806b-971e07bcc887" d="M436,248.21c0,.85.6,1.19,1.33.76a2.93,2.93,0,0,0,1.33-2.29c0-.85-.6-1.19-1.33-.77A2.94,2.94,0,0,0,436,248.21Z"/><path class="f3d10553-c4cd-4d05-befe-80ff241f6922" d="M431.34,250.91c0,.85.59,1.19,1.33.77a2.93,2.93,0,0,0,1.32-2.3c0-.85-.59-1.19-1.32-.77A2.94,2.94,0,0,0,431.34,250.91Z"/><path class="f3d10553-c4cd-4d05-befe-80ff241f6922" d="M411.61,264.73l2.73-1.58a1.74,1.74,0,0,0,.74-1.41v-2.88c0-.55-.33-.8-.74-.56l-2.73,1.58a1.74,1.74,0,0,0-.74,1.4v2.89C410.87,264.71,411.2,265,411.61,264.73Z"/><path class="b7ca1c54-81b6-4f37-87b4-0abf6b418b0f" d="M407.68,292.54l57.57-33.25a5.58,5.58,0,0,0,2.34-4.46v-11c0-1.72-1-2.51-2.34-1.77l-57.57,33.24a5.6,5.6,0,0,0-2.34,4.46v11C405.34,292.49,406.39,293.28,407.68,292.54Z"/><path class="b10d9405-94d8-4499-ae4f-d0f546e3ed97" d="M409.33,288.69l54.27-31.34a2.85,2.85,0,0,0,1.18-2.26v-8.25c0-.88-.53-1.28-1.18-.9l-54.27,31.33a2.85,2.85,0,0,0-1.19,2.27v8.25C408.14,288.66,408.67,289.06,409.33,288.69Z"/><path class="b8f92737-3589-4f5a-806b-971e07bcc887" d="M452.29,259.71l8.1-4.68a2.75,2.75,0,0,0,1.15-2.19h0c0-.85-.52-1.24-1.15-.87l-8.1,4.67a2.75,2.75,0,0,0-1.15,2.2h0C451.14,259.69,451.65,260.08,452.29,259.71Z"/><path class="a6190a80-d5ce-4bad-bdb4-cf197eda956d" d="M445.39,262.16c0,.85.59,1.19,1.33.77a2.94,2.94,0,0,0,1.32-2.3c0-.85-.59-1.19-1.32-.77A2.92,2.92,0,0,0,445.39,262.16Z"/><path class="f3d10553-c4cd-4d05-befe-80ff241f6922" d="M440.7,264.87c0,.84.6,1.18,1.33.76a2.91,2.91,0,0,0,1.33-2.3c0-.84-.59-1.19-1.33-.76A2.94,2.94,0,0,0,440.7,264.87Z"/><path class="b8f92737-3589-4f5a-806b-971e07bcc887" d="M436,267.57c0,.85.6,1.19,1.33.77a3,3,0,0,0,1.33-2.3c0-.85-.6-1.19-1.33-.77A2.94,2.94,0,0,0,436,267.57Z"/><path class="f3d10553-c4cd-4d05-befe-80ff241f6922" d="M431.34,270.27c0,.85.59,1.19,1.33.77a2.93,2.93,0,0,0,1.32-2.3c0-.85-.59-1.19-1.32-.77A2.94,2.94,0,0,0,431.34,270.27Z"/><path class="f3d10553-c4cd-4d05-befe-80ff241f6922" d="M411.61,284.09l2.73-1.58a1.74,1.74,0,0,0,.74-1.41v-2.88c0-.55-.33-.79-.74-.56l-2.73,1.58a1.74,1.74,0,0,0-.74,1.41v2.88C410.87,284.07,411.2,284.32,411.61,284.09Z"/><path class="b7ca1c54-81b6-4f37-87b4-0abf6b418b0f" d="M407.68,311.9l57.57-33.25a5.58,5.58,0,0,0,2.34-4.45v-11c0-1.72-1-2.51-2.34-1.77l-57.57,33.24a5.6,5.6,0,0,0-2.34,4.46v11C405.34,311.85,406.39,312.64,407.68,311.9Z"/><path class="b10d9405-94d8-4499-ae4f-d0f546e3ed97" d="M409.33,308.05l54.27-31.34a2.85,2.85,0,0,0,1.18-2.26V266.2c0-.88-.53-1.28-1.18-.9l-54.27,31.34a2.81,2.81,0,0,0-1.19,2.26v8.25C408.14,308,408.67,308.42,409.33,308.05Z"/><path class="b8f92737-3589-4f5a-806b-971e07bcc887" d="M452.29,279.07l8.1-4.68a2.75,2.75,0,0,0,1.15-2.19h0c0-.85-.52-1.24-1.15-.87l-8.1,4.67a2.75,2.75,0,0,0-1.15,2.2h0C451.14,279.05,451.65,279.44,452.29,279.07Z"/><path class="a6190a80-d5ce-4bad-bdb4-cf197eda956d" d="M445.39,281.52c0,.85.59,1.19,1.33.77A2.94,2.94,0,0,0,448,280c0-.85-.59-1.19-1.32-.77A2.94,2.94,0,0,0,445.39,281.52Z"/><path class="f3d10553-c4cd-4d05-befe-80ff241f6922" d="M440.7,284.23c0,.84.6,1.19,1.33.76a2.91,2.91,0,0,0,1.33-2.3c0-.84-.59-1.19-1.33-.76A2.94,2.94,0,0,0,440.7,284.23Z"/><path class="b8f92737-3589-4f5a-806b-971e07bcc887" d="M436,286.93c0,.85.6,1.19,1.33.77a3,3,0,0,0,1.33-2.3c0-.85-.6-1.19-1.33-.77A2.94,2.94,0,0,0,436,286.93Z"/><path class="f3d10553-c4cd-4d05-befe-80ff241f6922" d="M431.34,289.63c0,.85.59,1.19,1.33.77a2.93,2.93,0,0,0,1.32-2.3c0-.85-.59-1.19-1.32-.77A2.94,2.94,0,0,0,431.34,289.63Z"/><path class="f3d10553-c4cd-4d05-befe-80ff241f6922" d="M411.61,303.45l2.73-1.58a1.74,1.74,0,0,0,.74-1.41v-2.88c0-.54-.33-.79-.74-.56l-2.73,1.58a1.74,1.74,0,0,0-.74,1.41v2.88C410.87,303.44,411.2,303.68,411.61,303.45Z"/><path class="b7ca1c54-81b6-4f37-87b4-0abf6b418b0f" d="M407.68,331.26,465.25,298a5.58,5.58,0,0,0,2.34-4.45v-11c0-1.72-1-2.51-2.34-1.77l-57.57,33.24a5.6,5.6,0,0,0-2.34,4.46v11C405.34,331.21,406.39,332,407.68,331.26Z"/><path class="b10d9405-94d8-4499-ae4f-d0f546e3ed97" d="M409.33,327.41l54.27-31.34a2.83,2.83,0,0,0,1.18-2.26v-8.25c0-.87-.53-1.28-1.18-.9L409.33,316a2.81,2.81,0,0,0-1.19,2.26v8.25C408.14,327.38,408.67,327.78,409.33,327.41Z"/><path class="b8f92737-3589-4f5a-806b-971e07bcc887" d="M452.29,298.43l8.1-4.68a2.75,2.75,0,0,0,1.15-2.19h0c0-.85-.52-1.24-1.15-.87l-8.1,4.67a2.75,2.75,0,0,0-1.15,2.2h0C451.14,298.41,451.65,298.8,452.29,298.43Z"/><path class="f3d10553-c4cd-4d05-befe-80ff241f6922" d="M445.39,300.88c0,.85.59,1.19,1.33.77a2.93,2.93,0,0,0,1.32-2.3c0-.85-.59-1.19-1.32-.77A2.94,2.94,0,0,0,445.39,300.88Z"/><path class="f3d10553-c4cd-4d05-befe-80ff241f6922" d="M440.7,303.59c0,.84.6,1.19,1.33.76a2.91,2.91,0,0,0,1.33-2.3c0-.84-.59-1.19-1.33-.76A2.94,2.94,0,0,0,440.7,303.59Z"/><path class="b8f92737-3589-4f5a-806b-971e07bcc887" d="M436,306.29c0,.85.6,1.19,1.33.77a3,3,0,0,0,1.33-2.3c0-.85-.6-1.19-1.33-.77A2.94,2.94,0,0,0,436,306.29Z"/><path class="f3d10553-c4cd-4d05-befe-80ff241f6922" d="M431.34,309c0,.85.59,1.19,1.33.77a2.93,2.93,0,0,0,1.32-2.3c0-.85-.59-1.19-1.32-.77A2.94,2.94,0,0,0,431.34,309Z"/><path class="b8f92737-3589-4f5a-806b-971e07bcc887" d="M411.61,322.81l2.73-1.58a1.74,1.74,0,0,0,.74-1.4v-2.89c0-.54-.33-.79-.74-.56L411.61,318a1.74,1.74,0,0,0-.74,1.41v2.88C410.87,322.8,411.2,323.05,411.61,322.81Z"/><path class="b7ca1c54-81b6-4f37-87b4-0abf6b418b0f" d="M407.68,350.62l57.57-33.25a5.58,5.58,0,0,0,2.34-4.45v-11c0-1.72-1-2.51-2.34-1.77l-57.57,33.24a5.61,5.61,0,0,0-2.34,4.46v11C405.34,350.57,406.39,351.36,407.68,350.62Z"/><path class="b10d9405-94d8-4499-ae4f-d0f546e3ed97" d="M409.33,346.77l54.27-31.34a2.83,2.83,0,0,0,1.18-2.26v-8.25c0-.87-.53-1.28-1.18-.9l-54.27,31.34a2.81,2.81,0,0,0-1.19,2.26v8.25C408.14,346.74,408.67,347.14,409.33,346.77Z"/><path class="b8f92737-3589-4f5a-806b-971e07bcc887" d="M452.29,317.79l8.1-4.68a2.75,2.75,0,0,0,1.15-2.19h0c0-.85-.52-1.24-1.15-.87l-8.1,4.67a2.75,2.75,0,0,0-1.15,2.2h0C451.14,317.77,451.65,318.16,452.29,317.79Z"/><path class="f3d10553-c4cd-4d05-befe-80ff241f6922" d="M445.39,320.24c0,.85.59,1.19,1.33.77a2.93,2.93,0,0,0,1.32-2.3c0-.85-.59-1.19-1.32-.77A2.94,2.94,0,0,0,445.39,320.24Z"/><path class="a6190a80-d5ce-4bad-bdb4-cf197eda956d" d="M440.7,323c0,.84.6,1.19,1.33.76a2.91,2.91,0,0,0,1.33-2.3c0-.84-.59-1.19-1.33-.76A2.94,2.94,0,0,0,440.7,323Z"/><path class="b8f92737-3589-4f5a-806b-971e07bcc887" d="M436,325.65c0,.85.6,1.19,1.33.77a3,3,0,0,0,1.33-2.3c0-.85-.6-1.19-1.33-.77A2.94,2.94,0,0,0,436,325.65Z"/><path class="a6190a80-d5ce-4bad-bdb4-cf197eda956d" d="M431.34,328.35c0,.85.59,1.19,1.33.77a2.93,2.93,0,0,0,1.32-2.3c0-.85-.59-1.19-1.32-.77A2.94,2.94,0,0,0,431.34,328.35Z"/><path class="b8f92737-3589-4f5a-806b-971e07bcc887" d="M411.61,342.17l2.73-1.57a1.77,1.77,0,0,0,.74-1.41V336.3c0-.54-.33-.79-.74-.56l-2.73,1.58a1.74,1.74,0,0,0-.74,1.41v2.88C410.87,342.16,411.2,342.41,411.61,342.17Z"/><path class="b7ca1c54-81b6-4f37-87b4-0abf6b418b0f" d="M407.68,370l57.57-33.25a5.58,5.58,0,0,0,2.34-4.45v-11c0-1.72-1-2.51-2.34-1.77l-57.57,33.25a5.58,5.58,0,0,0-2.34,4.45v11C405.34,369.93,406.39,370.72,407.68,370Z"/><path class="b10d9405-94d8-4499-ae4f-d0f546e3ed97" d="M409.33,366.13l54.27-31.34a2.83,2.83,0,0,0,1.18-2.26v-8.25c0-.87-.53-1.27-1.18-.9l-54.27,31.34a2.81,2.81,0,0,0-1.19,2.26v8.25C408.14,366.1,408.67,366.5,409.33,366.13Z"/><path class="b8f92737-3589-4f5a-806b-971e07bcc887" d="M452.29,337.15l8.1-4.68a2.75,2.75,0,0,0,1.15-2.19h0c0-.85-.52-1.24-1.15-.87l-8.1,4.68a2.73,2.73,0,0,0-1.15,2.19h0C451.14,337.13,451.65,337.52,452.29,337.15Z"/><path class="f3d10553-c4cd-4d05-befe-80ff241f6922" d="M445.39,339.6c0,.85.59,1.19,1.33.77a2.93,2.93,0,0,0,1.32-2.3c0-.85-.59-1.19-1.32-.77A2.94,2.94,0,0,0,445.39,339.6Z"/><path class="f3d10553-c4cd-4d05-befe-80ff241f6922" d="M440.7,342.31c0,.84.6,1.19,1.33.76a2.91,2.91,0,0,0,1.33-2.3c0-.84-.59-1.19-1.33-.76A2.94,2.94,0,0,0,440.7,342.31Z"/><path class="b8f92737-3589-4f5a-806b-971e07bcc887" d="M436,345c0,.85.6,1.19,1.33.77a3,3,0,0,0,1.33-2.3c0-.85-.6-1.19-1.33-.77A2.94,2.94,0,0,0,436,345Z"/><path class="f3d10553-c4cd-4d05-befe-80ff241f6922" d="M431.34,347.71c0,.85.59,1.19,1.33.77a2.93,2.93,0,0,0,1.32-2.3c0-.85-.59-1.19-1.32-.77A2.94,2.94,0,0,0,431.34,347.71Z"/><path class="f3d10553-c4cd-4d05-befe-80ff241f6922" d="M411.61,361.53l2.73-1.57a1.77,1.77,0,0,0,.74-1.41v-2.89c0-.54-.33-.79-.74-.56l-2.73,1.58a1.74,1.74,0,0,0-.74,1.41V361C410.87,361.52,411.2,361.77,411.61,361.53Z"/><path class="b7ca1c54-81b6-4f37-87b4-0abf6b418b0f" d="M407.68,389.34l57.57-33.25a5.58,5.58,0,0,0,2.34-4.45v-11c0-1.72-1-2.51-2.34-1.77l-57.57,33.25a5.58,5.58,0,0,0-2.34,4.45v11C405.34,389.29,406.39,390.08,407.68,389.34Z"/><path class="b10d9405-94d8-4499-ae4f-d0f546e3ed97" d="M409.33,385.49l54.27-31.34a2.83,2.83,0,0,0,1.18-2.26v-8.25c0-.87-.53-1.27-1.18-.9l-54.27,31.34a2.81,2.81,0,0,0-1.19,2.26v8.25C408.14,385.46,408.67,385.86,409.33,385.49Z"/><path class="b8f92737-3589-4f5a-806b-971e07bcc887" d="M452.29,356.51l8.1-4.68a2.75,2.75,0,0,0,1.15-2.19h0c0-.85-.52-1.24-1.15-.87l-8.1,4.68a2.73,2.73,0,0,0-1.15,2.19h0C451.14,356.49,451.65,356.88,452.29,356.51Z"/><path class="a6190a80-d5ce-4bad-bdb4-cf197eda956d" d="M443.91,360c0,1.6,1.12,2.25,2.51,1.45a5.56,5.56,0,0,0,2.5-4.34c0-1.6-1.12-2.25-2.5-1.45A5.52,5.52,0,0,0,443.91,360Z"/><path class="f3d10553-c4cd-4d05-befe-80ff241f6922" d="M434.21,365.69c0,.84.59,1.19,1.33.76a2.93,2.93,0,0,0,1.32-2.3c0-.84-.59-1.19-1.32-.76A2.91,2.91,0,0,0,434.21,365.69Z"/><path class="b8f92737-3589-4f5a-806b-971e07bcc887" d="M429.52,368.39c0,.85.6,1.19,1.33.77a2.94,2.94,0,0,0,1.33-2.3c0-.85-.59-1.19-1.33-.77A2.94,2.94,0,0,0,429.52,368.39Z"/><path class="f3d10553-c4cd-4d05-befe-80ff241f6922" d="M424.84,371.09c0,.85.6,1.19,1.33.77a2.94,2.94,0,0,0,1.33-2.3c0-.84-.6-1.19-1.33-.76A2.93,2.93,0,0,0,424.84,371.09Z"/><path class="b8f92737-3589-4f5a-806b-971e07bcc887" d="M411.61,380.89l2.73-1.57a1.77,1.77,0,0,0,.74-1.41V375c0-.54-.33-.79-.74-.56L411.61,376a1.74,1.74,0,0,0-.74,1.41v2.88C410.87,380.88,411.2,381.13,411.61,380.89Z"/><path class="e0fe4537-4997-4bc0-85e0-43d4f5b3bb54" d="M244.06,407.9l-31.16-18c-1.92-1.11-1.68-3,.53-4.31l30.09-17.38a8.31,8.31,0,0,1,7.47-.3l31.16,18c1.91,1.1,1.67,3-.53,4.31l-30.1,17.37A8.32,8.32,0,0,1,244.06,407.9Z"/><path class="a6190a80-d5ce-4bad-bdb4-cf197eda956d" d="M247.32,400.58a8.42,8.42,0,0,1-4.14-1l-31.17-18a4,4,0,0,1-2.17-3.4,4.74,4.74,0,0,1,2.71-4l30.09-17.38c2.78-1.6,6.75-1.74,9.23-.3l31.17,18a4,4,0,0,1,2.17,3.4,4.76,4.76,0,0,1-2.71,4l-30.09,17.38A10.39,10.39,0,0,1,247.32,400.58ZM245,396.52a6.56,6.56,0,0,0,5.69-.31l30.09-17.37c.76-.44.94-.83.94-.91a1.12,1.12,0,0,0-.4-.34l-31.17-18a6.56,6.56,0,0,0-5.69.31l-30.09,17.37c-.76.44-.94.84-.94.91a1.12,1.12,0,0,0,.4.34Z"/><path class="ab613ae4-140d-44f4-81c6-d695fc1fd154" d="M283.43,366.91h0V356.15H259.32L251,351.33a8.28,8.28,0,0,0-7.47.31l-7.77,4.49-24.13,0v11.06a2.15,2.15,0,0,0,1.28,2l31.16,18c1.91,1.11,5.26,1,7.46-.3l30.1-17.38A3,3,0,0,0,283.43,366.91Z"/><path class="b4d28efd-3f1f-4ebd-91d6-7c3254cb3648" d="M247.52,350.59a8.6,8.6,0,0,0-4,1.05l-7.77,4.49-24.13,0v11.06a2.15,2.15,0,0,0,1.28,2l31.16,18a6.58,6.58,0,0,0,3.46.74Z"/><path class="b8f92737-3589-4f5a-806b-971e07bcc887" d="M214.35,356.11h-2.73v11.06a2.15,2.15,0,0,0,1.28,2l1.45.84Z"/><path class="b7ca1c54-81b6-4f37-87b4-0abf6b418b0f" d="M244.54,387.4a8.47,8.47,0,0,0,6-.07V374.77h-6Z"/><path class="a6b43cec-ab65-4cbf-98bf-6d19b5e40947" d="M244.06,376.15l-31.16-18c-1.92-1.1-1.68-3,.53-4.31l30.09-17.37a8.34,8.34,0,0,1,7.47-.31l31.16,18c1.91,1.11,1.67,3-.53,4.31l-30.1,17.38A8.32,8.32,0,0,1,244.06,376.15Z"/><path class="a6190a80-d5ce-4bad-bdb4-cf197eda956d" d="M281.62,356.35l-30.1,17.37a8.29,8.29,0,0,1-7.46.31L212.9,356a3,3,0,0,1-1-.85c-.65,1.06-.36,2.2,1,3l31.16,18a8.32,8.32,0,0,0,7.46-.31l30.1-17.38c1.71-1,2.23-2.37,1.49-3.46A4.22,4.22,0,0,1,281.62,356.35Z"/><path class="b8f92737-3589-4f5a-806b-971e07bcc887" d="M272,369.74a2.76,2.76,0,0,1-1.26,2.18c-.69.41-1.26.08-1.26-.72a2.78,2.78,0,0,1,1.26-2.18C271.41,368.62,272,368.94,272,369.74Z"/><path class="b8f92737-3589-4f5a-806b-971e07bcc887" d="M276,367.41a2.79,2.79,0,0,1-1.26,2.18c-.69.4-1.26.07-1.26-.73a2.8,2.8,0,0,1,1.26-2.18C275.46,366.28,276,366.6,276,367.41Z"/><path class="b8f92737-3589-4f5a-806b-971e07bcc887" d="M280.07,365.07a2.77,2.77,0,0,1-1.26,2.18c-.69.4-1.26.07-1.26-.73a2.8,2.8,0,0,1,1.26-2.18C279.51,363.94,280.07,364.27,280.07,365.07Z"/><path class="b7ca1c54-81b6-4f37-87b4-0abf6b418b0f" d="M245.9,365l-14.58-8.42c-.89-.52-.78-1.42.25-2l14.08-8.13a3.89,3.89,0,0,1,3.49-.14l14.59,8.42c.89.52.78,1.42-.25,2l-14.08,8.13A3.91,3.91,0,0,1,245.9,365Z"/><path class="b8f92737-3589-4f5a-806b-971e07bcc887" d="M247.3,357.94l-2-1.16c-.12-.08-.11-.2,0-.28l2-1.13a.54.54,0,0,1,.48,0l2,1.17c.12.07.1.19,0,.28l-1.95,1.12A.54.54,0,0,1,247.3,357.94Z"/><path class="ab613ae4-140d-44f4-81c6-d695fc1fd154" d="M231.32,356.57l0,0,.21-.14,14.08-8.13a3.86,3.86,0,0,1,3.49-.14l14.55,8.39c.82-.59.87-1.39,0-1.87l-14.59-8.42a3.89,3.89,0,0,0-3.49.14l-14.08,8.13C230.54,355.15,230.43,356.05,231.32,356.57Z"/><path class="e0fe4537-4997-4bc0-85e0-43d4f5b3bb54" d="M328.92,456.68l-31.17-18c-1.91-1.1-1.67-3,.54-4.3L328.38,417c2.21-1.27,5.55-1.41,7.46-.31l31.17,18c1.91,1.1,1.67,3-.54,4.3l-30.09,17.38C334.17,457.64,330.83,457.78,328.92,456.68Z"/><path class="a6190a80-d5ce-4bad-bdb4-cf197eda956d" d="M332.18,449.35a8.33,8.33,0,0,1-4.15-1l-31.16-18a4,4,0,0,1-2.18-3.4,4.76,4.76,0,0,1,2.71-4l30.1-17.38a10,10,0,0,1,9.23-.31l31.16,18a3.94,3.94,0,0,1,2.18,3.4,4.77,4.77,0,0,1-2.71,4l-30.09,17.37A10.31,10.31,0,0,1,332.18,449.35Zm-2.38-4.05a6.59,6.59,0,0,0,5.69-.31l30.1-17.38c.75-.43.93-.83.94-.9a1.1,1.1,0,0,0-.41-.34l-31.16-18a6.53,6.53,0,0,0-5.69.31l-30.1,17.37c-.75.44-.93.83-.94.91a1.28,1.28,0,0,0,.41.33Z"/><path class="ab613ae4-140d-44f4-81c6-d695fc1fd154" d="M368.29,415.68h0V404.93H344.18l-8.34-4.81c-1.91-1.11-5.25-1-7.46.3l-7.77,4.49H296.47V416a2.17,2.17,0,0,0,1.28,2l31.17,18c1.91,1.11,5.25,1,7.46-.31l30.09-17.37C367.75,417.52,368.36,416.57,368.29,415.68Z"/><path class="b9373e43-bd49-4522-b5a8-fac396741d9f" d="M332.38,399.37a8.59,8.59,0,0,0-4,1l-7.77,4.49H296.47V416a2.17,2.17,0,0,0,1.28,2l31.17,18a6.78,6.78,0,0,0,3.46.74Z"/><path class="b8f92737-3589-4f5a-806b-971e07bcc887" d="M299.2,404.89h-2.73V416a2.17,2.17,0,0,0,1.28,2l1.45.84Z"/><path class="b7ca1c54-81b6-4f37-87b4-0abf6b418b0f" d="M329.4,436.18a8.56,8.56,0,0,0,6-.07V423.55h-6Z"/><path class="a6266368-87f0-46b7-83f5-283ec8278509" d="M328.92,424.92l-31.17-18c-1.91-1.1-1.67-3,.54-4.31l30.09-17.37c2.21-1.28,5.55-1.42,7.46-.31l31.17,18c1.91,1.11,1.67,3-.54,4.31l-30.09,17.37C334.17,425.89,330.83,426,328.92,424.92Z"/><path class="a6190a80-d5ce-4bad-bdb4-cf197eda956d" d="M366.47,405.12,336.38,422.5c-2.21,1.27-5.55,1.41-7.46.31l-31.17-18a2.82,2.82,0,0,1-.95-.84c-.66,1-.36,2.2.95,3l31.17,18c1.91,1.11,5.25,1,7.46-.31l30.09-17.37c1.72-1,2.24-2.38,1.49-3.46A4.21,4.21,0,0,1,366.47,405.12Z"/><path class="b8f92737-3589-4f5a-806b-971e07bcc887" d="M356.83,418.52a2.8,2.8,0,0,1-1.26,2.18c-.7.4-1.26.08-1.26-.73a2.79,2.79,0,0,1,1.26-2.18C356.26,417.39,356.83,417.72,356.83,418.52Z"/><path class="b8f92737-3589-4f5a-806b-971e07bcc887" d="M360.88,416.18a2.78,2.78,0,0,1-1.26,2.18c-.7.4-1.26.08-1.26-.72a2.76,2.76,0,0,1,1.26-2.18C360.31,415.06,360.88,415.38,360.88,416.18Z"/><path class="b8f92737-3589-4f5a-806b-971e07bcc887" d="M364.93,413.85a2.82,2.82,0,0,1-1.26,2.18c-.7.4-1.26.07-1.26-.73a2.77,2.77,0,0,1,1.26-2.18C364.36,412.72,364.93,413,364.93,413.85Z"/><path class="b7ca1c54-81b6-4f37-87b4-0abf6b418b0f" d="M330.76,413.77l-14.58-8.42c-.9-.52-.79-1.42.25-2l14.08-8.13a3.86,3.86,0,0,1,3.49-.14l14.59,8.42c.89.51.78,1.42-.26,2l-14.08,8.13A3.89,3.89,0,0,1,330.76,413.77Z"/><path class="b8f92737-3589-4f5a-806b-971e07bcc887" d="M332.16,406.72l-2-1.17c-.12-.07-.11-.19,0-.28l1.95-1.12a.56.56,0,0,1,.49,0l2,1.16c.13.08.11.2,0,.28l-1.95,1.13A.54.54,0,0,1,332.16,406.72Z"/><path class="ab613ae4-140d-44f4-81c6-d695fc1fd154" d="M316.18,405.35l0,0a1.53,1.53,0,0,1,.21-.14l14.08-8.13A3.89,3.89,0,0,1,334,397l14.54,8.4c.83-.59.87-1.4,0-1.87L334,395.06a3.86,3.86,0,0,0-3.49.14l-14.08,8.13C315.39,403.93,315.28,404.83,316.18,405.35Z"/></svg>