<svg id="b9756e5c-b5e1-48b2-a461-d126a4877cb5" data-name="Ñëîé 1" xmlns="http://www.w3.org/2000/svg" viewBox="0 0 582.57 536.75"><defs><style>.b5194d61-542c-494c-b87a-2ba259dbce30{fill:#b3e0ff;}.a66b45f9-8ecc-4e52-91c4-94889fd928dc,.b0f6d06a-ab03-4cce-8c96-91e4e591383c{opacity:0.4;}.a66b45f9-8ecc-4e52-91c4-94889fd928dc,.a92a91ea-a3f7-43e0-b2fa-1ee8ad0a3646{fill:#d4ecff;}.e8f85592-5241-434e-a9a1-dc3e042f657d,.f8eff00d-2c2f-401c-893d-1efd72eefb6a{fill:#5793ce;}.ebd76b6c-2eb5-4a77-9104-44a1464d1e58{fill:#173d7a;}.b2ddcd38-5119-4132-af82-a8cf36c3c34d{fill:#fff;}.b0e1c372-1d26-4b38-9794-e576319f81ca{fill:#396caa;}.a629d5ee-f0bd-4ca7-901f-fb6a5e4015d0{fill:#fafdff;}.b231bcbe-c497-49b2-adfd-bba4c8c0e1aa{fill:#274f89;}.ace39a3d-5f66-44ec-83fc-7ee5853533d1,.edda61b9-28dc-494e-b0b2-7a1cd1afed81{fill:#ff2c9c;}.ace39a3d-5f66-44ec-83fc-7ee5853533d1{opacity:0.15;}.f672818f-557d-4571-b964-72a362eb5a05{fill:#d3008d;}.e8f85592-5241-434e-a9a1-dc3e042f657d{opacity:0.39;}</style></defs><path class="b5194d61-542c-494c-b87a-2ba259dbce30" d="M515.52,533.72,28.87,371.64c-33.28-11.08-39.29-55.57-10.14-75.08L453.2,5.66a50.06,50.06,0,0,1,72.69,38.05l56.25,436.52C586.93,517.37,550.74,546.42,515.52,533.72Z"/><g class="b0f6d06a-ab03-4cce-8c96-91e4e591383c"><path class="a92a91ea-a3f7-43e0-b2fa-1ee8ad0a3646" d="M248.16,330.63l-21.24-12.28c-8.85-5.11-8.85-13.42,0-18.53l19.31-11.15c4-2.28,4-6,0-8.28l-16.85-9.73c-8.84-5.11-8.84-13.42,0-18.52l21.12-12.2c8.85-5.11,23.24-5.11,32.09,0l13.61,7.83-8.87,5.12-13.61-7.83a15.91,15.91,0,0,0-14.35,0l-21.12,12.2c-3.95,2.28-3.95,6,0,8.28l16.85,9.73c8.84,5.1,8.84,13.42,0,18.52l-19.31,11.15c-4,2.28-4,6,0,8.29L257,325.51Z"/></g><path class="f8eff00d-2c2f-401c-893d-1efd72eefb6a" d="M220.53,299.35l-.24-.45V301h0c-.08,3.42,2.12,6.85,6.62,9.45l21.24,12.29L257,317.6l-21.24-12.29a6.34,6.34,0,0,1-2.52-2.42c-4.74-.33-8.42-2.79-11.8-5.85A9.06,9.06,0,0,0,220.53,299.35Z"/><path class="ebd76b6c-2eb5-4a77-9104-44a1464d1e58" d="M282.59,232c-8.85-5.11-23.24-5.11-32.09,0l-21.12,12.19a14.19,14.19,0,0,0-5.5,5.21c3.47,3.2,6.77,6.74,12.11,6.2-1.43-2.11-.68-4.59,2.26-6.29l21.12-12.19a15.85,15.85,0,0,1,14.35,0L287.33,245l8.87-5.12Z"/><path class="f8eff00d-2c2f-401c-893d-1efd72eefb6a" d="M258.56,269.93a17.51,17.51,0,0,0-3.46-2.58l-16.85-9.72a6.81,6.81,0,0,1-2.26-2c-5.34.54-8.64-3-12.11-6.2a9.06,9.06,0,0,0-.85,2.06l-.28-.33v2.27h0c0,3.37,2.19,6.75,6.63,9.32l16.85,9.72c2.59,1.5,3.47,3.61,2.67,5.53C252.4,277.1,255.15,272.8,258.56,269.93Z"/><path class="ebd76b6c-2eb5-4a77-9104-44a1464d1e58" d="M261.46,274.69a10.27,10.27,0,0,0-2.9-4.76c-3.41,2.87-6.16,7.17-9.66,8.07a6.09,6.09,0,0,1-2.67,2.76L226.92,291.9a14.4,14.4,0,0,0-5.45,5.14c3.38,3.06,7.06,5.52,11.8,5.85-1.06-2-.23-4.28,2.52-5.87l19.31-11.14c4.38-2.53,6.58-5.85,6.62-9.18h0v-2.34Z"/><path class="b2ddcd38-5119-4132-af82-a8cf36c3c34d" d="M229.38,260.39l16.85,9.73a5.33,5.33,0,0,1,2.93,3.67c.23-1.66-.75-3.35-2.93-4.62l-16.85-9.72c-4.21-2.44-6.4-5.6-6.59-8.79C222.57,254.17,224.75,257.72,229.38,260.39Z"/><path class="b2ddcd38-5119-4132-af82-a8cf36c3c34d" d="M248.16,319.42l-21.24-12.29c-4.22-2.43-6.4-5.59-6.6-8.79-.21,3.51,2,7.06,6.6,9.74l21.24,12.28,8.87-5.12-.82-.47Z"/><path class="b2ddcd38-5119-4132-af82-a8cf36c3c34d" d="M287.33,241.67l-13.61-7.82a15.85,15.85,0,0,0-14.35,0L238.25,246c-2.18,1.26-3.16,3-2.93,4.62a5.33,5.33,0,0,1,2.93-3.67l21.12-12.2a15.91,15.91,0,0,1,14.35,0l13.61,7.83,8.87-5.12-.82-.48Z"/><path class="b2ddcd38-5119-4132-af82-a8cf36c3c34d" d="M255.1,282.58l-19.31,11.15c-2.19,1.26-3.16,3-2.93,4.61a5.33,5.33,0,0,1,2.93-3.67l19.31-11.15c4.63-2.67,6.81-6.22,6.59-9.73C261.5,277,259.31,280.14,255.1,282.58Z"/><path class="a92a91ea-a3f7-43e0-b2fa-1ee8ad0a3646" d="M248.16,320.36l-21.24-12.28c-8.85-5.11-8.85-13.42,0-18.53l19.31-11.15c4-2.28,4-6,0-8.28l-16.85-9.73c-8.84-5.11-8.84-13.42,0-18.53l21.12-12.19c8.85-5.11,23.24-5.11,32.09,0l13.61,7.83-8.87,5.12-13.61-7.83a15.91,15.91,0,0,0-14.35,0L238.25,247c-3.95,2.28-3.95,6,0,8.28L255.1,265c8.84,5.1,8.84,13.41,0,18.52l-19.31,11.15c-4,2.28-4,6,0,8.29L257,315.24Z"/><path class="f8eff00d-2c2f-401c-893d-1efd72eefb6a" d="M258.81,313.5h0a1.35,1.35,0,0,0-1.52.07l-9.78,5.65a4.52,4.52,0,0,0-2,3.53A1.48,1.48,0,0,0,246,324l10.48,6.13,12.65-10.64Z"/><path class="f8eff00d-2c2f-401c-893d-1efd72eefb6a" d="M267.66,319.64l-9.77,5.64a4.49,4.49,0,0,0-2,3.53c0,1.3.91,1.82,2,1.18l9.77-5.65a4.49,4.49,0,0,0,2-3.53C269.7,319.51,268.79,319,267.66,319.64Z"/><path class="f8eff00d-2c2f-401c-893d-1efd72eefb6a" d="M286.11,228.19h0a1.37,1.37,0,0,0-1.52.08l-9.77,5.64a4.49,4.49,0,0,0-2,3.53,1.43,1.43,0,0,0,.53,1.26l10.48,6.13,12.65-10.64Z"/><path class="a66b45f9-8ecc-4e52-91c4-94889fd928dc" d="M333.14,305.45,282.36,276.5c-1.86-1.07-1.63-2.95.52-4.18l29.22-16.87a8,8,0,0,1,7.24-.3l50.78,29c1.86,1.07,1.63,2.95-.52,4.19l-29.22,16.86A8,8,0,0,1,333.14,305.45Z"/><path class="b0e1c372-1d26-4b38-9794-e576319f81ca" d="M374.65,274.35h0V155.81l-47.13-12.34-8.68-5c-2-1.15-5.47-1-7.77.32l-8.1,4.68-25.14,0,7.44,114.45a2.27,2.27,0,0,0,1.34,2.08l47,35.49c2,1.15,5.47,1,7.77-.33L372.76,277C374.08,276.27,374.72,275.28,374.65,274.35Z"/><path class="a92a91ea-a3f7-43e0-b2fa-1ee8ad0a3646" d="M315.23,137.69a8.88,8.88,0,0,0-4.16,1.09l-8.1,4.68-25.14,0V262.31a2.24,2.24,0,0,0,1.34,2.08l54.47,31.07a7.1,7.1,0,0,0,3.61.77l.56-119.61Z"/><path class="f8eff00d-2c2f-401c-893d-1efd72eefb6a" d="M334.14,295.7a8.8,8.8,0,0,0,6.21-.07V175.2h-6.21Z"/><path class="a92a91ea-a3f7-43e0-b2fa-1ee8ad0a3646" d="M333.64,176.63l-54.47-31.06c-2-1.15-1.75-3.16.55-4.49L311.07,123c2.3-1.32,5.78-1.47,7.77-.32l54.47,31.06c2,1.15,1.75,3.16-.55,4.49l-31.35,18.1C339.11,177.64,335.63,177.78,333.64,176.63Z"/><path class="a629d5ee-f0bd-4ca7-901f-fb6a5e4015d0" d="M372.76,156,341.41,174.1c-2.3,1.33-5.78,1.48-7.77.33l-54.47-31.07a2.82,2.82,0,0,1-1-.88c-.68,1.1-.37,2.3,1,3.09l54.47,31.06c2,1.15,5.47,1,7.77-.32l31.35-18.1c1.78-1,2.33-2.47,1.55-3.6A4.38,4.38,0,0,1,372.76,156Z"/><path class="ebd76b6c-2eb5-4a77-9104-44a1464d1e58" d="M335.18,164l-36.27-21c-.93-.54-.81-1.48.26-2.1l14.67-8.47a4,4,0,0,1,3.64-.15l36.27,21c.93.54.81,1.48-.26,2.1l-14.67,8.47A4,4,0,0,1,335.18,164Z"/><path class="a92a91ea-a3f7-43e0-b2fa-1ee8ad0a3646" d="M315.6,144l-2.1-1.21c-.13-.08-.11-.21,0-.29l2-1.17a.54.54,0,0,1,.51,0l2.1,1.21c.13.07.11.2,0,.29l-2,1.17A.52.52,0,0,1,315.6,144Z"/><path class="a92a91ea-a3f7-43e0-b2fa-1ee8ad0a3646" d="M322.62,148l-2.1-1.21c-.13-.08-.11-.21,0-.29l2-1.18a.59.59,0,0,1,.5,0l2.1,1.22c.13.07.11.2,0,.29l-2,1.17A.61.61,0,0,1,322.62,148Z"/><path class="a92a91ea-a3f7-43e0-b2fa-1ee8ad0a3646" d="M329.64,152l-2.1-1.22c-.13-.07-.11-.2,0-.29l2-1.17a.55.55,0,0,1,.5,0l2.1,1.21c.13.08.11.21,0,.29l-2,1.18A.61.61,0,0,1,329.64,152Z"/><path class="a92a91ea-a3f7-43e0-b2fa-1ee8ad0a3646" d="M336.66,156.07l-2.1-1.21c-.13-.07-.11-.2,0-.29l2-1.17a.52.52,0,0,1,.5,0l2.1,1.21c.13.07.12.2,0,.29l-2,1.17A.54.54,0,0,1,336.66,156.07Z"/><path class="f8eff00d-2c2f-401c-893d-1efd72eefb6a" d="M298.91,143l0,0,.21-.15,14.67-8.47a4.08,4.08,0,0,1,3.64-.15l36.22,21c.86-.61.91-1.45.05-2l-36.27-21a4,4,0,0,0-3.64.15l-14.67,8.47C298.1,141.54,298,142.48,298.91,143Z"/><path class="ebd76b6c-2eb5-4a77-9104-44a1464d1e58" d="M347.53,200.12l20.62-11.81a5,5,0,0,0,2.1-4v-7.38c0-1.55-.94-2.26-2.1-1.59l-20.62,11.81a5,5,0,0,0-2.1,4v7.38C345.43,200.08,346.37,200.79,347.53,200.12Z"/><path class="b2ddcd38-5119-4132-af82-a8cf36c3c34d" d="M369.17,175.11a2.05,2.05,0,0,1,.53,1.54V184a5,5,0,0,1-2.1,4L347,199.84a1.49,1.49,0,0,1-1,.22,1.24,1.24,0,0,0,1.57.06l20.62-11.81a5,5,0,0,0,2.1-4v-7.38C370.25,175.87,369.82,175.22,369.17,175.11Z"/><path class="b0e1c372-1d26-4b38-9794-e576319f81ca" d="M353.73,192.11l1.9-1.1a1.08,1.08,0,0,0,.45-.87v-2c0-.34-.2-.49-.45-.35l-1.9,1.09a1.11,1.11,0,0,0-.45.88v2C353.28,192.1,353.48,192.25,353.73,192.11Z"/><path class="b2ddcd38-5119-4132-af82-a8cf36c3c34d" d="M360.06,188.45l1.89-1.09a1.1,1.1,0,0,0,.46-.87v-2c0-.34-.21-.5-.46-.35l-1.89,1.09a1.12,1.12,0,0,0-.46.88v2C359.6,188.45,359.81,188.6,360.06,188.45Z"/><path class="ebd76b6c-2eb5-4a77-9104-44a1464d1e58" d="M347.53,253.4l20.62-11.8a5,5,0,0,0,2.1-4v-7.37c0-1.55-.94-2.26-2.1-1.59l-20.62,11.81a5,5,0,0,0-2.1,4v7.38C345.43,253.36,346.37,254.07,347.53,253.4Z"/><path class="b2ddcd38-5119-4132-af82-a8cf36c3c34d" d="M369.17,228.4a2,2,0,0,1,.53,1.53v7.38a5,5,0,0,1-2.1,4L347,253.13a1.55,1.55,0,0,1-1,.22,1.24,1.24,0,0,0,1.57.05l20.62-11.8a5,5,0,0,0,2.1-4v-7.37C370.25,229.16,369.82,228.51,369.17,228.4Z"/><path class="b0e1c372-1d26-4b38-9794-e576319f81ca" d="M353.73,245.39l1.9-1.09a1.09,1.09,0,0,0,.45-.87v-2c0-.34-.2-.5-.45-.35l-1.9,1.09a1.11,1.11,0,0,0-.45.88v2C353.28,245.38,353.48,245.54,353.73,245.39Z"/><path class="b2ddcd38-5119-4132-af82-a8cf36c3c34d" d="M360.06,241.74l1.89-1.09a1.11,1.11,0,0,0,.46-.87v-2c0-.33-.21-.49-.46-.34l-1.89,1.09a1.12,1.12,0,0,0-.46.88v2C359.6,241.73,359.81,241.89,360.06,241.74Z"/><path class="ebd76b6c-2eb5-4a77-9104-44a1464d1e58" d="M347.53,280.05l20.62-11.81a5,5,0,0,0,2.1-4v-7.38c0-1.54-.94-2.26-2.1-1.59l-20.62,11.81a5,5,0,0,0-2.1,4v7.37C345.43,280,346.37,280.72,347.53,280.05Z"/><path class="b2ddcd38-5119-4132-af82-a8cf36c3c34d" d="M369.17,255a2.05,2.05,0,0,1,.53,1.54V264a5,5,0,0,1-2.1,4L347,279.77a1.44,1.44,0,0,1-1,.22,1.24,1.24,0,0,0,1.57.06l20.62-11.81a5,5,0,0,0,2.1-4v-7.38C370.25,255.8,369.82,255.15,369.17,255Z"/><path class="b0e1c372-1d26-4b38-9794-e576319f81ca" d="M353.73,272l1.9-1.09a1.11,1.11,0,0,0,.45-.88v-2c0-.34-.2-.49-.45-.35l-1.9,1.1a1.08,1.08,0,0,0-.45.87v2C353.28,272,353.48,272.18,353.73,272Z"/><path class="b2ddcd38-5119-4132-af82-a8cf36c3c34d" d="M360.06,268.39l1.89-1.1a1.08,1.08,0,0,0,.46-.87v-2c0-.34-.21-.49-.46-.35l-1.89,1.09a1.12,1.12,0,0,0-.46.88v2C359.6,268.38,359.81,268.53,360.06,268.39Z"/><path class="ebd76b6c-2eb5-4a77-9104-44a1464d1e58" d="M347.53,226.76,368.15,215a5,5,0,0,0,2.1-4v-7.37c0-1.55-.94-2.26-2.1-1.59l-20.62,11.8a5,5,0,0,0-2.1,4v7.37C345.43,226.72,346.37,227.43,347.53,226.76Z"/><path class="b2ddcd38-5119-4132-af82-a8cf36c3c34d" d="M369.17,201.75a2.05,2.05,0,0,1,.53,1.54v7.37a5,5,0,0,1-2.1,4L347,226.48a1.5,1.5,0,0,1-1,.23,1.26,1.26,0,0,0,1.57,0L368.15,215a5,5,0,0,0,2.1-4v-7.37C370.25,202.52,369.82,201.86,369.17,201.75Z"/><path class="b0e1c372-1d26-4b38-9794-e576319f81ca" d="M353.73,218.75l1.9-1.09a1.11,1.11,0,0,0,.45-.88v-2c0-.33-.2-.49-.45-.34l-1.9,1.09a1.09,1.09,0,0,0-.45.87v2C353.28,218.74,353.48,218.9,353.73,218.75Z"/><path class="b2ddcd38-5119-4132-af82-a8cf36c3c34d" d="M360.06,215.1,362,214a1.12,1.12,0,0,0,.46-.88v-2c0-.34-.21-.49-.46-.35l-1.89,1.1a1.08,1.08,0,0,0-.46.87v2C359.6,215.09,359.81,215.24,360.06,215.1Z"/><path class="f8eff00d-2c2f-401c-893d-1efd72eefb6a" d="M329.67,192.57,282.1,165.1a4.59,4.59,0,0,1-1.93-3.68v-9.07c0-1.42.86-2.08,1.93-1.46l47.57,27.47A4.59,4.59,0,0,1,331.6,182v9.07C331.6,192.53,330.74,193.18,329.67,192.57Z"/><path class="a66b45f9-8ecc-4e52-91c4-94889fd928dc" d="M328.31,189.39,283.46,163.5a2.34,2.34,0,0,1-1-1.87v-6.82c0-.72.43-1.05,1-.74L328.31,180a2.34,2.34,0,0,1,1,1.87v6.82C329.28,189.37,328.85,189.7,328.31,189.39Z"/><path class="a92a91ea-a3f7-43e0-b2fa-1ee8ad0a3646" d="M292.81,165.45l-6.69-3.87a2.25,2.25,0,0,1-.95-1.81h0c0-.7.42-1,.95-.72l6.69,3.86a2.31,2.31,0,0,1,.95,1.82h0C293.76,165.43,293.33,165.75,292.81,165.45Z"/><path class="ebd76b6c-2eb5-4a77-9104-44a1464d1e58" d="M298.51,167.47c0,.7-.49,1-1.1.63a2.43,2.43,0,0,1-1.09-1.89c0-.7.49-1,1.09-.64A2.42,2.42,0,0,1,298.51,167.47Z"/><path class="ebd76b6c-2eb5-4a77-9104-44a1464d1e58" d="M302.38,169.71c0,.69-.49,1-1.1.63a2.43,2.43,0,0,1-1.09-1.9c0-.7.49-1,1.09-.63A2.42,2.42,0,0,1,302.38,169.71Z"/><path class="a92a91ea-a3f7-43e0-b2fa-1ee8ad0a3646" d="M306.25,171.94c0,.7-.49,1-1.1.63a2.43,2.43,0,0,1-1.09-1.9c0-.7.49-1,1.09-.63A2.42,2.42,0,0,1,306.25,171.94Z"/><path class="ebd76b6c-2eb5-4a77-9104-44a1464d1e58" d="M310.12,174.17c0,.7-.49,1-1.1.64a2.43,2.43,0,0,1-1.09-1.9c0-.7.49-1,1.09-.64A2.42,2.42,0,0,1,310.12,174.17Z"/><path class="ebd76b6c-2eb5-4a77-9104-44a1464d1e58" d="M326.42,185.59l-2.25-1.3a1.47,1.47,0,0,1-.61-1.17v-2.38c0-.45.27-.66.61-.46l2.25,1.3a1.45,1.45,0,0,1,.61,1.16v2.39C327,185.58,326.76,185.78,326.42,185.59Z"/><path class="f8eff00d-2c2f-401c-893d-1efd72eefb6a" d="M329.67,208.57,282.1,181.1a4.62,4.62,0,0,1-1.93-3.69v-9.07c0-1.42.86-2.07,1.93-1.45l47.57,27.46A4.62,4.62,0,0,1,331.6,198v9.07C331.6,208.53,330.74,209.18,329.67,208.57Z"/><path class="a66b45f9-8ecc-4e52-91c4-94889fd928dc" d="M328.31,205.38l-44.85-25.89a2.32,2.32,0,0,1-1-1.86v-6.82c0-.72.43-1.06,1-.74L328.31,196a2.32,2.32,0,0,1,1,1.87v6.82C329.28,205.37,328.85,205.7,328.31,205.38Z"/><path class="a92a91ea-a3f7-43e0-b2fa-1ee8ad0a3646" d="M292.81,181.44l-6.69-3.86a2.26,2.26,0,0,1-.95-1.82h0c0-.7.42-1,.95-.71l6.69,3.86a2.27,2.27,0,0,1,.95,1.81h0C293.76,181.42,293.33,181.75,292.81,181.44Z"/><path class="b2ddcd38-5119-4132-af82-a8cf36c3c34d" d="M298.51,183.47c0,.7-.49,1-1.1.63a2.43,2.43,0,0,1-1.09-1.9c0-.7.49-1,1.09-.63A2.42,2.42,0,0,1,298.51,183.47Z"/><path class="ebd76b6c-2eb5-4a77-9104-44a1464d1e58" d="M302.38,185.7c0,.7-.49,1-1.1.64a2.43,2.43,0,0,1-1.09-1.9c0-.7.49-1,1.09-.64A2.42,2.42,0,0,1,302.38,185.7Z"/><path class="a92a91ea-a3f7-43e0-b2fa-1ee8ad0a3646" d="M306.25,187.94c0,.7-.49,1-1.1.63a2.43,2.43,0,0,1-1.09-1.9c0-.7.49-1,1.09-.63A2.42,2.42,0,0,1,306.25,187.94Z"/><path class="ebd76b6c-2eb5-4a77-9104-44a1464d1e58" d="M310.12,190.17c0,.7-.49,1-1.1.63a2.43,2.43,0,0,1-1.09-1.9c0-.7.49-1,1.09-.63A2.42,2.42,0,0,1,310.12,190.17Z"/><path class="ebd76b6c-2eb5-4a77-9104-44a1464d1e58" d="M326.42,201.59l-2.25-1.3a1.47,1.47,0,0,1-.61-1.17v-2.38c0-.45.27-.66.61-.47l2.25,1.31a1.43,1.43,0,0,1,.61,1.16v2.39C327,201.57,326.76,201.78,326.42,201.59Z"/><path class="f8eff00d-2c2f-401c-893d-1efd72eefb6a" d="M329.67,224.56,282.1,197.1a4.62,4.62,0,0,1-1.93-3.69v-9.07c0-1.42.86-2.07,1.93-1.46l47.57,27.47A4.59,4.59,0,0,1,331.6,214v9.07C331.6,224.52,330.74,225.18,329.67,224.56Z"/><path class="a66b45f9-8ecc-4e52-91c4-94889fd928dc" d="M328.31,221.38l-44.85-25.89a2.34,2.34,0,0,1-1-1.87V186.8c0-.72.43-1.05,1-.74L328.31,212a2.35,2.35,0,0,1,1,1.87v6.82C329.28,221.36,328.85,221.69,328.31,221.38Z"/><path class="a92a91ea-a3f7-43e0-b2fa-1ee8ad0a3646" d="M292.81,197.44l-6.69-3.86a2.28,2.28,0,0,1-.95-1.82h0c0-.7.42-1,.95-.72l6.69,3.87a2.27,2.27,0,0,1,.95,1.81h0C293.76,197.42,293.33,197.74,292.81,197.44Z"/><path class="b2ddcd38-5119-4132-af82-a8cf36c3c34d" d="M298.51,199.47c0,.69-.49,1-1.1.63a2.43,2.43,0,0,1-1.09-1.9c0-.7.49-1,1.09-.63A2.42,2.42,0,0,1,298.51,199.47Z"/><path class="ebd76b6c-2eb5-4a77-9104-44a1464d1e58" d="M302.38,201.7c0,.7-.49,1-1.1.63a2.43,2.43,0,0,1-1.09-1.9c0-.7.49-1,1.09-.63A2.42,2.42,0,0,1,302.38,201.7Z"/><path class="a92a91ea-a3f7-43e0-b2fa-1ee8ad0a3646" d="M306.25,203.93c0,.7-.49,1-1.1.64a2.43,2.43,0,0,1-1.09-1.9c0-.7.49-1,1.09-.64A2.42,2.42,0,0,1,306.25,203.93Z"/><path class="ebd76b6c-2eb5-4a77-9104-44a1464d1e58" d="M310.12,206.17c0,.7-.49,1-1.1.63a2.43,2.43,0,0,1-1.09-1.9c0-.7.49-1,1.09-.63A2.42,2.42,0,0,1,310.12,206.17Z"/><path class="ebd76b6c-2eb5-4a77-9104-44a1464d1e58" d="M326.42,217.58l-2.25-1.3a1.43,1.43,0,0,1-.61-1.16v-2.39c0-.45.27-.65.61-.46l2.25,1.3a1.47,1.47,0,0,1,.61,1.17v2.38C327,217.57,326.76,217.78,326.42,217.58Z"/><path class="f8eff00d-2c2f-401c-893d-1efd72eefb6a" d="M329.67,240.56,282.1,213.09a4.59,4.59,0,0,1-1.93-3.68v-9.07c0-1.42.86-2.08,1.93-1.46l47.57,27.47A4.59,4.59,0,0,1,331.6,230v9.07C331.6,240.52,330.74,241.17,329.67,240.56Z"/><path class="a66b45f9-8ecc-4e52-91c4-94889fd928dc" d="M328.31,237.38l-44.85-25.89a2.34,2.34,0,0,1-1-1.87V202.8c0-.72.43-1.05,1-.74L328.31,228a2.34,2.34,0,0,1,1,1.87v6.82C329.28,237.36,328.85,237.69,328.31,237.38Z"/><path class="a92a91ea-a3f7-43e0-b2fa-1ee8ad0a3646" d="M292.81,213.44l-6.69-3.87a2.25,2.25,0,0,1-.95-1.81h0c0-.7.42-1,.95-.72l6.69,3.86a2.31,2.31,0,0,1,.95,1.82h0C293.76,213.42,293.33,213.74,292.81,213.44Z"/><path class="ebd76b6c-2eb5-4a77-9104-44a1464d1e58" d="M298.51,215.46c0,.7-.49,1-1.1.64a2.43,2.43,0,0,1-1.09-1.9c0-.7.49-1,1.09-.64A2.42,2.42,0,0,1,298.51,215.46Z"/><path class="ebd76b6c-2eb5-4a77-9104-44a1464d1e58" d="M302.38,217.7c0,.7-.49,1-1.1.63a2.43,2.43,0,0,1-1.09-1.9c0-.7.49-1,1.09-.63A2.42,2.42,0,0,1,302.38,217.7Z"/><path class="a92a91ea-a3f7-43e0-b2fa-1ee8ad0a3646" d="M306.25,219.93c0,.7-.49,1-1.1.63a2.43,2.43,0,0,1-1.09-1.9c0-.7.49-1,1.09-.63A2.42,2.42,0,0,1,306.25,219.93Z"/><path class="ebd76b6c-2eb5-4a77-9104-44a1464d1e58" d="M310.12,222.16c0,.7-.49,1-1.1.64a2.43,2.43,0,0,1-1.09-1.9c0-.7.49-1,1.09-.64A2.42,2.42,0,0,1,310.12,222.16Z"/><path class="a92a91ea-a3f7-43e0-b2fa-1ee8ad0a3646" d="M326.42,233.58l-2.25-1.3a1.47,1.47,0,0,1-.61-1.17v-2.38c0-.45.27-.66.61-.46l2.25,1.3a1.45,1.45,0,0,1,.61,1.16v2.39C327,233.57,326.76,233.77,326.42,233.58Z"/><path class="f8eff00d-2c2f-401c-893d-1efd72eefb6a" d="M329.67,256.56,282.1,229.09a4.62,4.62,0,0,1-1.93-3.68v-9.08c0-1.42.86-2.07,1.93-1.45l47.57,27.46A4.62,4.62,0,0,1,331.6,246v9.07C331.6,256.52,330.74,257.17,329.67,256.56Z"/><path class="a66b45f9-8ecc-4e52-91c4-94889fd928dc" d="M328.31,253.38l-44.85-25.89a2.35,2.35,0,0,1-1-1.87V218.8c0-.72.43-1.06,1-.74L328.31,244a2.34,2.34,0,0,1,1,1.87v6.82C329.28,253.36,328.85,253.69,328.31,253.38Z"/><path class="a92a91ea-a3f7-43e0-b2fa-1ee8ad0a3646" d="M292.81,229.43l-6.69-3.86a2.26,2.26,0,0,1-.95-1.82h0c0-.7.42-1,.95-.71l6.69,3.86a2.29,2.29,0,0,1,.95,1.81h0C293.76,229.41,293.33,229.74,292.81,229.43Z"/><path class="ebd76b6c-2eb5-4a77-9104-44a1464d1e58" d="M298.51,231.46c0,.7-.49,1-1.1.63a2.43,2.43,0,0,1-1.09-1.9c0-.7.49-1,1.09-.63A2.42,2.42,0,0,1,298.51,231.46Z"/><path class="b2ddcd38-5119-4132-af82-a8cf36c3c34d" d="M302.38,233.69c0,.7-.49,1-1.1.64a2.43,2.43,0,0,1-1.09-1.9c0-.7.49-1,1.09-.64A2.42,2.42,0,0,1,302.38,233.69Z"/><path class="a92a91ea-a3f7-43e0-b2fa-1ee8ad0a3646" d="M306.25,235.93c0,.7-.49,1-1.1.63a2.43,2.43,0,0,1-1.09-1.9c0-.7.49-1,1.09-.63A2.42,2.42,0,0,1,306.25,235.93Z"/><path class="b2ddcd38-5119-4132-af82-a8cf36c3c34d" d="M310.12,238.16c0,.7-.49,1-1.1.63a2.43,2.43,0,0,1-1.09-1.9c0-.69.49-1,1.09-.63A2.42,2.42,0,0,1,310.12,238.16Z"/><path class="a92a91ea-a3f7-43e0-b2fa-1ee8ad0a3646" d="M326.42,249.58l-2.25-1.3a1.47,1.47,0,0,1-.61-1.17v-2.38c0-.45.27-.66.61-.46l2.25,1.3a1.43,1.43,0,0,1,.61,1.16v2.39C327,249.57,326.76,249.77,326.42,249.58Z"/><path class="f8eff00d-2c2f-401c-893d-1efd72eefb6a" d="M329.67,272.55,282.1,245.09a4.62,4.62,0,0,1-1.93-3.69v-9.07c0-1.42.86-2.07,1.93-1.46l47.57,27.47A4.59,4.59,0,0,1,331.6,262v9.08C331.6,272.52,330.74,273.17,329.67,272.55Z"/><path class="a66b45f9-8ecc-4e52-91c4-94889fd928dc" d="M328.31,269.37l-44.85-25.89a2.34,2.34,0,0,1-1-1.87v-6.82c0-.72.43-1,1-.74l44.85,25.89a2.35,2.35,0,0,1,1,1.87v6.82C329.28,269.35,328.85,269.68,328.31,269.37Z"/><path class="a92a91ea-a3f7-43e0-b2fa-1ee8ad0a3646" d="M292.81,245.43l-6.69-3.86a2.28,2.28,0,0,1-.95-1.82h0c0-.7.42-1,.95-.72l6.69,3.87a2.27,2.27,0,0,1,.95,1.81h0C293.76,245.41,293.33,245.73,292.81,245.43Z"/><path class="ebd76b6c-2eb5-4a77-9104-44a1464d1e58" d="M298.51,247.46c0,.7-.49,1-1.1.63a2.43,2.43,0,0,1-1.09-1.9c0-.7.49-1,1.09-.63A2.42,2.42,0,0,1,298.51,247.46Z"/><path class="ebd76b6c-2eb5-4a77-9104-44a1464d1e58" d="M302.38,249.69c0,.7-.49,1-1.1.63a2.43,2.43,0,0,1-1.09-1.9c0-.7.49-1,1.09-.63A2.42,2.42,0,0,1,302.38,249.69Z"/><path class="a92a91ea-a3f7-43e0-b2fa-1ee8ad0a3646" d="M306.25,251.92c0,.7-.49,1-1.1.64a2.43,2.43,0,0,1-1.09-1.9c0-.7.49-1,1.09-.64A2.42,2.42,0,0,1,306.25,251.92Z"/><path class="ebd76b6c-2eb5-4a77-9104-44a1464d1e58" d="M310.12,254.16c0,.7-.49,1-1.1.63a2.43,2.43,0,0,1-1.09-1.9c0-.7.49-1,1.09-.63A2.42,2.42,0,0,1,310.12,254.16Z"/><path class="ebd76b6c-2eb5-4a77-9104-44a1464d1e58" d="M326.42,265.57l-2.25-1.3a1.43,1.43,0,0,1-.61-1.16v-2.39c0-.45.27-.65.61-.46l2.25,1.3a1.47,1.47,0,0,1,.61,1.17v2.38C327,265.56,326.76,265.77,326.42,265.57Z"/><path class="f8eff00d-2c2f-401c-893d-1efd72eefb6a" d="M329.67,288.55,282.1,261.08a4.59,4.59,0,0,1-1.93-3.68v-9.07c0-1.42.86-2.07,1.93-1.46l47.57,27.47A4.59,4.59,0,0,1,331.6,278v9.07C331.6,288.51,330.74,289.16,329.67,288.55Z"/><path class="a66b45f9-8ecc-4e52-91c4-94889fd928dc" d="M328.31,285.37l-44.85-25.89a2.34,2.34,0,0,1-1-1.87v-6.82c0-.72.43-1,1-.74l44.85,25.89a2.34,2.34,0,0,1,1,1.87v6.82C329.28,285.35,328.85,285.68,328.31,285.37Z"/><path class="a92a91ea-a3f7-43e0-b2fa-1ee8ad0a3646" d="M292.81,261.43l-6.69-3.87a2.25,2.25,0,0,1-.95-1.81h0c0-.7.42-1,.95-.72l6.69,3.86a2.31,2.31,0,0,1,.95,1.82h0C293.76,261.41,293.33,261.73,292.81,261.43Z"/><path class="b2ddcd38-5119-4132-af82-a8cf36c3c34d" d="M299.73,264.32c0,1.32-.92,1.86-2.07,1.19a4.57,4.57,0,0,1-2.07-3.58c0-1.32.93-1.86,2.07-1.2A4.57,4.57,0,0,1,299.73,264.32Z"/><path class="ebd76b6c-2eb5-4a77-9104-44a1464d1e58" d="M307.75,269c0,.7-.49,1-1.1.63a2.43,2.43,0,0,1-1.09-1.9c0-.7.49-1,1.09-.63A2.42,2.42,0,0,1,307.75,269Z"/><path class="a92a91ea-a3f7-43e0-b2fa-1ee8ad0a3646" d="M311.62,271.24c0,.7-.49,1-1.1.64a2.43,2.43,0,0,1-1.09-1.9c0-.7.49-1,1.09-.64A2.42,2.42,0,0,1,311.62,271.24Z"/><path class="ebd76b6c-2eb5-4a77-9104-44a1464d1e58" d="M315.49,273.48c0,.7-.49,1-1.1.63a2.44,2.44,0,0,1-1.1-1.9c0-.7.5-1,1.1-.63A2.42,2.42,0,0,1,315.49,273.48Z"/><path class="a92a91ea-a3f7-43e0-b2fa-1ee8ad0a3646" d="M326.42,281.57l-2.25-1.3a1.45,1.45,0,0,1-.61-1.16v-2.39c0-.45.27-.66.61-.46l2.25,1.3a1.47,1.47,0,0,1,.61,1.17v2.38C327,281.56,326.76,281.77,326.42,281.57Z"/><path class="a66b45f9-8ecc-4e52-91c4-94889fd928dc" d="M409.69,349.42l-50.78-28.95c-1.86-1.07-1.63-3,.52-4.18l29.22-16.87a8,8,0,0,1,7.24-.3l50.78,28.95c1.86,1.07,1.63,2.95-.52,4.19l-29.22,16.86A8,8,0,0,1,409.69,349.42Z"/><path class="b0e1c372-1d26-4b38-9794-e576319f81ca" d="M451.2,318.33h0V199.78l-47.13-12.34-8.68-5c-2-1.15-5.47-1-7.77.32l-8.1,4.68-25.14,0,7.44,114.45a2.27,2.27,0,0,0,1.34,2.08l47,35.49c2,1.15,5.47,1,7.77-.33L449.31,321C450.63,320.24,451.27,319.25,451.2,318.33Z"/><path class="a92a91ea-a3f7-43e0-b2fa-1ee8ad0a3646" d="M391.78,181.66a8.88,8.88,0,0,0-4.16,1.09l-8.1,4.68-25.14,0V306.28a2.24,2.24,0,0,0,1.34,2.08l54.47,31.07a7.1,7.1,0,0,0,3.61.77l.56-119.61Z"/><path class="f8eff00d-2c2f-401c-893d-1efd72eefb6a" d="M410.69,339.67a8.8,8.8,0,0,0,6.21-.07V219.17h-6.21Z"/><path class="a92a91ea-a3f7-43e0-b2fa-1ee8ad0a3646" d="M410.19,220.6l-54.47-31.06c-2-1.15-1.75-3.16.55-4.49L387.62,167c2.3-1.32,5.78-1.47,7.77-.32l54.47,31.06c2,1.15,1.75,3.16-.55,4.49L418,220.28C415.66,221.61,412.18,221.75,410.19,220.6Z"/><path class="a629d5ee-f0bd-4ca7-901f-fb6a5e4015d0" d="M449.31,200,418,218.07c-2.3,1.33-5.78,1.48-7.77.33l-54.47-31.07a2.91,2.91,0,0,1-1-.88c-.68,1.1-.37,2.3,1,3.09l54.47,31.06c2,1.15,5.47,1,7.77-.32l31.35-18.1c1.78-1,2.33-2.47,1.55-3.6A4.38,4.38,0,0,1,449.31,200Z"/><path class="ebd76b6c-2eb5-4a77-9104-44a1464d1e58" d="M411.73,208l-36.27-21c-.93-.54-.81-1.48.26-2.1l14.67-8.47a4,4,0,0,1,3.64-.15l36.27,21c.93.54.81,1.48-.26,2.1l-14.67,8.47A4,4,0,0,1,411.73,208Z"/><path class="a92a91ea-a3f7-43e0-b2fa-1ee8ad0a3646" d="M392.15,187.93l-2.1-1.21c-.13-.08-.11-.21,0-.29l2-1.17a.52.52,0,0,1,.5,0l2.1,1.21c.13.07.11.2,0,.29l-2,1.17A.52.52,0,0,1,392.15,187.93Z"/><path class="a92a91ea-a3f7-43e0-b2fa-1ee8ad0a3646" d="M399.17,192l-2.1-1.21c-.13-.08-.11-.21,0-.29l2-1.18a.59.59,0,0,1,.5,0l2.1,1.22c.13.07.11.2,0,.29l-2,1.17A.61.61,0,0,1,399.17,192Z"/><path class="a92a91ea-a3f7-43e0-b2fa-1ee8ad0a3646" d="M406.19,196l-2.1-1.22c-.13-.07-.11-.2,0-.29l2-1.17a.55.55,0,0,1,.5,0l2.1,1.21c.13.08.12.21,0,.29l-2,1.18A.61.61,0,0,1,406.19,196Z"/><path class="a92a91ea-a3f7-43e0-b2fa-1ee8ad0a3646" d="M413.21,200l-2.1-1.21c-.13-.07-.11-.2,0-.29l2-1.17a.52.52,0,0,1,.5,0l2.1,1.21c.13.07.12.2,0,.29l-2,1.17A.54.54,0,0,1,413.21,200Z"/><path class="f8eff00d-2c2f-401c-893d-1efd72eefb6a" d="M375.46,187l.05,0,.21-.15,14.67-8.47a4.08,4.08,0,0,1,3.64-.15l36.22,21c.86-.61.91-1.45.05-2l-36.27-21a4,4,0,0,0-3.64.15l-14.67,8.47C374.65,185.51,374.53,186.45,375.46,187Z"/><path class="ebd76b6c-2eb5-4a77-9104-44a1464d1e58" d="M424.08,244.09l20.62-11.81a5,5,0,0,0,2.1-4v-7.38c0-1.55-.94-2.26-2.1-1.59l-20.62,11.81a5,5,0,0,0-2.1,4v7.38C422,244.05,422.92,244.76,424.08,244.09Z"/><path class="b2ddcd38-5119-4132-af82-a8cf36c3c34d" d="M445.72,219.08a2.05,2.05,0,0,1,.53,1.54V228a5,5,0,0,1-2.1,4l-20.62,11.81a1.49,1.49,0,0,1-1,.22,1.24,1.24,0,0,0,1.57.06l20.62-11.81a5,5,0,0,0,2.1-4v-7.38C446.8,219.84,446.37,219.19,445.72,219.08Z"/><path class="b0e1c372-1d26-4b38-9794-e576319f81ca" d="M430.29,236.08l1.89-1.1a1.08,1.08,0,0,0,.45-.87v-2c0-.34-.2-.49-.45-.35l-1.89,1.09a1.09,1.09,0,0,0-.46.88v2C429.83,236.07,430,236.22,430.29,236.08Z"/><path class="b2ddcd38-5119-4132-af82-a8cf36c3c34d" d="M436.61,232.42l1.89-1.09a1.1,1.1,0,0,0,.46-.87v-2c0-.34-.21-.5-.46-.35l-1.89,1.09a1.12,1.12,0,0,0-.46.88v2C436.15,232.42,436.36,232.57,436.61,232.42Z"/><path class="ebd76b6c-2eb5-4a77-9104-44a1464d1e58" d="M424.08,297.37l20.62-11.8a5,5,0,0,0,2.1-4v-7.37c0-1.55-.94-2.26-2.1-1.59L424.08,284.4a5,5,0,0,0-2.1,4v7.38C422,297.33,422.92,298,424.08,297.37Z"/><path class="b2ddcd38-5119-4132-af82-a8cf36c3c34d" d="M445.72,272.37a2,2,0,0,1,.53,1.53v7.38a5,5,0,0,1-2.1,4L423.53,297.1a1.55,1.55,0,0,1-1,.22,1.24,1.24,0,0,0,1.57.05l20.62-11.8a5,5,0,0,0,2.1-4v-7.37C446.8,273.13,446.37,272.48,445.72,272.37Z"/><path class="b0e1c372-1d26-4b38-9794-e576319f81ca" d="M430.29,289.36l1.89-1.09a1.09,1.09,0,0,0,.45-.87v-2c0-.34-.2-.5-.45-.35l-1.89,1.09a1.09,1.09,0,0,0-.46.88v2C429.83,289.35,430,289.51,430.29,289.36Z"/><path class="b2ddcd38-5119-4132-af82-a8cf36c3c34d" d="M436.61,285.71l1.89-1.09a1.11,1.11,0,0,0,.46-.87v-2c0-.33-.21-.49-.46-.34l-1.89,1.09a1.12,1.12,0,0,0-.46.88v2C436.15,285.7,436.36,285.86,436.61,285.71Z"/><path class="ebd76b6c-2eb5-4a77-9104-44a1464d1e58" d="M424.08,324l20.62-11.81a5,5,0,0,0,2.1-4v-7.38c0-1.54-.94-2.26-2.1-1.59L424.08,311a5,5,0,0,0-2.1,4v7.37C422,324,422.92,324.69,424.08,324Z"/><path class="b2ddcd38-5119-4132-af82-a8cf36c3c34d" d="M445.72,299a2.05,2.05,0,0,1,.53,1.54v7.37a5,5,0,0,1-2.1,4l-20.62,11.8a1.44,1.44,0,0,1-1,.22,1.24,1.24,0,0,0,1.57.06l20.62-11.81a5,5,0,0,0,2.1-4v-7.38C446.8,299.77,446.37,299.12,445.72,299Z"/><path class="b0e1c372-1d26-4b38-9794-e576319f81ca" d="M430.29,316l1.89-1.09a1.11,1.11,0,0,0,.45-.88v-2c0-.34-.2-.49-.45-.35l-1.89,1.1a1.06,1.06,0,0,0-.46.87v2C429.83,316,430,316.15,430.29,316Z"/><path class="b2ddcd38-5119-4132-af82-a8cf36c3c34d" d="M436.61,312.36l1.89-1.1a1.08,1.08,0,0,0,.46-.87v-2c0-.34-.21-.49-.46-.35l-1.89,1.09a1.12,1.12,0,0,0-.46.88v2C436.15,312.35,436.36,312.5,436.61,312.36Z"/><path class="ebd76b6c-2eb5-4a77-9104-44a1464d1e58" d="M424.08,270.73l20.62-11.81a5,5,0,0,0,2.1-4v-7.37c0-1.55-.94-2.26-2.1-1.59l-20.62,11.8a5,5,0,0,0-2.1,4v7.37C422,270.69,422.92,271.4,424.08,270.73Z"/><path class="b2ddcd38-5119-4132-af82-a8cf36c3c34d" d="M445.72,245.72a2.05,2.05,0,0,1,.53,1.54v7.37a5,5,0,0,1-2.1,4l-20.62,11.8a1.5,1.5,0,0,1-1,.23,1.26,1.26,0,0,0,1.57.05l20.62-11.81a5,5,0,0,0,2.1-4v-7.37C446.8,246.49,446.37,245.83,445.72,245.72Z"/><path class="b0e1c372-1d26-4b38-9794-e576319f81ca" d="M430.29,262.72l1.89-1.09a1.11,1.11,0,0,0,.45-.88v-2c0-.33-.2-.49-.45-.34l-1.89,1.09a1.07,1.07,0,0,0-.46.87v2C429.83,262.71,430,262.87,430.29,262.72Z"/><path class="b2ddcd38-5119-4132-af82-a8cf36c3c34d" d="M436.61,259.07,438.5,258a1.12,1.12,0,0,0,.46-.88v-2c0-.34-.21-.49-.46-.35l-1.89,1.1a1.08,1.08,0,0,0-.46.87v2C436.15,259.06,436.36,259.21,436.61,259.07Z"/><path class="f8eff00d-2c2f-401c-893d-1efd72eefb6a" d="M406.22,236.54l-47.57-27.47a4.59,4.59,0,0,1-1.93-3.68v-9.07c0-1.42.86-2.08,1.93-1.46l47.57,27.47a4.59,4.59,0,0,1,1.93,3.68v9.07C408.15,236.5,407.29,237.15,406.22,236.54Z"/><path class="a66b45f9-8ecc-4e52-91c4-94889fd928dc" d="M404.86,233.36,360,207.47a2.34,2.34,0,0,1-1-1.87v-6.82c0-.72.43-1.05,1-.74l44.85,25.89a2.34,2.34,0,0,1,1,1.87v6.82C405.84,233.34,405.4,233.67,404.86,233.36Z"/><path class="a92a91ea-a3f7-43e0-b2fa-1ee8ad0a3646" d="M369.36,209.42l-6.69-3.87a2.25,2.25,0,0,1-.95-1.81h0c0-.7.42-1,.95-.72l6.69,3.86a2.31,2.31,0,0,1,.95,1.82h0C370.31,209.4,369.88,209.72,369.36,209.42Z"/><path class="ebd76b6c-2eb5-4a77-9104-44a1464d1e58" d="M375.06,211.44c0,.7-.49,1-1.09.63a2.41,2.41,0,0,1-1.1-1.89c0-.7.49-1,1.1-.64A2.43,2.43,0,0,1,375.06,211.44Z"/><path class="ebd76b6c-2eb5-4a77-9104-44a1464d1e58" d="M378.93,213.68c0,.7-.49,1-1.1.63a2.43,2.43,0,0,1-1.09-1.9c0-.7.49-1,1.09-.63A2.42,2.42,0,0,1,378.93,213.68Z"/><path class="a92a91ea-a3f7-43e0-b2fa-1ee8ad0a3646" d="M382.8,215.91c0,.7-.49,1-1.1.63a2.43,2.43,0,0,1-1.09-1.9c0-.7.49-1,1.09-.63A2.42,2.42,0,0,1,382.8,215.91Z"/><path class="ebd76b6c-2eb5-4a77-9104-44a1464d1e58" d="M386.67,218.14c0,.7-.49,1-1.1.64a2.43,2.43,0,0,1-1.09-1.9c0-.7.49-1,1.09-.64A2.42,2.42,0,0,1,386.67,218.14Z"/><path class="ebd76b6c-2eb5-4a77-9104-44a1464d1e58" d="M403,229.56l-2.25-1.3a1.47,1.47,0,0,1-.61-1.17v-2.38c0-.45.27-.66.61-.46l2.25,1.3a1.45,1.45,0,0,1,.61,1.16v2.39C403.58,229.55,403.31,229.75,403,229.56Z"/><path class="f8eff00d-2c2f-401c-893d-1efd72eefb6a" d="M406.22,252.54l-47.57-27.47a4.62,4.62,0,0,1-1.93-3.69v-9.07c0-1.42.86-2.07,1.93-1.45l47.57,27.46a4.62,4.62,0,0,1,1.93,3.69v9.07C408.15,252.5,407.29,253.15,406.22,252.54Z"/><path class="a66b45f9-8ecc-4e52-91c4-94889fd928dc" d="M404.86,249.35,360,223.46a2.32,2.32,0,0,1-1-1.86v-6.82c0-.72.43-1.06,1-.74l44.85,25.89a2.33,2.33,0,0,1,1,1.87v6.82C405.84,249.34,405.4,249.67,404.86,249.35Z"/><path class="a92a91ea-a3f7-43e0-b2fa-1ee8ad0a3646" d="M369.36,225.41l-6.69-3.86a2.26,2.26,0,0,1-.95-1.82h0c0-.7.42-1,.95-.71l6.69,3.86a2.27,2.27,0,0,1,.95,1.81h0C370.31,225.39,369.88,225.72,369.36,225.41Z"/><path class="b2ddcd38-5119-4132-af82-a8cf36c3c34d" d="M375.06,227.44c0,.7-.49,1-1.09.63a2.42,2.42,0,0,1-1.1-1.9c0-.7.49-1,1.1-.63A2.43,2.43,0,0,1,375.06,227.44Z"/><path class="ebd76b6c-2eb5-4a77-9104-44a1464d1e58" d="M378.93,229.67c0,.7-.49,1-1.1.64a2.43,2.43,0,0,1-1.09-1.9c0-.7.49-1,1.09-.64A2.42,2.42,0,0,1,378.93,229.67Z"/><path class="a92a91ea-a3f7-43e0-b2fa-1ee8ad0a3646" d="M382.8,231.91c0,.7-.49,1-1.1.63a2.43,2.43,0,0,1-1.09-1.9c0-.7.49-1,1.09-.63A2.42,2.42,0,0,1,382.8,231.91Z"/><path class="ebd76b6c-2eb5-4a77-9104-44a1464d1e58" d="M386.67,234.14c0,.7-.49,1-1.1.63a2.43,2.43,0,0,1-1.09-1.9c0-.7.49-1,1.09-.63A2.42,2.42,0,0,1,386.67,234.14Z"/><path class="ebd76b6c-2eb5-4a77-9104-44a1464d1e58" d="M403,245.56l-2.25-1.3a1.47,1.47,0,0,1-.61-1.17v-2.38c0-.45.27-.66.61-.47l2.25,1.31a1.43,1.43,0,0,1,.61,1.16v2.39C403.58,245.54,403.31,245.75,403,245.56Z"/><path class="f8eff00d-2c2f-401c-893d-1efd72eefb6a" d="M406.22,268.53l-47.57-27.46a4.62,4.62,0,0,1-1.93-3.69v-9.07c0-1.42.86-2.07,1.93-1.46l47.57,27.47a4.59,4.59,0,0,1,1.93,3.68v9.07C408.15,268.49,407.29,269.15,406.22,268.53Z"/><path class="a66b45f9-8ecc-4e52-91c4-94889fd928dc" d="M404.86,265.35,360,239.46a2.34,2.34,0,0,1-1-1.87v-6.82c0-.72.43-1.05,1-.74l44.85,25.89a2.36,2.36,0,0,1,1,1.87v6.82C405.84,265.33,405.4,265.66,404.86,265.35Z"/><path class="a92a91ea-a3f7-43e0-b2fa-1ee8ad0a3646" d="M369.36,241.41l-6.69-3.86a2.28,2.28,0,0,1-.95-1.82h0c0-.7.42-1,.95-.72l6.69,3.87a2.27,2.27,0,0,1,.95,1.81h0C370.31,241.39,369.88,241.71,369.36,241.41Z"/><path class="b2ddcd38-5119-4132-af82-a8cf36c3c34d" d="M375.06,243.44c0,.69-.49,1-1.09.63a2.42,2.42,0,0,1-1.1-1.9c0-.7.49-1,1.1-.63A2.43,2.43,0,0,1,375.06,243.44Z"/><path class="ebd76b6c-2eb5-4a77-9104-44a1464d1e58" d="M378.93,245.67c0,.7-.49,1-1.1.63a2.43,2.43,0,0,1-1.09-1.9c0-.7.49-1,1.09-.63A2.42,2.42,0,0,1,378.93,245.67Z"/><path class="a92a91ea-a3f7-43e0-b2fa-1ee8ad0a3646" d="M382.8,247.9c0,.7-.49,1-1.1.64a2.43,2.43,0,0,1-1.09-1.9c0-.7.49-1,1.09-.64A2.42,2.42,0,0,1,382.8,247.9Z"/><path class="ebd76b6c-2eb5-4a77-9104-44a1464d1e58" d="M386.67,250.14c0,.7-.49,1-1.1.63a2.43,2.43,0,0,1-1.09-1.9c0-.7.49-1,1.09-.63A2.42,2.42,0,0,1,386.67,250.14Z"/><path class="ebd76b6c-2eb5-4a77-9104-44a1464d1e58" d="M403,261.55l-2.25-1.3a1.43,1.43,0,0,1-.61-1.16V256.7c0-.45.27-.65.61-.46l2.25,1.3a1.47,1.47,0,0,1,.61,1.17v2.38C403.58,261.54,403.31,261.75,403,261.55Z"/><path class="f8eff00d-2c2f-401c-893d-1efd72eefb6a" d="M406.22,284.53l-47.57-27.47a4.59,4.59,0,0,1-1.93-3.68v-9.07c0-1.42.86-2.08,1.93-1.46l47.57,27.47a4.59,4.59,0,0,1,1.93,3.68v9.07C408.15,284.49,407.29,285.14,406.22,284.53Z"/><path class="a66b45f9-8ecc-4e52-91c4-94889fd928dc" d="M404.86,281.35,360,255.46a2.34,2.34,0,0,1-1-1.87v-6.82c0-.72.43-1.05,1-.74l44.85,25.89a2.34,2.34,0,0,1,1,1.87v6.82C405.84,281.33,405.4,281.66,404.86,281.35Z"/><path class="a92a91ea-a3f7-43e0-b2fa-1ee8ad0a3646" d="M369.36,257.41l-6.69-3.87a2.25,2.25,0,0,1-.95-1.81h0c0-.7.42-1,.95-.72l6.69,3.86a2.31,2.31,0,0,1,.95,1.82h0C370.31,257.39,369.88,257.71,369.36,257.41Z"/><path class="ebd76b6c-2eb5-4a77-9104-44a1464d1e58" d="M375.06,259.43c0,.7-.49,1-1.09.64a2.42,2.42,0,0,1-1.1-1.9c0-.7.49-1,1.1-.64A2.43,2.43,0,0,1,375.06,259.43Z"/><path class="ebd76b6c-2eb5-4a77-9104-44a1464d1e58" d="M378.93,261.67c0,.7-.49,1-1.1.63a2.43,2.43,0,0,1-1.09-1.9c0-.7.49-1,1.09-.63A2.42,2.42,0,0,1,378.93,261.67Z"/><path class="a92a91ea-a3f7-43e0-b2fa-1ee8ad0a3646" d="M382.8,263.9c0,.7-.49,1-1.1.63a2.43,2.43,0,0,1-1.09-1.9c0-.7.49-1,1.09-.63A2.42,2.42,0,0,1,382.8,263.9Z"/><path class="ebd76b6c-2eb5-4a77-9104-44a1464d1e58" d="M386.67,266.13c0,.7-.49,1-1.1.64a2.43,2.43,0,0,1-1.09-1.9c0-.7.49-1,1.09-.64A2.42,2.42,0,0,1,386.67,266.13Z"/><path class="a92a91ea-a3f7-43e0-b2fa-1ee8ad0a3646" d="M403,277.55l-2.25-1.3a1.47,1.47,0,0,1-.61-1.17V272.7c0-.45.27-.66.61-.46l2.25,1.3a1.45,1.45,0,0,1,.61,1.16v2.39C403.58,277.54,403.31,277.74,403,277.55Z"/><path class="f8eff00d-2c2f-401c-893d-1efd72eefb6a" d="M406.22,300.53l-47.57-27.47a4.6,4.6,0,0,1-1.93-3.68V260.3c0-1.42.86-2.07,1.93-1.45l47.57,27.46a4.62,4.62,0,0,1,1.93,3.69v9.07C408.15,300.49,407.29,301.14,406.22,300.53Z"/><path class="a66b45f9-8ecc-4e52-91c4-94889fd928dc" d="M404.86,297.35,360,271.46a2.35,2.35,0,0,1-1-1.87v-6.82c0-.72.43-1,1-.74l44.85,25.89a2.34,2.34,0,0,1,1,1.87v6.82C405.84,297.33,405.4,297.66,404.86,297.35Z"/><path class="a92a91ea-a3f7-43e0-b2fa-1ee8ad0a3646" d="M369.36,273.4l-6.69-3.86a2.26,2.26,0,0,1-.95-1.82h0c0-.7.42-1,.95-.71l6.69,3.86a2.29,2.29,0,0,1,.95,1.81h0C370.31,273.38,369.88,273.71,369.36,273.4Z"/><path class="ebd76b6c-2eb5-4a77-9104-44a1464d1e58" d="M375.06,275.43c0,.7-.49,1-1.09.63a2.42,2.42,0,0,1-1.1-1.9c0-.7.49-1,1.1-.63A2.43,2.43,0,0,1,375.06,275.43Z"/><path class="b2ddcd38-5119-4132-af82-a8cf36c3c34d" d="M378.93,277.66c0,.7-.49,1-1.1.64a2.43,2.43,0,0,1-1.09-1.9c0-.7.49-1,1.09-.64A2.42,2.42,0,0,1,378.93,277.66Z"/><path class="a92a91ea-a3f7-43e0-b2fa-1ee8ad0a3646" d="M382.8,279.9c0,.7-.49,1-1.1.63a2.43,2.43,0,0,1-1.09-1.9c0-.7.49-1,1.09-.63A2.42,2.42,0,0,1,382.8,279.9Z"/><path class="b2ddcd38-5119-4132-af82-a8cf36c3c34d" d="M386.67,282.13c0,.7-.49,1-1.1.63a2.43,2.43,0,0,1-1.09-1.9c0-.69.49-1,1.09-.63A2.42,2.42,0,0,1,386.67,282.13Z"/><path class="a92a91ea-a3f7-43e0-b2fa-1ee8ad0a3646" d="M403,293.55l-2.25-1.3a1.47,1.47,0,0,1-.61-1.17V288.7c0-.45.27-.66.61-.46l2.25,1.3a1.43,1.43,0,0,1,.61,1.16v2.39C403.58,293.54,403.31,293.74,403,293.55Z"/><path class="f8eff00d-2c2f-401c-893d-1efd72eefb6a" d="M406.22,316.52l-47.57-27.46a4.62,4.62,0,0,1-1.93-3.69V276.3c0-1.42.86-2.07,1.93-1.46l47.57,27.47a4.59,4.59,0,0,1,1.93,3.68v9.08C408.15,316.49,407.29,317.14,406.22,316.52Z"/><path class="a66b45f9-8ecc-4e52-91c4-94889fd928dc" d="M404.86,313.34,360,287.45a2.34,2.34,0,0,1-1-1.87v-6.82c0-.72.43-1.05,1-.74l44.85,25.89a2.36,2.36,0,0,1,1,1.87v6.82C405.84,313.32,405.4,313.65,404.86,313.34Z"/><path class="a92a91ea-a3f7-43e0-b2fa-1ee8ad0a3646" d="M369.36,289.4l-6.69-3.86a2.28,2.28,0,0,1-.95-1.82h0c0-.7.42-1,.95-.72l6.69,3.87a2.27,2.27,0,0,1,.95,1.81h0C370.31,289.38,369.88,289.7,369.36,289.4Z"/><path class="ebd76b6c-2eb5-4a77-9104-44a1464d1e58" d="M375.06,291.43c0,.7-.49,1-1.09.63a2.42,2.42,0,0,1-1.1-1.9c0-.7.49-1,1.1-.63A2.43,2.43,0,0,1,375.06,291.43Z"/><path class="ebd76b6c-2eb5-4a77-9104-44a1464d1e58" d="M378.93,293.66c0,.7-.49,1-1.1.63a2.43,2.43,0,0,1-1.09-1.9c0-.7.49-1,1.09-.63A2.42,2.42,0,0,1,378.93,293.66Z"/><path class="a92a91ea-a3f7-43e0-b2fa-1ee8ad0a3646" d="M382.8,295.89c0,.7-.49,1-1.1.64a2.43,2.43,0,0,1-1.09-1.9c0-.7.49-1,1.09-.64A2.42,2.42,0,0,1,382.8,295.89Z"/><path class="ebd76b6c-2eb5-4a77-9104-44a1464d1e58" d="M386.67,298.13c0,.7-.49,1-1.1.63a2.43,2.43,0,0,1-1.09-1.9c0-.7.49-1,1.09-.63A2.42,2.42,0,0,1,386.67,298.13Z"/><path class="ebd76b6c-2eb5-4a77-9104-44a1464d1e58" d="M403,309.54l-2.25-1.3a1.43,1.43,0,0,1-.61-1.16v-2.39c0-.45.27-.65.61-.46l2.25,1.3a1.47,1.47,0,0,1,.61,1.17v2.38C403.58,309.53,403.31,309.74,403,309.54Z"/><path class="f8eff00d-2c2f-401c-893d-1efd72eefb6a" d="M406.22,332.52l-47.57-27.47a4.59,4.59,0,0,1-1.93-3.68V292.3c0-1.42.86-2.07,1.93-1.46l47.57,27.47a4.59,4.59,0,0,1,1.93,3.68v9.07C408.15,332.48,407.29,333.13,406.22,332.52Z"/><path class="a66b45f9-8ecc-4e52-91c4-94889fd928dc" d="M404.86,329.34,360,303.45a2.34,2.34,0,0,1-1-1.87v-6.82c0-.72.43-1.05,1-.74l44.85,25.89a2.34,2.34,0,0,1,1,1.87v6.82C405.84,329.32,405.4,329.65,404.86,329.34Z"/><path class="a92a91ea-a3f7-43e0-b2fa-1ee8ad0a3646" d="M369.36,305.4l-6.69-3.87a2.25,2.25,0,0,1-.95-1.81h0c0-.7.42-1,.95-.72l6.69,3.86a2.31,2.31,0,0,1,.95,1.82h0C370.31,305.38,369.88,305.7,369.36,305.4Z"/><path class="b2ddcd38-5119-4132-af82-a8cf36c3c34d" d="M376.28,308.29c0,1.32-.92,1.86-2.07,1.19a4.57,4.57,0,0,1-2.07-3.58c0-1.32.93-1.86,2.07-1.2A4.57,4.57,0,0,1,376.28,308.29Z"/><path class="ebd76b6c-2eb5-4a77-9104-44a1464d1e58" d="M384.3,313c0,.7-.49,1-1.1.63a2.43,2.43,0,0,1-1.09-1.9c0-.7.49-1,1.09-.63A2.42,2.42,0,0,1,384.3,313Z"/><path class="a92a91ea-a3f7-43e0-b2fa-1ee8ad0a3646" d="M388.17,315.21c0,.7-.49,1-1.1.64A2.43,2.43,0,0,1,386,314c0-.7.49-1,1.09-.64A2.42,2.42,0,0,1,388.17,315.21Z"/><path class="ebd76b6c-2eb5-4a77-9104-44a1464d1e58" d="M392,317.45c0,.7-.49,1-1.1.63a2.44,2.44,0,0,1-1.1-1.9c0-.7.5-1,1.1-.63A2.42,2.42,0,0,1,392,317.45Z"/><path class="a92a91ea-a3f7-43e0-b2fa-1ee8ad0a3646" d="M403,325.54l-2.25-1.3a1.45,1.45,0,0,1-.61-1.16v-2.39c0-.45.27-.65.61-.46l2.25,1.3a1.47,1.47,0,0,1,.61,1.17v2.38C403.58,325.53,403.31,325.74,403,325.54Z"/><path class="a92a91ea-a3f7-43e0-b2fa-1ee8ad0a3646" d="M460.86,191.89l-2.05-1.18v-3a11,11,0,0,0-5-8.61l-15.55-8.92c-2.73-1.58-5-.29-5,2.87v31.81l-2.06-30v-3c0-4.47,3.15-6.29,7-4.06l15.55,8.92a15.55,15.55,0,0,1,7,12.16Z"/><path class="a92a91ea-a3f7-43e0-b2fa-1ee8ad0a3646" d="M453.85,195.93l7-4L459.44,187l-2-4.94s-3.37-3.76-3.63-3.83-9.44-5.3-9.44-5.3l-7.65-5.51-3.65.12-6.77,3.9,4.87,2s2.75,1.37,3.38,1.54,3.35,2.74,3.41,2.78l3.33,1.35L442,179l6,4.19,1.93.85,1,1.66,1.59,4.45Z"/><path class="b0e1c372-1d26-4b38-9794-e576319f81ca" d="M433.33,204.91l-7,4s-.46-33.37-.46-33.42,1.54-2.21,1.54-2.21l3.8-.73,3,2.28-.94-.39-.41.24.47.74Z"/><path class="f8eff00d-2c2f-401c-893d-1efd72eefb6a" d="M453.85,195.93l-2.05-1.18v-3a11,11,0,0,0-5-8.6l-15.54-8.92c-2.74-1.58-5-.29-5,2.87v31.8l-2.05-1.18V176c0-4.47,3.14-6.28,7-4l15.54,8.92a15.55,15.55,0,0,1,7,12.16Z"/><path class="a66b45f9-8ecc-4e52-91c4-94889fd928dc" d="M484.18,385l-35.6-20.29c-1.3-.76-1.14-2.07.36-2.94L469.43,350a5.62,5.62,0,0,1,5.07-.21L510.1,370c1.3.75,1.14,2.06-.36,2.93l-20.48,11.82A5.62,5.62,0,0,1,484.18,385Z"/><path class="b0e1c372-1d26-4b38-9794-e576319f81ca" d="M527.75,333.37h0V214.82l-47.13-12.33-8.68-5c-2-1.15-5.47-1-7.77.33l-8.1,4.67H430.93l7.44,114.44a2.26,2.26,0,0,0,1.34,2.08l47,35.49c2,1.15,5.47,1,7.77-.32l31.35-18.1C527.18,335.29,527.82,334.29,527.75,333.37Z"/><path class="a92a91ea-a3f7-43e0-b2fa-1ee8ad0a3646" d="M468.33,196.7a9,9,0,0,0-4.16,1.1l-8.1,4.67H430.93V321.33a2.25,2.25,0,0,0,1.34,2.08l54.47,31.06a7.1,7.1,0,0,0,3.61.77l.56-119.61Z"/><path class="f8eff00d-2c2f-401c-893d-1efd72eefb6a" d="M487.24,354.72a8.86,8.86,0,0,0,6.21-.08V234.22h-6.21Z"/><path class="a92a91ea-a3f7-43e0-b2fa-1ee8ad0a3646" d="M486.74,235.64l-54.47-31.06c-2-1.15-1.75-3.16.55-4.48L464.17,182c2.3-1.33,5.78-1.47,7.77-.32l54.47,31.06c2,1.15,1.75,3.16-.55,4.49l-31.35,18.09C492.21,236.65,488.73,236.8,486.74,235.64Z"/><path class="a629d5ee-f0bd-4ca7-901f-fb6a5e4015d0" d="M525.86,215l-31.35,18.1c-2.3,1.33-5.78,1.47-7.77.32l-54.47-31.06a3.13,3.13,0,0,1-1-.88c-.68,1.1-.37,2.29,1,3.08l54.47,31.06c2,1.16,5.47,1,7.77-.32l31.35-18.09c1.78-1,2.33-2.48,1.55-3.61A4.29,4.29,0,0,1,525.86,215Z"/><path class="ebd76b6c-2eb5-4a77-9104-44a1464d1e58" d="M488.28,223.06,452,202c-.93-.54-.81-1.48.26-2.1l14.67-8.47a4.08,4.08,0,0,1,3.64-.15l36.27,21c.93.54.81,1.48-.26,2.1l-14.67,8.47A4.08,4.08,0,0,1,488.28,223.06Z"/><path class="a92a91ea-a3f7-43e0-b2fa-1ee8ad0a3646" d="M468.7,203l-2.1-1.22c-.13-.07-.11-.2,0-.29l2-1.17a.59.59,0,0,1,.5,0l2.1,1.21c.13.08.11.21,0,.29l-2,1.18A.59.59,0,0,1,468.7,203Z"/><path class="a92a91ea-a3f7-43e0-b2fa-1ee8ad0a3646" d="M475.72,207l-2.1-1.21c-.13-.07-.11-.2,0-.29l2-1.17a.52.52,0,0,1,.5,0l2.1,1.21c.13.08.11.21,0,.29l-2,1.17A.54.54,0,0,1,475.72,207Z"/><path class="a92a91ea-a3f7-43e0-b2fa-1ee8ad0a3646" d="M482.74,211.05l-2.1-1.21c-.13-.08-.11-.21,0-.29l2-1.17a.56.56,0,0,1,.5,0l2.1,1.22c.13.07.12.2,0,.29l-2,1.17A.54.54,0,0,1,482.74,211.05Z"/><path class="a92a91ea-a3f7-43e0-b2fa-1ee8ad0a3646" d="M489.77,215.09l-2.11-1.22c-.13-.07-.11-.2,0-.29l2-1.17a.59.59,0,0,1,.5,0l2.1,1.22c.13.07.12.2,0,.29l-2,1.17A.59.59,0,0,1,489.77,215.09Z"/><path class="f8eff00d-2c2f-401c-893d-1efd72eefb6a" d="M452,202l.05,0a1.59,1.59,0,0,1,.21-.15l14.67-8.47a4,4,0,0,1,3.64-.15l36.22,21c.86-.62.91-1.46.05-1.95l-36.27-21a4.08,4.08,0,0,0-3.64.15l-14.67,8.47C451.2,200.55,451.08,201.49,452,202Z"/><path class="ebd76b6c-2eb5-4a77-9104-44a1464d1e58" d="M500.63,259.13l20.62-11.8a5,5,0,0,0,2.11-4v-7.37c0-1.55-1-2.26-2.11-1.59l-20.62,11.8a5,5,0,0,0-2.1,4v7.37C498.53,259.09,499.47,259.8,500.63,259.13Z"/><path class="b2ddcd38-5119-4132-af82-a8cf36c3c34d" d="M522.27,234.13a2,2,0,0,1,.53,1.53V243a5,5,0,0,1-2.1,4l-20.62,11.81a1.55,1.55,0,0,1-1,.22,1.24,1.24,0,0,0,1.57.05l20.62-11.8a5,5,0,0,0,2.11-4v-7.37C523.36,234.89,522.92,234.24,522.27,234.13Z"/><path class="b0e1c372-1d26-4b38-9794-e576319f81ca" d="M506.84,251.12l1.89-1.09a1.11,1.11,0,0,0,.45-.88v-2c0-.33-.2-.49-.45-.34l-1.89,1.09a1.09,1.09,0,0,0-.46.87v2C506.38,251.11,506.58,251.27,506.84,251.12Z"/><path class="b2ddcd38-5119-4132-af82-a8cf36c3c34d" d="M513.16,247.47l1.89-1.09a1.12,1.12,0,0,0,.46-.88v-2c0-.34-.21-.49-.46-.34l-1.89,1.09a1.1,1.1,0,0,0-.46.87v2C512.7,247.46,512.91,247.62,513.16,247.47Z"/><path class="ebd76b6c-2eb5-4a77-9104-44a1464d1e58" d="M500.63,312.42l20.62-11.81a5,5,0,0,0,2.11-4v-7.38c0-1.54-1-2.25-2.11-1.58l-20.62,11.8a5,5,0,0,0-2.1,4v7.37C498.53,312.38,499.47,313.09,500.63,312.42Z"/><path class="b2ddcd38-5119-4132-af82-a8cf36c3c34d" d="M522.27,287.41a2.05,2.05,0,0,1,.53,1.54v7.37a5,5,0,0,1-2.1,4l-20.62,11.8a1.5,1.5,0,0,1-1,.23,1.26,1.26,0,0,0,1.57.05l20.62-11.81a5,5,0,0,0,2.11-4v-7.38C523.36,288.17,522.92,287.52,522.27,287.41Z"/><path class="b0e1c372-1d26-4b38-9794-e576319f81ca" d="M506.84,304.41l1.89-1.09a1.11,1.11,0,0,0,.45-.88v-2c0-.34-.2-.49-.45-.35l-1.89,1.1a1.06,1.06,0,0,0-.46.87v2C506.38,304.4,506.58,304.55,506.84,304.41Z"/><path class="b2ddcd38-5119-4132-af82-a8cf36c3c34d" d="M513.16,300.76l1.89-1.1a1.08,1.08,0,0,0,.46-.87v-2c0-.34-.21-.49-.46-.35l-1.89,1.1a1.08,1.08,0,0,0-.46.87v2C512.7,300.75,512.91,300.9,513.16,300.76Z"/><path class="ebd76b6c-2eb5-4a77-9104-44a1464d1e58" d="M500.63,339.06l20.62-11.8a5,5,0,0,0,2.11-4v-7.37c0-1.55-1-2.26-2.11-1.59l-20.62,11.81a5,5,0,0,0-2.1,4v7.37C498.53,339,499.47,339.73,500.63,339.06Z"/><path class="b2ddcd38-5119-4132-af82-a8cf36c3c34d" d="M522.27,314.06a2,2,0,0,1,.53,1.53V323a5,5,0,0,1-2.1,4l-20.62,11.81a1.55,1.55,0,0,1-1,.22,1.24,1.24,0,0,0,1.57.05l20.62-11.8a5,5,0,0,0,2.11-4v-7.37C523.36,314.82,522.92,314.17,522.27,314.06Z"/><path class="b0e1c372-1d26-4b38-9794-e576319f81ca" d="M506.84,331.05l1.89-1.09a1.11,1.11,0,0,0,.45-.87v-2c0-.33-.2-.49-.45-.34l-1.89,1.09a1.09,1.09,0,0,0-.46.88v2C506.38,331,506.58,331.2,506.84,331.05Z"/><path class="b2ddcd38-5119-4132-af82-a8cf36c3c34d" d="M513.16,327.4l1.89-1.09a1.12,1.12,0,0,0,.46-.88v-2c0-.33-.21-.49-.46-.34l-1.89,1.09a1.1,1.1,0,0,0-.46.87v2C512.7,327.39,512.91,327.55,513.16,327.4Z"/><path class="b2ddcd38-5119-4132-af82-a8cf36c3c34d" d="M511.76,341l1.89-1.09a1.11,1.11,0,0,0,.46-.87v-2c0-.34-.21-.5-.46-.35l-1.89,1.09a1.09,1.09,0,0,0-.46.88v2C511.3,341,511.5,341.15,511.76,341Z"/><path class="ebd76b6c-2eb5-4a77-9104-44a1464d1e58" d="M500.63,285.78,521.25,274a5,5,0,0,0,2.11-4v-7.37c0-1.55-1-2.26-2.11-1.59L500.63,272.8a5,5,0,0,0-2.1,4v7.38C498.53,285.73,499.47,286.45,500.63,285.78Z"/><path class="b2ddcd38-5119-4132-af82-a8cf36c3c34d" d="M522.27,260.77a2,2,0,0,1,.53,1.53v7.38a5,5,0,0,1-2.1,4L500.08,285.5a1.55,1.55,0,0,1-1,.22,1.26,1.26,0,0,0,1.57.06L521.25,274a5,5,0,0,0,2.11-4v-7.37C523.36,261.53,522.92,260.88,522.27,260.77Z"/><path class="b0e1c372-1d26-4b38-9794-e576319f81ca" d="M506.84,277.76l1.89-1.09a1.08,1.08,0,0,0,.45-.87v-2c0-.34-.2-.49-.45-.35l-1.89,1.09a1.09,1.09,0,0,0-.46.88v2C506.38,277.76,506.58,277.91,506.84,277.76Z"/><path class="b2ddcd38-5119-4132-af82-a8cf36c3c34d" d="M513.16,274.11l1.89-1.09a1.1,1.1,0,0,0,.46-.87v-2c0-.34-.21-.5-.46-.35l-1.89,1.09a1.12,1.12,0,0,0-.46.88v2C512.7,274.1,512.91,274.26,513.16,274.11Z"/><path class="f8eff00d-2c2f-401c-893d-1efd72eefb6a" d="M482.77,251.58,435.2,224.12a4.62,4.62,0,0,1-1.93-3.69v-9.07c0-1.42.86-2.07,1.93-1.46l47.57,27.47a4.6,4.6,0,0,1,1.93,3.68v9.08C484.7,251.55,483.84,252.2,482.77,251.58Z"/><path class="a66b45f9-8ecc-4e52-91c4-94889fd928dc" d="M481.41,248.4l-44.85-25.89a2.34,2.34,0,0,1-1-1.87v-6.82c0-.72.43-1,1-.74L481.41,239a2.36,2.36,0,0,1,1,1.87v6.82C482.39,248.38,482,248.71,481.41,248.4Z"/><path class="a92a91ea-a3f7-43e0-b2fa-1ee8ad0a3646" d="M445.91,224.46l-6.69-3.86a2.28,2.28,0,0,1-1-1.82h0c0-.7.42-1,1-.72l6.69,3.87a2.27,2.27,0,0,1,.95,1.81h0C446.86,224.44,446.43,224.76,445.91,224.46Z"/><path class="ebd76b6c-2eb5-4a77-9104-44a1464d1e58" d="M451.61,226.49c0,.7-.49,1-1.09.63a2.42,2.42,0,0,1-1.1-1.9c0-.7.49-1,1.1-.63A2.43,2.43,0,0,1,451.61,226.49Z"/><path class="ebd76b6c-2eb5-4a77-9104-44a1464d1e58" d="M455.48,228.72c0,.7-.49,1-1.1.63a2.43,2.43,0,0,1-1.09-1.9c0-.7.49-1,1.09-.63A2.42,2.42,0,0,1,455.48,228.72Z"/><path class="a92a91ea-a3f7-43e0-b2fa-1ee8ad0a3646" d="M459.35,231c0,.7-.49,1-1.1.64a2.43,2.43,0,0,1-1.09-1.9c0-.7.49-1,1.09-.64A2.42,2.42,0,0,1,459.35,231Z"/><path class="ebd76b6c-2eb5-4a77-9104-44a1464d1e58" d="M463.22,233.19c0,.7-.49,1-1.1.63a2.43,2.43,0,0,1-1.09-1.9c0-.7.49-1,1.09-.63A2.42,2.42,0,0,1,463.22,233.19Z"/><path class="ebd76b6c-2eb5-4a77-9104-44a1464d1e58" d="M479.52,244.6l-2.25-1.3a1.43,1.43,0,0,1-.61-1.16v-2.39c0-.45.27-.65.61-.46l2.25,1.3a1.47,1.47,0,0,1,.61,1.17v2.38C480.13,244.59,479.86,244.8,479.52,244.6Z"/><path class="f8eff00d-2c2f-401c-893d-1efd72eefb6a" d="M482.77,267.58,435.2,240.11a4.59,4.59,0,0,1-1.93-3.68v-9.07c0-1.42.86-2.07,1.93-1.46l47.57,27.47a4.59,4.59,0,0,1,1.93,3.68v9.07C484.7,267.54,483.84,268.19,482.77,267.58Z"/><path class="a66b45f9-8ecc-4e52-91c4-94889fd928dc" d="M481.41,264.4l-44.85-25.89a2.34,2.34,0,0,1-1-1.87v-6.82c0-.72.43-1,1-.74L481.41,255a2.34,2.34,0,0,1,1,1.87v6.82C482.39,264.38,482,264.71,481.41,264.4Z"/><path class="a92a91ea-a3f7-43e0-b2fa-1ee8ad0a3646" d="M445.91,240.46l-6.69-3.87a2.25,2.25,0,0,1-1-1.81h0c0-.7.42-1,1-.72l6.69,3.86a2.31,2.31,0,0,1,.95,1.82h0C446.86,240.44,446.43,240.76,445.91,240.46Z"/><path class="b2ddcd38-5119-4132-af82-a8cf36c3c34d" d="M451.61,242.48c0,.7-.49,1-1.09.64a2.42,2.42,0,0,1-1.1-1.9c0-.7.49-1,1.1-.64A2.43,2.43,0,0,1,451.61,242.48Z"/><path class="ebd76b6c-2eb5-4a77-9104-44a1464d1e58" d="M455.48,244.72c0,.7-.49,1-1.1.63a2.43,2.43,0,0,1-1.09-1.9c0-.7.49-1,1.09-.63A2.42,2.42,0,0,1,455.48,244.72Z"/><path class="a92a91ea-a3f7-43e0-b2fa-1ee8ad0a3646" d="M459.35,247c0,.7-.49,1-1.1.63a2.43,2.43,0,0,1-1.09-1.9c0-.69.49-1,1.09-.63A2.42,2.42,0,0,1,459.35,247Z"/><path class="ebd76b6c-2eb5-4a77-9104-44a1464d1e58" d="M463.22,249.19c0,.69-.49,1-1.1.63a2.43,2.43,0,0,1-1.09-1.9c0-.7.49-1,1.09-.63A2.42,2.42,0,0,1,463.22,249.19Z"/><path class="ebd76b6c-2eb5-4a77-9104-44a1464d1e58" d="M479.52,260.6l-2.25-1.3a1.45,1.45,0,0,1-.61-1.16v-2.39c0-.45.27-.65.61-.46l2.25,1.3a1.47,1.47,0,0,1,.61,1.17v2.38C480.13,260.59,479.86,260.8,479.52,260.6Z"/><path class="f8eff00d-2c2f-401c-893d-1efd72eefb6a" d="M482.77,283.58,435.2,256.11a4.59,4.59,0,0,1-1.93-3.68v-9.08c0-1.42.86-2.07,1.93-1.45l47.57,27.46a4.62,4.62,0,0,1,1.93,3.69v9.07C484.7,283.54,483.84,284.19,482.77,283.58Z"/><path class="a66b45f9-8ecc-4e52-91c4-94889fd928dc" d="M481.41,280.4l-44.85-25.89a2.35,2.35,0,0,1-1-1.87v-6.82c0-.72.43-1,1-.74L481.41,271a2.34,2.34,0,0,1,1,1.87v6.82C482.39,280.38,482,280.71,481.41,280.4Z"/><path class="a92a91ea-a3f7-43e0-b2fa-1ee8ad0a3646" d="M445.91,256.45l-6.69-3.86a2.26,2.26,0,0,1-1-1.81h0c0-.7.42-1,1-.72l6.69,3.86a2.29,2.29,0,0,1,.95,1.82h0C446.86,256.44,446.43,256.76,445.91,256.45Z"/><path class="b2ddcd38-5119-4132-af82-a8cf36c3c34d" d="M451.61,258.48c0,.7-.49,1-1.09.63a2.42,2.42,0,0,1-1.1-1.9c0-.7.49-1,1.1-.63A2.43,2.43,0,0,1,451.61,258.48Z"/><path class="ebd76b6c-2eb5-4a77-9104-44a1464d1e58" d="M455.48,260.71c0,.7-.49,1-1.1.64a2.43,2.43,0,0,1-1.09-1.9c0-.7.49-1,1.09-.64A2.42,2.42,0,0,1,455.48,260.71Z"/><path class="a92a91ea-a3f7-43e0-b2fa-1ee8ad0a3646" d="M459.35,263c0,.7-.49,1-1.1.63a2.43,2.43,0,0,1-1.09-1.9c0-.7.49-1,1.09-.63A2.42,2.42,0,0,1,459.35,263Z"/><path class="ebd76b6c-2eb5-4a77-9104-44a1464d1e58" d="M463.22,265.18c0,.7-.49,1-1.1.64a2.43,2.43,0,0,1-1.09-1.9c0-.7.49-1,1.09-.64A2.42,2.42,0,0,1,463.22,265.18Z"/><path class="ebd76b6c-2eb5-4a77-9104-44a1464d1e58" d="M479.52,276.6l-2.25-1.3a1.47,1.47,0,0,1-.61-1.17v-2.38c0-.45.27-.66.61-.46l2.25,1.3a1.43,1.43,0,0,1,.61,1.16v2.39C480.13,276.59,479.86,276.79,479.52,276.6Z"/><path class="f8eff00d-2c2f-401c-893d-1efd72eefb6a" d="M482.77,299.57,435.2,272.11a4.62,4.62,0,0,1-1.93-3.69v-9.07c0-1.42.86-2.07,1.93-1.46l47.57,27.47A4.62,4.62,0,0,1,484.7,289v9.08C484.7,299.54,483.84,300.19,482.77,299.57Z"/><path class="a66b45f9-8ecc-4e52-91c4-94889fd928dc" d="M481.41,296.39,436.56,270.5a2.34,2.34,0,0,1-1-1.87v-6.82c0-.72.43-1.05,1-.74L481.41,287a2.36,2.36,0,0,1,1,1.87v6.82C482.39,296.37,482,296.71,481.41,296.39Z"/><path class="a92a91ea-a3f7-43e0-b2fa-1ee8ad0a3646" d="M445.91,272.45l-6.69-3.86a2.28,2.28,0,0,1-1-1.82h0c0-.7.42-1,1-.72l6.69,3.87a2.27,2.27,0,0,1,.95,1.81h0C446.86,272.43,446.43,272.75,445.91,272.45Z"/><path class="ebd76b6c-2eb5-4a77-9104-44a1464d1e58" d="M451.61,274.48c0,.7-.49,1-1.09.63a2.42,2.42,0,0,1-1.1-1.9c0-.7.49-1,1.1-.63A2.43,2.43,0,0,1,451.61,274.48Z"/><path class="ebd76b6c-2eb5-4a77-9104-44a1464d1e58" d="M455.48,276.71c0,.7-.49,1-1.1.63a2.43,2.43,0,0,1-1.09-1.9c0-.7.49-1,1.09-.63A2.42,2.42,0,0,1,455.48,276.71Z"/><path class="a92a91ea-a3f7-43e0-b2fa-1ee8ad0a3646" d="M459.35,279c0,.69-.49,1-1.1.63a2.43,2.43,0,0,1-1.09-1.9c0-.7.49-1,1.09-.63A2.42,2.42,0,0,1,459.35,279Z"/><path class="ebd76b6c-2eb5-4a77-9104-44a1464d1e58" d="M463.22,281.18c0,.7-.49,1-1.1.63a2.43,2.43,0,0,1-1.09-1.9c0-.7.49-1,1.09-.63A2.42,2.42,0,0,1,463.22,281.18Z"/><path class="a92a91ea-a3f7-43e0-b2fa-1ee8ad0a3646" d="M479.52,292.6l-2.25-1.31a1.43,1.43,0,0,1-.61-1.16v-2.39c0-.44.27-.65.61-.46l2.25,1.3a1.47,1.47,0,0,1,.61,1.17v2.38C480.13,292.58,479.86,292.79,479.52,292.6Z"/><path class="f8eff00d-2c2f-401c-893d-1efd72eefb6a" d="M482.77,315.57,435.2,288.1a4.59,4.59,0,0,1-1.93-3.68v-9.07c0-1.42.86-2.07,1.93-1.46l47.57,27.47A4.59,4.59,0,0,1,484.7,305v9.07C484.7,315.53,483.84,316.19,482.77,315.57Z"/><path class="a66b45f9-8ecc-4e52-91c4-94889fd928dc" d="M481.41,312.39,436.56,286.5a2.34,2.34,0,0,1-1-1.87v-6.82c0-.72.43-1.05,1-.74L481.41,303a2.34,2.34,0,0,1,1,1.87v6.82C482.39,312.37,482,312.7,481.41,312.39Z"/><path class="a92a91ea-a3f7-43e0-b2fa-1ee8ad0a3646" d="M445.91,288.45l-6.69-3.87a2.25,2.25,0,0,1-1-1.81h0c0-.7.42-1,1-.72l6.69,3.86a2.31,2.31,0,0,1,.95,1.82h0C446.86,288.43,446.43,288.75,445.91,288.45Z"/><path class="ebd76b6c-2eb5-4a77-9104-44a1464d1e58" d="M451.61,290.47c0,.7-.49,1-1.09.64a2.42,2.42,0,0,1-1.1-1.9c0-.7.49-1,1.1-.64A2.43,2.43,0,0,1,451.61,290.47Z"/><path class="b2ddcd38-5119-4132-af82-a8cf36c3c34d" d="M455.48,292.71c0,.7-.49,1-1.1.63a2.43,2.43,0,0,1-1.09-1.9c0-.7.49-1,1.09-.63A2.42,2.42,0,0,1,455.48,292.71Z"/><path class="a92a91ea-a3f7-43e0-b2fa-1ee8ad0a3646" d="M459.35,294.94c0,.7-.49,1-1.1.64a2.45,2.45,0,0,1-1.09-1.9c0-.7.49-1,1.09-.64A2.42,2.42,0,0,1,459.35,294.94Z"/><path class="b2ddcd38-5119-4132-af82-a8cf36c3c34d" d="M463.22,297.18c0,.7-.49,1-1.1.63a2.43,2.43,0,0,1-1.09-1.9c0-.7.49-1,1.09-.63A2.42,2.42,0,0,1,463.22,297.18Z"/><path class="a92a91ea-a3f7-43e0-b2fa-1ee8ad0a3646" d="M479.52,308.59l-2.25-1.3a1.45,1.45,0,0,1-.61-1.16v-2.39c0-.45.27-.65.61-.46l2.25,1.3a1.47,1.47,0,0,1,.61,1.17v2.38C480.13,308.58,479.86,308.79,479.52,308.59Z"/><path class="f8eff00d-2c2f-401c-893d-1efd72eefb6a" d="M482.77,331.57,435.2,304.1a4.59,4.59,0,0,1-1.93-3.68v-9.07c0-1.42.86-2.08,1.93-1.46l47.57,27.46A4.62,4.62,0,0,1,484.7,321v9.07C484.7,331.53,483.84,332.18,482.77,331.57Z"/><path class="a66b45f9-8ecc-4e52-91c4-94889fd928dc" d="M481.41,328.39,436.56,302.5a2.34,2.34,0,0,1-1-1.87v-6.82c0-.72.43-1.05,1-.74L481.41,319a2.34,2.34,0,0,1,1,1.87v6.82C482.39,328.37,482,328.7,481.41,328.39Z"/><path class="a92a91ea-a3f7-43e0-b2fa-1ee8ad0a3646" d="M445.91,304.44l-6.69-3.86a2.25,2.25,0,0,1-1-1.81h0c0-.7.42-1,1-.72l6.69,3.86a2.29,2.29,0,0,1,.95,1.82h0C446.86,304.43,446.43,304.75,445.91,304.44Z"/><path class="ebd76b6c-2eb5-4a77-9104-44a1464d1e58" d="M451.61,306.47c0,.7-.49,1-1.09.63a2.42,2.42,0,0,1-1.1-1.9c0-.7.49-1,1.1-.63A2.43,2.43,0,0,1,451.61,306.47Z"/><path class="ebd76b6c-2eb5-4a77-9104-44a1464d1e58" d="M455.48,308.7c0,.7-.49,1-1.1.64a2.43,2.43,0,0,1-1.09-1.9c0-.7.49-1,1.09-.63A2.4,2.4,0,0,1,455.48,308.7Z"/><path class="a92a91ea-a3f7-43e0-b2fa-1ee8ad0a3646" d="M459.35,310.94c0,.7-.49,1-1.1.63a2.43,2.43,0,0,1-1.09-1.9c0-.7.49-1,1.09-.63A2.42,2.42,0,0,1,459.35,310.94Z"/><path class="ebd76b6c-2eb5-4a77-9104-44a1464d1e58" d="M463.22,313.17c0,.7-.49,1-1.1.64a2.43,2.43,0,0,1-1.09-1.9c0-.7.49-1,1.09-.64A2.42,2.42,0,0,1,463.22,313.17Z"/><path class="ebd76b6c-2eb5-4a77-9104-44a1464d1e58" d="M479.52,324.59l-2.25-1.3a1.47,1.47,0,0,1-.61-1.17v-2.38c0-.45.27-.66.61-.46l2.25,1.3a1.43,1.43,0,0,1,.61,1.16v2.39C480.13,324.58,479.86,324.78,479.52,324.59Z"/><path class="f8eff00d-2c2f-401c-893d-1efd72eefb6a" d="M482.77,347.56,435.2,320.1a4.62,4.62,0,0,1-1.93-3.69v-9.07c0-1.42.86-2.07,1.93-1.46l47.57,27.47A4.62,4.62,0,0,1,484.7,337v9.07C484.7,347.53,483.84,348.18,482.77,347.56Z"/><path class="a66b45f9-8ecc-4e52-91c4-94889fd928dc" d="M481.41,344.38l-44.85-25.89a2.32,2.32,0,0,1-1-1.87v-6.81c0-.73.43-1.06,1-.74L481.41,335a2.33,2.33,0,0,1,1,1.86v6.82C482.39,344.36,482,344.7,481.41,344.38Z"/><path class="a92a91ea-a3f7-43e0-b2fa-1ee8ad0a3646" d="M445.91,320.44l-6.69-3.86a2.28,2.28,0,0,1-1-1.82h0c0-.7.42-1,1-.72l6.69,3.87a2.27,2.27,0,0,1,.95,1.81h0C446.86,320.42,446.43,320.74,445.91,320.44Z"/><path class="b2ddcd38-5119-4132-af82-a8cf36c3c34d" d="M452.84,323.33c0,1.32-.93,1.86-2.08,1.2a4.59,4.59,0,0,1-2.07-3.59c0-1.32.93-1.86,2.07-1.19A4.56,4.56,0,0,1,452.84,323.33Z"/><path class="ebd76b6c-2eb5-4a77-9104-44a1464d1e58" d="M460.85,328c0,.7-.49,1-1.1.64a2.43,2.43,0,0,1-1.09-1.9c0-.7.49-1,1.09-.64A2.42,2.42,0,0,1,460.85,328Z"/><path class="a92a91ea-a3f7-43e0-b2fa-1ee8ad0a3646" d="M464.72,330.26c0,.7-.49,1-1.1.63a2.43,2.43,0,0,1-1.09-1.9c0-.7.49-1,1.09-.63A2.42,2.42,0,0,1,464.72,330.26Z"/><path class="ebd76b6c-2eb5-4a77-9104-44a1464d1e58" d="M468.59,332.49c0,.7-.49,1-1.1.63a2.43,2.43,0,0,1-1.09-1.9c0-.69.49-1,1.09-.63A2.42,2.42,0,0,1,468.59,332.49Z"/><path class="a92a91ea-a3f7-43e0-b2fa-1ee8ad0a3646" d="M479.52,340.59l-2.25-1.31a1.43,1.43,0,0,1-.61-1.16v-2.39c0-.44.27-.65.61-.46l2.25,1.31a1.43,1.43,0,0,1,.61,1.16v2.39C480.13,340.57,479.86,340.78,479.52,340.59Z"/><path class="a66b45f9-8ecc-4e52-91c4-94889fd928dc" d="M319,431.92l-106-61.22c-3-1.73-2.62-4.76.84-6.76L286,322.27c3.47-2,8.71-2.22,11.7-.48l106,61.22c3,1.73,2.62,4.75-.84,6.75l-72.2,41.68C327.2,433.44,322,433.65,319,431.92Z"/><path class="ebd76b6c-2eb5-4a77-9104-44a1464d1e58" d="M428.55,274.56l-106-61.22a4.28,4.28,0,0,0-3.59-.44h0l-.19.07-.05,0-3.83,1.46,3.44,1.69a1.21,1.21,0,0,1-.05.18L301,294.93c-.86,3.94.87,8.53,3.87,10.26l103.48,59.75-.37,4.38,4.19-1.62a5.85,5.85,0,0,0,3-4.26l17.27-78.62C433.28,280.88,431.55,276.29,428.55,274.56Z"/><path class="b0e1c372-1d26-4b38-9794-e576319f81ca" d="M428.55,274.56l-106-61.22a4.28,4.28,0,0,0-3.59-.44h0l-.19.07-.05,0-3.83,1.46,3.44,1.69a1.21,1.21,0,0,1-.05.18l-11.38,51.82,51.88,40.42,73.16-29.77A8.29,8.29,0,0,0,428.55,274.56Z"/><path class="b231bcbe-c497-49b2-adfd-bba4c8c0e1aa" d="M424.55,286.64l8.07-3.43a10.13,10.13,0,0,0-3.27-8.09l-12.78,5.38Z"/><path class="a92a91ea-a3f7-43e0-b2fa-1ee8ad0a3646" d="M404.27,368.91l-106-61.22c-3-1.73-4.73-6.33-3.86-10.26l17.27-78.62c.86-3.94,4-5.72,7-4l106,61.22c3,1.73,4.73,6.33,3.87,10.26l-17.27,78.62C410.4,368.85,407.27,370.64,404.27,368.91Z"/><path class="b2ddcd38-5119-4132-af82-a8cf36c3c34d" d="M425.69,275.67l-106-61.22a4.17,4.17,0,0,0-4.17-.18,4.32,4.32,0,0,1,3.15.55l106,61.22c3,1.73,4.73,6.33,3.87,10.26l-17.27,78.62a6,6,0,0,1-2.83,4.17c1.79-.39,3.29-2,3.84-4.54l17.28-78.62C430.42,282,428.69,277.4,425.69,275.67Z"/><path class="b2ddcd38-5119-4132-af82-a8cf36c3c34d" d="M402,363.06l-99.72-57.55c-2.75-1.58-4.33-5.79-3.54-9.39l15.8-71.94c.79-3.6,3.66-5.23,6.41-3.65l99.72,57.55c2.74,1.58,4.33,5.79,3.54,9.39l-15.81,71.94C407.58,363,404.72,364.64,402,363.06Z"/><path class="ebd76b6c-2eb5-4a77-9104-44a1464d1e58" d="M402,363.06l-99.72-57.55c-2.75-1.58-4.33-5.79-3.54-9.39l15.8-71.94c.79-3.6,3.66-5.23,6.41-3.65l99.72,57.55c2.74,1.58,4.33,5.79,3.54,9.39l-15.81,71.94C407.58,363,404.72,364.64,402,363.06Z"/><path class="f8eff00d-2c2f-401c-893d-1efd72eefb6a" d="M402.84,362.71l-99.72-57.55c-2.75-1.59-4.33-5.79-3.54-9.39l15.8-71.94a5.53,5.53,0,0,1,2.51-3.79c-1.58.41-2.88,1.89-3.38,4.14l-15.8,71.94c-.79,3.6.79,7.81,3.54,9.39L402,363.06a3.86,3.86,0,0,0,3.89.14A4,4,0,0,1,402.84,362.71Z"/><path class="ebd76b6c-2eb5-4a77-9104-44a1464d1e58" d="M405.73,371.57l-14.49-1.91-93.57-54c-3-1.73-8.23-1.51-11.7.49l-66.3,38.26-8.76-1.16v5h0a3.4,3.4,0,0,0,2,3.07L319,422.5c3,1.73,8.23,1.51,11.7-.49l72.2-41.67c1.95-1.12,2.92-2.57,2.86-3.93h0Z"/><path class="b0e1c372-1d26-4b38-9794-e576319f81ca" d="M335.43,337.44l-6.64-3.84H255.7l-36,20.79-8.76-1.16v5h0a3.4,3.4,0,0,0,2,3.07L319,422.5a11,11,0,0,0,6,1.13Z"/><path class="f8eff00d-2c2f-401c-893d-1efd72eefb6a" d="M214.8,353.75l-3.89-.52v5h0a3.4,3.4,0,0,0,2,3.07l1.87,1.08Z"/><path class="b231bcbe-c497-49b2-adfd-bba4c8c0e1aa" d="M320,423a13.59,13.59,0,0,0,10-.61V411.29H320Z"/><path class="a92a91ea-a3f7-43e0-b2fa-1ee8ad0a3646" d="M319,417.53l-106-61.22c-3-1.73-2.62-4.76.84-6.76L286,307.88c3.47-2,8.71-2.21,11.7-.48l106,61.22c3,1.73,2.62,4.75-.84,6.75l-72.2,41.68C327.2,419.05,322,419.26,319,417.53Z"/><path class="b2ddcd38-5119-4132-af82-a8cf36c3c34d" d="M402.87,373.56l-72.2,41.67c-3.47,2-8.71,2.22-11.7.49l-106-61.22a4,4,0,0,1-1.87-2c-.46,1.41.13,2.85,1.87,3.85l106,61.22c3,1.73,8.23,1.52,11.7-.48l72.2-41.68c2.33-1.34,3.25-3.15,2.71-4.71A5.69,5.69,0,0,1,402.87,373.56Z"/><path class="f8eff00d-2c2f-401c-893d-1efd72eefb6a" d="M258,336l-4.8-2.77c-.39-.22-.34-.61.11-.86l5.66-3.27a1.66,1.66,0,0,1,1.5-.07l4.8,2.77c.39.23.34.62-.11.87L259.53,336A1.63,1.63,0,0,1,258,336Z"/><path class="f8eff00d-2c2f-401c-893d-1efd72eefb6a" d="M265.44,340.32l-4.8-2.77c-.39-.22-.34-.61.11-.87l5.66-3.27a1.69,1.69,0,0,1,1.5-.06l4.8,2.77c.39.22.34.61-.11.87l-5.66,3.27A1.66,1.66,0,0,1,265.44,340.32Z"/><path class="f8eff00d-2c2f-401c-893d-1efd72eefb6a" d="M272.85,344.6l-4.8-2.77c-.39-.22-.34-.61.11-.87l5.66-3.27a1.69,1.69,0,0,1,1.5-.06l4.8,2.77c.38.22.34.61-.11.87l-5.66,3.27A1.69,1.69,0,0,1,272.85,344.6Z"/><path class="f8eff00d-2c2f-401c-893d-1efd72eefb6a" d="M283.09,341.07l-4.79-2.77c-.39-.23-.34-.61.1-.87l4.76-2.75a1.69,1.69,0,0,1,1.5-.06l4.8,2.77c.38.22.33.61-.11.87L284.6,341A1.68,1.68,0,0,1,283.09,341.07Z"/><path class="f8eff00d-2c2f-401c-893d-1efd72eefb6a" d="M290.5,345.34l-4.8-2.77c-.38-.22-.33-.61.11-.86l4.76-2.75a1.69,1.69,0,0,1,1.5-.06l4.8,2.77c.38.22.33.61-.11.87L292,345.28A1.63,1.63,0,0,1,290.5,345.34Z"/><path class="f8eff00d-2c2f-401c-893d-1efd72eefb6a" d="M297.91,349.62l-4.8-2.77c-.38-.22-.33-.61.11-.87l4.76-2.74a1.66,1.66,0,0,1,1.5-.06l4.8,2.77c.38.22.33.61-.11.87l-4.76,2.74A1.66,1.66,0,0,1,297.91,349.62Z"/><path class="f8eff00d-2c2f-401c-893d-1efd72eefb6a" d="M305.32,353.9l-4.8-2.77c-.38-.22-.33-.61.11-.87l4.75-2.74a1.65,1.65,0,0,1,1.51-.06l4.79,2.77c.39.22.34.61-.1.86l-4.76,2.75A1.69,1.69,0,0,1,305.32,353.9Z"/><path class="f8eff00d-2c2f-401c-893d-1efd72eefb6a" d="M312.73,358.18l-4.8-2.77c-.38-.22-.34-.61.11-.87l4.75-2.74a1.68,1.68,0,0,1,1.51-.07l4.79,2.77c.39.23.34.61-.1.87l-4.76,2.75A1.69,1.69,0,0,1,312.73,358.18Z"/><path class="f8eff00d-2c2f-401c-893d-1efd72eefb6a" d="M320.14,362.46l-4.8-2.77c-.38-.23-.34-.62.11-.87l4.75-2.75a1.71,1.71,0,0,1,1.51-.06l4.79,2.77c.39.22.34.61-.1.87l-4.76,2.74A1.66,1.66,0,0,1,320.14,362.46Z"/><path class="f8eff00d-2c2f-401c-893d-1efd72eefb6a" d="M327.55,366.73l-4.8-2.77c-.39-.22-.34-.61.11-.86l4.75-2.75a1.66,1.66,0,0,1,1.5-.06l4.8,2.77c.39.22.34.61-.11.87l-4.75,2.74A1.63,1.63,0,0,1,327.55,366.73Z"/><path class="f8eff00d-2c2f-401c-893d-1efd72eefb6a" d="M335,371l-4.8-2.77c-.39-.22-.34-.61.11-.87l4.75-2.74a1.63,1.63,0,0,1,1.5-.06l4.8,2.77c.39.22.34.61-.11.86L336.46,371A1.69,1.69,0,0,1,335,371Z"/><path class="f8eff00d-2c2f-401c-893d-1efd72eefb6a" d="M342.37,375.29l-4.8-2.77c-.39-.22-.34-.61.11-.87l4.75-2.74a1.66,1.66,0,0,1,1.5-.07l4.8,2.77c.39.23.34.61-.11.87l-4.75,2.75A1.69,1.69,0,0,1,342.37,375.29Z"/><path class="f8eff00d-2c2f-401c-893d-1efd72eefb6a" d="M349.77,379.57,345,376.8c-.39-.23-.34-.62.11-.87l4.75-2.75a1.69,1.69,0,0,1,1.5-.06l4.8,2.77c.38.22.34.61-.11.87l-4.75,2.74A1.68,1.68,0,0,1,349.77,379.57Z"/><path class="f8eff00d-2c2f-401c-893d-1efd72eefb6a" d="M294,339l-4.8-2.77c-.38-.22-.33-.61.11-.87l4.75-2.74a1.65,1.65,0,0,1,1.51-.06l4.79,2.77c.39.22.34.61-.1.86L295.51,339A1.66,1.66,0,0,1,294,339Z"/><path class="f8eff00d-2c2f-401c-893d-1efd72eefb6a" d="M286.49,334.7l-4.8-2.77c-.38-.22-.33-.61.11-.87l4.75-2.74a1.65,1.65,0,0,1,1.51-.06l4.79,2.77c.39.22.34.61-.1.86L288,334.64A1.69,1.69,0,0,1,286.49,334.7Z"/><path class="f8eff00d-2c2f-401c-893d-1efd72eefb6a" d="M279,330.35l-10.33-6c-.39-.23-.34-.62.1-.87l4.76-2.75a1.69,1.69,0,0,1,1.5-.06l10.33,6c.39.22.34.61-.11.86l-4.75,2.75A1.66,1.66,0,0,1,279,330.35Z"/><path class="f8eff00d-2c2f-401c-893d-1efd72eefb6a" d="M284.22,325.06l-8.38-4.84c-.39-.22-.34-.61.11-.87l4.75-2.74a1.63,1.63,0,0,1,1.5-.06l8.39,4.84c.38.22.33.61-.11.87L285.73,325A1.65,1.65,0,0,1,284.22,325.06Z"/><path class="f8eff00d-2c2f-401c-893d-1efd72eefb6a" d="M301.42,343.32l-4.8-2.77c-.38-.22-.34-.61.11-.87l4.75-2.74a1.68,1.68,0,0,1,1.51-.07l4.79,2.77c.39.23.34.62-.1.87l-4.76,2.75A1.69,1.69,0,0,1,301.42,343.32Z"/><path class="f8eff00d-2c2f-401c-893d-1efd72eefb6a" d="M308.83,347.6l-4.8-2.77c-.38-.23-.34-.61.11-.87l4.75-2.75a1.69,1.69,0,0,1,1.5-.06l4.8,2.77c.39.22.34.61-.11.87l-4.75,2.74A1.66,1.66,0,0,1,308.83,347.6Z"/><path class="f8eff00d-2c2f-401c-893d-1efd72eefb6a" d="M316.24,351.87l-4.8-2.77c-.39-.22-.34-.61.11-.86l4.75-2.75a1.69,1.69,0,0,1,1.5-.06l4.8,2.77c.39.22.34.61-.11.87l-4.75,2.74A1.63,1.63,0,0,1,316.24,351.87Z"/><path class="f8eff00d-2c2f-401c-893d-1efd72eefb6a" d="M323.65,356.15l-4.8-2.77c-.39-.22-.34-.61.11-.87l4.75-2.74a1.66,1.66,0,0,1,1.5-.06l4.8,2.77c.39.22.34.61-.11.87l-4.75,2.74A1.66,1.66,0,0,1,323.65,356.15Z"/><path class="f8eff00d-2c2f-401c-893d-1efd72eefb6a" d="M331.06,360.43l-4.8-2.77c-.39-.22-.34-.61.11-.87l4.75-2.74a1.63,1.63,0,0,1,1.5-.06l4.8,2.77c.39.22.34.61-.11.86l-4.75,2.75A1.69,1.69,0,0,1,331.06,360.43Z"/><path class="f8eff00d-2c2f-401c-893d-1efd72eefb6a" d="M338.46,364.71l-4.79-2.77c-.39-.22-.34-.61.1-.87l4.76-2.74a1.66,1.66,0,0,1,1.5-.07l4.8,2.77c.38.23.34.61-.11.87L340,364.65A1.71,1.71,0,0,1,338.46,364.71Z"/><path class="f8eff00d-2c2f-401c-893d-1efd72eefb6a" d="M345.87,369l-4.79-2.77c-.39-.23-.34-.62.1-.87l4.76-2.75a1.69,1.69,0,0,1,1.5-.06l4.8,2.77c.38.22.33.61-.11.87l-4.75,2.74A1.68,1.68,0,0,1,345.87,369Z"/><path class="f8eff00d-2c2f-401c-893d-1efd72eefb6a" d="M353.28,373.26l-4.8-2.77c-.38-.22-.33-.61.11-.86l4.76-2.75a1.66,1.66,0,0,1,1.5-.06l4.8,2.77c.38.22.33.61-.11.87l-4.75,2.74A1.65,1.65,0,0,1,353.28,373.26Z"/><path class="f8eff00d-2c2f-401c-893d-1efd72eefb6a" d="M360.69,377.54l-4.8-2.77c-.38-.22-.33-.61.11-.87l4.76-2.74a1.63,1.63,0,0,1,1.5-.06l4.8,2.77c.38.22.33.61-.11.86l-4.76,2.75A1.69,1.69,0,0,1,360.69,377.54Z"/><path class="f8eff00d-2c2f-401c-893d-1efd72eefb6a" d="M373.86,385.15l-10.46-6c-.39-.22-.34-.61.1-.87l4.76-2.74a1.63,1.63,0,0,1,1.5-.06l10.47,6c.38.22.33.61-.11.87l-4.75,2.74A1.68,1.68,0,0,1,373.86,385.15Z"/><path class="f8eff00d-2c2f-401c-893d-1efd72eefb6a" d="M388.29,376.82l-8.84-5.1c-.38-.23-.33-.62.11-.87l4.75-2.75a1.71,1.71,0,0,1,1.51-.06l8.83,5.1c.39.22.34.61-.11.87l-4.75,2.74A1.66,1.66,0,0,1,388.29,376.82Z"/><path class="f8eff00d-2c2f-401c-893d-1efd72eefb6a" d="M314.39,342.48l-4.79-2.77c-.39-.22-.34-.61.1-.87l4.76-2.74A1.66,1.66,0,0,1,316,336l4.8,2.77c.38.22.34.61-.11.87l-4.75,2.74A1.68,1.68,0,0,1,314.39,342.48Z"/><path class="f8eff00d-2c2f-401c-893d-1efd72eefb6a" d="M306.8,338.1l-4.8-2.77c-.38-.22-.33-.61.11-.87l4.75-2.74a1.68,1.68,0,0,1,1.51-.07l4.79,2.77c.39.23.34.61-.1.87L308.3,338A1.69,1.69,0,0,1,306.8,338.1Z"/><path class="f8eff00d-2c2f-401c-893d-1efd72eefb6a" d="M299.21,333.71l-4.8-2.77c-.39-.22-.34-.61.11-.86l4.75-2.75a1.69,1.69,0,0,1,1.5-.06l4.8,2.77c.39.22.34.61-.11.87l-4.75,2.74A1.63,1.63,0,0,1,299.21,333.71Z"/><path class="f8eff00d-2c2f-401c-893d-1efd72eefb6a" d="M291.61,329.33l-4.79-2.77c-.39-.22-.34-.61.1-.87l4.76-2.74a1.63,1.63,0,0,1,1.5-.06l4.8,2.77c.38.22.34.61-.11.86l-4.75,2.75A1.71,1.71,0,0,1,291.61,329.33Z"/><path class="f8eff00d-2c2f-401c-893d-1efd72eefb6a" d="M321.8,346.76,317,344c-.39-.22-.34-.61.1-.87l4.76-2.74a1.63,1.63,0,0,1,1.5-.06l4.8,2.77c.38.22.33.61-.11.86l-4.75,2.75A1.71,1.71,0,0,1,321.8,346.76Z"/><path class="f8eff00d-2c2f-401c-893d-1efd72eefb6a" d="M329.21,351l-4.8-2.77c-.38-.22-.33-.61.11-.87l4.76-2.74a1.66,1.66,0,0,1,1.5-.07l4.8,2.77c.38.23.33.61-.11.87L330.71,351A1.69,1.69,0,0,1,329.21,351Z"/><path class="f8eff00d-2c2f-401c-893d-1efd72eefb6a" d="M336.62,355.32l-4.8-2.77c-.38-.23-.33-.62.11-.87l4.76-2.75a1.69,1.69,0,0,1,1.5-.06l4.8,2.77c.38.22.33.61-.11.87l-4.76,2.74A1.66,1.66,0,0,1,336.62,355.32Z"/><path class="f8eff00d-2c2f-401c-893d-1efd72eefb6a" d="M344,359.59l-4.8-2.77c-.38-.22-.33-.61.11-.86l4.75-2.75a1.68,1.68,0,0,1,1.51-.06l4.79,2.77c.39.22.34.61-.1.87l-4.76,2.74A1.63,1.63,0,0,1,344,359.59Z"/><path class="f8eff00d-2c2f-401c-893d-1efd72eefb6a" d="M351.44,363.87l-4.8-2.77c-.38-.22-.34-.61.11-.87l4.75-2.74a1.65,1.65,0,0,1,1.51-.06l4.79,2.77c.39.22.34.61-.1.86l-4.76,2.75A1.69,1.69,0,0,1,351.44,363.87Z"/><path class="f8eff00d-2c2f-401c-893d-1efd72eefb6a" d="M358.85,368.15l-4.8-2.77c-.38-.22-.34-.61.11-.87l4.75-2.74a1.68,1.68,0,0,1,1.51-.07l4.79,2.77c.39.23.34.61-.1.87l-4.76,2.75A1.69,1.69,0,0,1,358.85,368.15Z"/><path class="f8eff00d-2c2f-401c-893d-1efd72eefb6a" d="M366.26,372.43l-4.8-2.77c-.39-.23-.34-.62.11-.87l4.75-2.75a1.69,1.69,0,0,1,1.5-.06l4.8,2.77c.39.22.34.61-.11.87l-4.75,2.74A1.66,1.66,0,0,1,366.26,372.43Z"/><path class="f8eff00d-2c2f-401c-893d-1efd72eefb6a" d="M373.67,376.7l-4.8-2.77c-.39-.22-.34-.61.11-.86l4.75-2.75a1.66,1.66,0,0,1,1.5-.06L380,373c.39.22.34.61-.11.87l-4.75,2.74A1.63,1.63,0,0,1,373.67,376.7Z"/><path class="f8eff00d-2c2f-401c-893d-1efd72eefb6a" d="M381.08,381l-4.8-2.77c-.39-.22-.34-.61.11-.87l4.75-2.74a1.63,1.63,0,0,1,1.5-.06l4.8,2.77c.39.22.34.61-.11.86l-4.75,2.75A1.66,1.66,0,0,1,381.08,381Z"/><path class="f8eff00d-2c2f-401c-893d-1efd72eefb6a" d="M310.49,331.9l-4.8-2.77c-.38-.22-.33-.61.11-.87l4.76-2.74a1.63,1.63,0,0,1,1.5-.06l4.8,2.77c.38.22.33.61-.11.86L312,331.84A1.68,1.68,0,0,1,310.49,331.9Z"/><path class="f8eff00d-2c2f-401c-893d-1efd72eefb6a" d="M303.12,327.65l-4.8-2.77c-.38-.23-.33-.62.11-.87l4.75-2.75a1.71,1.71,0,0,1,1.51-.06l4.79,2.77c.39.22.34.61-.1.87l-4.76,2.74A1.66,1.66,0,0,1,303.12,327.65Z"/><path class="f8eff00d-2c2f-401c-893d-1efd72eefb6a" d="M295.75,323.39l-4.8-2.77c-.38-.22-.34-.61.11-.87l4.75-2.74a1.66,1.66,0,0,1,1.5-.07l4.8,2.77c.39.23.34.62-.11.87l-4.75,2.75A1.69,1.69,0,0,1,295.75,323.39Z"/><path class="f8eff00d-2c2f-401c-893d-1efd72eefb6a" d="M288.38,319.13l-4.8-2.77c-.39-.22-.34-.61.11-.86l4.75-2.75a1.66,1.66,0,0,1,1.5-.06l4.8,2.77c.39.22.34.61-.11.87l-4.75,2.74A1.63,1.63,0,0,1,288.38,319.13Z"/><path class="f8eff00d-2c2f-401c-893d-1efd72eefb6a" d="M296,314.76l-4.8-2.77c-.39-.23-.34-.61.11-.87l1.57-.91a1.66,1.66,0,0,1,1.5-.06l4.8,2.77c.38.22.34.61-.11.87l-1.57.9A1.66,1.66,0,0,1,296,314.76Z"/><path class="f8eff00d-2c2f-401c-893d-1efd72eefb6a" d="M305.58,320.31l-4.8-2.77c-.39-.22-.34-.61.11-.87l1.57-.9a1.66,1.66,0,0,1,1.5-.07l4.8,2.77c.38.23.34.61-.11.87l-1.57.91A1.69,1.69,0,0,1,305.58,320.31Z"/><path class="f8eff00d-2c2f-401c-893d-1efd72eefb6a" d="M312.92,324.55l-4.8-2.77c-.38-.22-.34-.61.11-.87l1.57-.91a1.69,1.69,0,0,1,1.5-.06l4.8,2.77c.39.22.34.61-.11.87l-1.57.91A1.69,1.69,0,0,1,312.92,324.55Z"/><path class="f8eff00d-2c2f-401c-893d-1efd72eefb6a" d="M320.26,328.79l-4.8-2.77c-.38-.22-.33-.61.11-.87l1.57-.91a1.71,1.71,0,0,1,1.51-.06l4.79,2.77c.39.22.34.61-.11.87l-1.57.91A1.69,1.69,0,0,1,320.26,328.79Z"/><path class="f8eff00d-2c2f-401c-893d-1efd72eefb6a" d="M327.6,333l-4.8-2.77c-.38-.23-.33-.61.11-.87l1.57-.91a1.68,1.68,0,0,1,1.51-.06l4.79,2.77c.39.22.34.61-.1.87l-1.58.9A1.66,1.66,0,0,1,327.6,333Z"/><path class="f8eff00d-2c2f-401c-893d-1efd72eefb6a" d="M368.59,356.69l-4.8-2.77c-.38-.22-.34-.61.11-.87l1.57-.91a1.69,1.69,0,0,1,1.5-.06l4.8,2.77c.39.23.34.61-.11.87l-1.57.91A1.69,1.69,0,0,1,368.59,356.69Z"/><path class="f8eff00d-2c2f-401c-893d-1efd72eefb6a" d="M375.93,360.93l-4.8-2.77c-.38-.22-.33-.61.11-.87l1.57-.91a1.69,1.69,0,0,1,1.5-.06l4.8,2.77c.39.22.34.61-.11.87l-1.57.91A1.69,1.69,0,0,1,375.93,360.93Z"/><path class="f8eff00d-2c2f-401c-893d-1efd72eefb6a" d="M383.27,365.17l-4.8-2.77c-.38-.23-.33-.61.11-.87l1.57-.91a1.71,1.71,0,0,1,1.51-.06l4.79,2.77c.39.22.34.61-.1.87l-1.58.9A1.66,1.66,0,0,1,383.27,365.17Z"/><path class="f8eff00d-2c2f-401c-893d-1efd72eefb6a" d="M390.61,369.41l-4.79-2.77c-.39-.23-.34-.61.1-.87l1.57-.91a1.68,1.68,0,0,1,1.51-.06l4.8,2.77c.38.22.33.61-.11.87l-1.57.9A1.68,1.68,0,0,1,390.61,369.41Z"/><path class="f8eff00d-2c2f-401c-893d-1efd72eefb6a" d="M317.9,336.18l-4.8-2.77c-.38-.22-.33-.61.11-.87L318,329.8a1.66,1.66,0,0,1,1.5-.07l4.8,2.77c.38.23.33.62-.11.87l-4.76,2.75A1.69,1.69,0,0,1,317.9,336.18Z"/><path class="f8eff00d-2c2f-401c-893d-1efd72eefb6a" d="M325.31,340.46l-4.8-2.77c-.38-.23-.33-.61.11-.87l4.75-2.75a1.71,1.71,0,0,1,1.51-.06l4.8,2.77c.38.22.33.61-.11.87l-4.76,2.74A1.66,1.66,0,0,1,325.31,340.46Z"/><path class="f8eff00d-2c2f-401c-893d-1efd72eefb6a" d="M332.72,344.73l-4.8-2.77c-.38-.22-.33-.61.11-.86l4.75-2.75a1.71,1.71,0,0,1,1.51-.06l4.79,2.77c.39.22.34.61-.1.87l-4.76,2.74A1.63,1.63,0,0,1,332.72,344.73Z"/><path class="f8eff00d-2c2f-401c-893d-1efd72eefb6a" d="M340.13,349l-4.8-2.77c-.38-.22-.34-.61.11-.87l4.75-2.74a1.68,1.68,0,0,1,1.51-.06l4.79,2.77c.39.22.34.61-.1.87L341.63,349A1.66,1.66,0,0,1,340.13,349Z"/><path class="f8eff00d-2c2f-401c-893d-1efd72eefb6a" d="M347.54,353.29l-4.8-2.77c-.38-.22-.34-.61.11-.87l4.75-2.74a1.63,1.63,0,0,1,1.5-.06l4.8,2.77c.39.22.34.61-.11.86L349,353.23A1.69,1.69,0,0,1,347.54,353.29Z"/><path class="f8eff00d-2c2f-401c-893d-1efd72eefb6a" d="M355,357.57l-4.8-2.77c-.39-.22-.34-.61.11-.87l4.75-2.74a1.66,1.66,0,0,1,1.5-.07l4.8,2.77c.39.23.34.61-.11.87l-4.75,2.75A1.69,1.69,0,0,1,355,357.57Z"/><path class="f8eff00d-2c2f-401c-893d-1efd72eefb6a" d="M362.36,361.85l-4.8-2.77c-.39-.23-.34-.62.11-.87l4.75-2.75a1.69,1.69,0,0,1,1.5-.06l4.8,2.77c.39.22.34.61-.11.87l-4.75,2.74A1.66,1.66,0,0,1,362.36,361.85Z"/><path class="f8eff00d-2c2f-401c-893d-1efd72eefb6a" d="M369.77,366.12l-4.8-2.77c-.39-.22-.34-.61.11-.86l4.75-2.75a1.66,1.66,0,0,1,1.5-.06l4.8,2.77c.39.22.34.61-.11.87l-4.75,2.74A1.63,1.63,0,0,1,369.77,366.12Z"/><path class="f8eff00d-2c2f-401c-893d-1efd72eefb6a" d="M377.17,370.4l-4.79-2.77c-.39-.22-.34-.61.1-.87l4.76-2.74a1.63,1.63,0,0,1,1.5-.06l4.8,2.77c.38.22.34.61-.11.86l-4.75,2.75A1.68,1.68,0,0,1,377.17,370.4Z"/><path class="f8eff00d-2c2f-401c-893d-1efd72eefb6a" d="M275.54,336.71l-14.13-8.16c-.38-.22-.33-.61.11-.87l4.75-2.74a1.65,1.65,0,0,1,1.51-.06L281.91,333c.38.23.33.61-.11.87l-4.75,2.75A1.71,1.71,0,0,1,275.54,336.71Z"/><path class="f8eff00d-2c2f-401c-893d-1efd72eefb6a" d="M366.57,389.26l-14.13-8.16c-.39-.22-.34-.61.1-.87l4.76-2.74a1.63,1.63,0,0,1,1.5-.06l14.13,8.15c.38.23.34.62-.11.87l-4.75,2.75A1.69,1.69,0,0,1,366.57,389.26Z"/><path class="f8eff00d-2c2f-401c-893d-1efd72eefb6a" d="M336.94,381.6l-4.8-2.77c-.39-.22-.34-.61.11-.87l5.66-3.27a1.69,1.69,0,0,1,1.5-.06l4.8,2.77c.38.22.34.61-.11.87l-5.66,3.27A1.66,1.66,0,0,1,336.94,381.6Z"/><path class="f8eff00d-2c2f-401c-893d-1efd72eefb6a" d="M283.13,350.54l-7.67-4.43c-.39-.23-.34-.61.11-.87l5.66-3.27a1.66,1.66,0,0,1,1.5-.06l7.67,4.43c.39.22.34.61-.1.87l-5.67,3.26A1.66,1.66,0,0,1,283.13,350.54Z"/><path class="f8eff00d-2c2f-401c-893d-1efd72eefb6a" d="M329.8,377.48l-7.68-4.43c-.38-.22-.33-.61.11-.87l5.66-3.27a1.71,1.71,0,0,1,1.51-.06l7.67,4.43c.39.22.34.61-.11.87l-5.66,3.27A1.69,1.69,0,0,1,329.8,377.48Z"/><path class="f8eff00d-2c2f-401c-893d-1efd72eefb6a" d="M293.82,356.71l-7.67-4.43c-.39-.22-.34-.61.1-.87l5.67-3.27a1.66,1.66,0,0,1,1.5-.06l7.67,4.43c.39.22.34.61-.1.87l-5.67,3.27A1.69,1.69,0,0,1,293.82,356.71Z"/><path class="f8eff00d-2c2f-401c-893d-1efd72eefb6a" d="M293.47,348.11l33.36,19.26c.42.24.42.63,0,.86l-5.77,3.34a1.65,1.65,0,0,1-1.5,0L286.2,352.31Z"/><path class="f8eff00d-2c2f-401c-893d-1efd72eefb6a" d="M357.64,389.36l5.35,3.08c.31.19.27.5-.09.71l-2.32,1.34a1.37,1.37,0,0,1-1.23.05L354,391.46c-.32-.19-.28-.5.08-.71l2.32-1.34A1.34,1.34,0,0,1,357.64,389.36Z"/><path class="f8eff00d-2c2f-401c-893d-1efd72eefb6a" d="M350.17,385l5.35,3.09c.31.18.27.5-.09.71l-2.32,1.34a1.37,1.37,0,0,1-1.23.05l-5.35-3.09c-.31-.18-.27-.5.09-.71l2.32-1.33A1.35,1.35,0,0,1,350.17,385Z"/><path class="f8eff00d-2c2f-401c-893d-1efd72eefb6a" d="M342.76,380.77l5.35,3.08c.31.18.27.5-.09.71l-2.32,1.34a1.37,1.37,0,0,1-1.23.05l-5.34-3.08c-.32-.19-.28-.5.08-.71l2.32-1.34A1.34,1.34,0,0,1,342.76,380.77Z"/><path class="f8eff00d-2c2f-401c-893d-1efd72eefb6a" d="M354.26,382.68l5.35,3.09c.31.18.27.5-.09.71l-2.32,1.34a1.37,1.37,0,0,1-1.23.05l-5.34-3.09c-.32-.18-.28-.5.08-.71l2.32-1.34A1.37,1.37,0,0,1,354.26,382.68Z"/><polygon class="b2ddcd38-5119-4132-af82-a8cf36c3c34d" points="383.53 299.21 343.62 276.17 344.13 273.58 384.04 296.62 383.53 299.21"/><polygon class="b2ddcd38-5119-4132-af82-a8cf36c3c34d" points="369.24 303.59 341.38 287.51 341.89 284.91 369.75 301 369.24 303.59"/><polygon class="edda61b9-28dc-494e-b0b2-7a1cd1afed81" points="366.6 295.75 342.5 281.84 343.01 279.25 367.11 293.16 366.6 295.75"/><polygon class="a92a91ea-a3f7-43e0-b2fa-1ee8ad0a3646" points="382.41 304.88 370.36 297.92 370.87 295.33 382.92 302.29 382.41 304.88"/><path class="a92a91ea-a3f7-43e0-b2fa-1ee8ad0a3646" d="M361.49,273.49a1.51,1.51,0,0,1-2.17.67,1.9,1.9,0,0,1-.78-2.37,1.51,1.51,0,0,1,2.17-.66A1.89,1.89,0,0,1,361.49,273.49Z"/><path class="b2ddcd38-5119-4132-af82-a8cf36c3c34d" d="M366.68,276.49a1.51,1.51,0,0,1-2.17.67,1.9,1.9,0,0,1-.78-2.37,1.51,1.51,0,0,1,2.17-.67A1.9,1.9,0,0,1,366.68,276.49Z"/><path class="a92a91ea-a3f7-43e0-b2fa-1ee8ad0a3646" d="M371.87,279.49a1.51,1.51,0,0,1-2.17.66,1.89,1.89,0,0,1-.78-2.36,1.51,1.51,0,0,1,2.17-.67A1.9,1.9,0,0,1,371.87,279.49Z"/><path class="edda61b9-28dc-494e-b0b2-7a1cd1afed81" d="M377.06,282.48a1.51,1.51,0,0,1-2.17.67,1.9,1.9,0,0,1-.78-2.37,1.51,1.51,0,0,1,2.17-.66A1.89,1.89,0,0,1,377.06,282.48Z"/><path class="a92a91ea-a3f7-43e0-b2fa-1ee8ad0a3646" d="M383.47,176.81l-2.06-1.18v-2.95a11,11,0,0,0-5-8.61l-15.55-8.92c-2.74-1.58-5-.29-5,2.87V161l-2.05-1.19v-2.95c0-4.46,3.15-6.28,7-4.05l15.55,8.92a15.55,15.55,0,0,1,7,12.16Z"/><path class="a92a91ea-a3f7-43e0-b2fa-1ee8ad0a3646" d="M376.46,180.85l7-4-1.42-4.92-2-4.94s-3.38-3.76-3.63-3.84-9.44-5.29-9.44-5.29l-7.66-5.51-3.64.12-6.78,3.89,4.87,2s2.76,1.37,3.39,1.54a24,24,0,0,1,3.4,2.78l3.34,1.35.71-.12,6,4.18,1.92.86,1,1.66,1.59,4.45Z"/><path class="b0e1c372-1d26-4b38-9794-e576319f81ca" d="M355.93,161l-7,4s-.45-4.52-.45-4.58,1.53-2.2,1.53-2.2l3.81-.74,3,2.29-.95-.39-.4.24.46.74Z"/><path class="f8eff00d-2c2f-401c-893d-1efd72eefb6a" d="M376.46,180.85l-2.06-1.19v-2.95a11,11,0,0,0-5-8.6l-15.55-8.92c-2.74-1.58-5-.3-5,2.87V165l-2.05-1.19v-2.95c0-4.47,3.15-6.29,7-4.05l15.55,8.92a15.53,15.53,0,0,1,7,12.16Z"/><path class="a92a91ea-a3f7-43e0-b2fa-1ee8ad0a3646" d="M453.84,176.78l-1.52-.87c-.63.43-1.28.85-1.93,1.26l3.45,2a11,11,0,0,1,5,8.61v3l2.05,1.18v-2.95A15.55,15.55,0,0,0,453.84,176.78Z"/><path class="a92a91ea-a3f7-43e0-b2fa-1ee8ad0a3646" d="M457.48,182s-3.37-3.76-3.63-3.83c-.09,0-1.25-.67-2.72-1.5-2.2,1.42-4.46,2.72-6.71,3.94l3.58,2.52,1.93.85,1,1.66,1.59,4.45,1.29,5.81,7-4L459.44,187Z"/><path class="f8eff00d-2c2f-401c-893d-1efd72eefb6a" d="M446.83,183.19a11,11,0,0,1,5,8.61v2.94l2.05,1.19v-3a15.55,15.55,0,0,0-7-12.16l-1.34-.77c-.71.39-1.42.78-2.13,1.15Z"/><polygon class="ace39a3d-5f66-44ec-83fc-7ee5853533d1" points="245.47 430.2 233.92 423.53 245.47 416.86 257.03 423.53 245.47 430.2"/><polygon class="f672818f-557d-4571-b964-72a362eb5a05" points="257.03 415.96 245.47 422.63 245.47 409.29 257.03 402.62 257.03 415.96"/><polygon class="edda61b9-28dc-494e-b0b2-7a1cd1afed81" points="245.47 409.29 233.92 402.62 245.47 395.94 257.03 402.62 245.47 409.29"/><polygon class="edda61b9-28dc-494e-b0b2-7a1cd1afed81" points="245.47 422.63 233.92 415.96 233.92 402.62 245.47 409.29 245.47 422.63"/><polygon class="e8f85592-5241-434e-a9a1-dc3e042f657d" points="245.47 215.29 233.92 208.62 245.47 201.94 257.03 208.62 245.47 215.29"/><polygon class="ebd76b6c-2eb5-4a77-9104-44a1464d1e58" points="257.03 201.05 245.47 207.72 245.47 194.37 257.03 187.7 257.03 201.05"/><polygon class="a92a91ea-a3f7-43e0-b2fa-1ee8ad0a3646" points="245.47 194.37 233.92 187.7 245.47 181.03 257.03 187.7 245.47 194.37"/><polygon class="f8eff00d-2c2f-401c-893d-1efd72eefb6a" points="245.47 207.72 233.92 201.05 233.92 187.7 245.47 194.37 245.47 207.72"/><polygon class="e8f85592-5241-434e-a9a1-dc3e042f657d" points="431.23 439.76 419.67 433.09 431.23 426.42 442.79 433.09 431.23 439.76"/><polygon class="ebd76b6c-2eb5-4a77-9104-44a1464d1e58" points="442.79 425.52 431.23 432.19 431.23 418.85 442.79 412.18 442.79 425.52"/><polygon class="a92a91ea-a3f7-43e0-b2fa-1ee8ad0a3646" points="431.23 418.85 419.67 412.18 431.23 405.5 442.79 412.18 431.23 418.85"/><polygon class="f8eff00d-2c2f-401c-893d-1efd72eefb6a" points="431.23 432.19 419.67 425.52 419.67 412.18 431.23 418.85 431.23 432.19"/></svg>