<?xml version="1.0" encoding="utf-8"?>
<!-- Generator: Adobe Illustrator 23.0.1, SVG Export Plug-In . SVG Version: 6.00 Build 0)  -->
<svg version="1.1" id="Capa_1" xmlns="http://www.w3.org/2000/svg" xmlns:xlink="http://www.w3.org/1999/xlink" x="0px" y="0px"
	 viewBox="0 0 512 481.8" style="enable-background:new 0 0 512 481.8;" xml:space="preserve">
<style type="text/css">
	.st0{fill:#4A88C7;}
</style>
<g>
	<g id="Cloud_x5F_download">
		<g>
			<path class="st0" d="M323.8,376.4c-6.2,0-11.9,2.5-16,6.6l-21.7,21.7V263.3c9.1-6.9,15.1-17.7,15.1-29.9
				c0-20.8-16.9-37.6-37.6-37.6S226,212.7,226,233.4c0,12.3,6,23.1,15.1,29.9v141.4L219.4,383c-4.1-4.1-9.7-6.6-16-6.6
				c-12.5,0-22.6,10.1-22.6,22.6c0,6.2,2.5,11.9,6.6,16l60.2,60.2c4.1,4.1,9.7,6.6,16,6.6s11.9-2.5,16-6.6l60.2-60.2
				c4.1-4.1,6.6-9.7,6.6-16C346.4,386.5,336.2,376.4,323.8,376.4z M451.8,173.1c0-61.1-48.6-110.8-109.2-112.7
				C313.6,23.6,268.9,0,218.4,0c-84,0-152.6,65.6-157.6,148.4C24.7,167.2,0,204.9,0,248.4c0,62.4,50.6,112.9,112.9,112.9H143
				c12.5,0,22.6-10.1,22.6-22.6s-10.1-22.6-22.6-22.6h-30.1c-37.4,0-67.8-30.4-67.8-67.8c0-25.3,14-48.3,36.5-60l22.6-11.8l1.6-25.5
				c3.6-59.4,53.1-106,112.5-106c34.7,0,67.1,15.8,88.7,43.2l13,16.5l21,0.7c36.7,1.2,65.5,30.9,65.5,67.6v30.1l27.8,11.6
				c19.7,8.2,32.4,27.3,32.4,48.7c0,29.1-23.6,52.7-52.7,52.7h-30c-12.5,0-22.6,10.1-22.6,22.6s10.1,22.6,22.6,22.6h30.1
				c54.1,0,97.9-43.8,97.9-97.9C512,222.8,487.1,187.9,451.8,173.1z"/>
		</g>
	</g>
</g>
</svg>
